G04 #@! TF.GenerationSoftware,KiCad,Pcbnew,(5.1.10)-1*
G04 #@! TF.CreationDate,2021-10-20T16:58:38-04:00*
G04 #@! TF.ProjectId,buttons,62757474-6f6e-4732-9e6b-696361645f70,rev?*
G04 #@! TF.SameCoordinates,Original*
G04 #@! TF.FileFunction,Copper,L1,Top*
G04 #@! TF.FilePolarity,Positive*
%FSLAX46Y46*%
G04 Gerber Fmt 4.6, Leading zero omitted, Abs format (unit mm)*
G04 Created by KiCad (PCBNEW (5.1.10)-1) date 2021-10-20 16:58:38*
%MOMM*%
%LPD*%
G01*
G04 APERTURE LIST*
G04 #@! TA.AperFunction,SMDPad,CuDef*
%ADD10R,1.550000X1.000000*%
G04 #@! TD*
G04 #@! TA.AperFunction,SMDPad,CuDef*
%ADD11R,1.000000X1.550000*%
G04 #@! TD*
G04 #@! TA.AperFunction,ComponentPad*
%ADD12C,2.250000*%
G04 #@! TD*
G04 #@! TA.AperFunction,ComponentPad*
%ADD13C,1.300000*%
G04 #@! TD*
G04 #@! TA.AperFunction,ComponentPad*
%ADD14C,1.650000*%
G04 #@! TD*
G04 #@! TA.AperFunction,ComponentPad*
%ADD15R,1.650000X1.650000*%
G04 #@! TD*
G04 #@! TA.AperFunction,ComponentPad*
%ADD16C,6.400000*%
G04 #@! TD*
G04 #@! TA.AperFunction,ViaPad*
%ADD17C,0.800000*%
G04 #@! TD*
G04 #@! TA.AperFunction,Conductor*
%ADD18C,0.250000*%
G04 #@! TD*
G04 APERTURE END LIST*
D10*
X140864500Y-63106500D03*
X140864500Y-66306500D03*
X135614500Y-66306500D03*
X135614500Y-63106500D03*
X140864500Y-71298000D03*
X140864500Y-74498000D03*
X135614500Y-74498000D03*
X135614500Y-71298000D03*
D11*
X101714500Y-66272500D03*
X104914500Y-66272500D03*
X104914500Y-71522500D03*
X101714500Y-71522500D03*
D12*
X123448000Y-64897000D03*
X111248000Y-64897000D03*
D13*
X121348000Y-64897000D03*
X119348000Y-64897000D03*
X117348000Y-64897000D03*
X113348000Y-64897000D03*
D12*
X123448000Y-73088500D03*
X111248000Y-73088500D03*
D13*
X121348000Y-73088500D03*
X119348000Y-73088500D03*
X117348000Y-73088500D03*
X113348000Y-73088500D03*
D14*
X135255000Y-58737500D03*
X132715000Y-58737500D03*
X130175000Y-58737500D03*
X127635000Y-58737500D03*
X125095000Y-58737500D03*
X122555000Y-58737500D03*
X120015000Y-58737500D03*
X117475000Y-58737500D03*
X114935000Y-58737500D03*
X112395000Y-58737500D03*
D15*
X109855000Y-58737500D03*
D16*
X95059500Y-68707000D03*
X147193000Y-68707000D03*
D17*
X138811000Y-71183500D03*
X138811000Y-62992000D03*
X119697500Y-61277500D03*
D18*
X129350001Y-59562499D02*
X130175000Y-58737500D01*
X122798001Y-63446999D02*
X125465501Y-63446999D01*
X125465501Y-63446999D02*
X129350001Y-59562499D01*
X121348000Y-64897000D02*
X122798001Y-63446999D01*
X126810001Y-59562499D02*
X127635000Y-58737500D01*
X121248011Y-62996989D02*
X123375511Y-62996989D01*
X123375511Y-62996989D02*
X126810001Y-59562499D01*
X119348000Y-64897000D02*
X121248011Y-62996989D01*
X124270001Y-59562499D02*
X125095000Y-58737500D01*
X121285521Y-62546979D02*
X124270001Y-59562499D01*
X115698021Y-62546979D02*
X121285521Y-62546979D01*
X113348000Y-64897000D02*
X115698021Y-62546979D01*
X109855000Y-59812500D02*
X109855000Y-58737500D01*
X109855000Y-62082000D02*
X109855000Y-59812500D01*
X105664500Y-66272500D02*
X109855000Y-62082000D01*
X104914500Y-66272500D02*
X105664500Y-66272500D01*
X102464500Y-66272500D02*
X104914500Y-66272500D01*
X101714500Y-66272500D02*
X102464500Y-66272500D01*
X135614500Y-72048000D02*
X135614500Y-74498000D01*
X135614500Y-71298000D02*
X135614500Y-72048000D01*
X135614500Y-65556500D02*
X135614500Y-63106500D01*
X135614500Y-66306500D02*
X135614500Y-65556500D01*
X135255000Y-62747000D02*
X135614500Y-63106500D01*
X135255000Y-58737500D02*
X135255000Y-62747000D01*
X135614500Y-66306500D02*
X135614500Y-71298000D01*
X125038990Y-64897000D02*
X123448000Y-64897000D01*
X128257502Y-64897000D02*
X125038990Y-64897000D01*
X134417002Y-58737500D02*
X128257502Y-64897000D01*
X135255000Y-58737500D02*
X134417002Y-58737500D01*
X123448000Y-71497510D02*
X123448000Y-64897000D01*
X123448000Y-73088500D02*
X123448000Y-71497510D01*
X112372999Y-74213499D02*
X111248000Y-73088500D01*
X122323001Y-74213499D02*
X112372999Y-74213499D01*
X123448000Y-73088500D02*
X122323001Y-74213499D01*
X104914500Y-72547500D02*
X104914500Y-71522500D01*
X105455500Y-73088500D02*
X104914500Y-72547500D01*
X111248000Y-73088500D02*
X105455500Y-73088500D01*
X104164500Y-71522500D02*
X101714500Y-71522500D01*
X104914500Y-71522500D02*
X104164500Y-71522500D01*
X140750000Y-71183500D02*
X140864500Y-71298000D01*
X138811000Y-71183500D02*
X140750000Y-71183500D01*
X140864500Y-72048000D02*
X140864500Y-74498000D01*
X140864500Y-71298000D02*
X140864500Y-72048000D01*
X136305482Y-56687480D02*
X114445020Y-56687480D01*
X141964501Y-62346499D02*
X136305482Y-56687480D01*
X113219999Y-57912501D02*
X112395000Y-58737500D01*
X141964501Y-71222999D02*
X141964501Y-62346499D01*
X114445020Y-56687480D02*
X113219999Y-57912501D01*
X141889500Y-71298000D02*
X141964501Y-71222999D01*
X140864500Y-71298000D02*
X141889500Y-71298000D01*
X140750000Y-62992000D02*
X140864500Y-63106500D01*
X138811000Y-62992000D02*
X140750000Y-62992000D01*
X140864500Y-65556500D02*
X140864500Y-63106500D01*
X140864500Y-66306500D02*
X140864500Y-65556500D01*
X115759999Y-57912501D02*
X114935000Y-58737500D01*
X135645489Y-57137489D02*
X116535011Y-57137489D01*
X116535011Y-57137489D02*
X115759999Y-57912501D01*
X140864500Y-62356500D02*
X135645489Y-57137489D01*
X140864500Y-63106500D02*
X140864500Y-62356500D01*
X117348000Y-73088500D02*
X117348000Y-64897000D01*
X131890001Y-57912501D02*
X132715000Y-58737500D01*
X131564999Y-57587499D02*
X131890001Y-57912501D01*
X122002999Y-57587499D02*
X131564999Y-57587499D01*
X121404999Y-58185499D02*
X122002999Y-57587499D01*
X121404999Y-60135686D02*
X121404999Y-58185499D01*
X120263185Y-61277500D02*
X121404999Y-60135686D01*
X119697500Y-61277500D02*
X120263185Y-61277500D01*
M02*
