M48
; DRILL file {KiCad (5.1.10)-1} date 10/20/21 16:58:35
; FORMAT={-:-/ absolute / inch / decimal}
; #@! TF.CreationDate,2021-10-20T16:58:35-04:00
; #@! TF.GenerationSoftware,Kicad,Pcbnew,(5.1.10)-1
FMAT,2
INCH
T1C0.0157
T2C0.0315
T3C0.0433
T4C0.0591
T5C0.1260
%
G90
G05
T1
X4.7125Y-2.4125
X5.465Y-2.48
X5.465Y-2.8025
T2
X4.4625Y-2.555
X4.4625Y-2.8775
X4.62Y-2.555
X4.62Y-2.8775
X4.6987Y-2.555
X4.6987Y-2.8775
X4.7775Y-2.555
X4.7775Y-2.8775
T3
X4.325Y-2.3125
X4.425Y-2.3125
X4.525Y-2.3125
X4.625Y-2.3125
X4.725Y-2.3125
X4.825Y-2.3125
X4.925Y-2.3125
X5.025Y-2.3125
X5.125Y-2.3125
X5.225Y-2.3125
X5.325Y-2.3125
T4
X4.3798Y-2.555
X4.3798Y-2.8775
X4.8602Y-2.555
X4.8602Y-2.8775
T5
X3.7425Y-2.705
X5.795Y-2.705
T0
M30
