G04 #@! TF.GenerationSoftware,KiCad,Pcbnew,(5.1.10)-1*
G04 #@! TF.CreationDate,2021-10-20T16:58:38-04:00*
G04 #@! TF.ProjectId,buttons,62757474-6f6e-4732-9e6b-696361645f70,rev?*
G04 #@! TF.SameCoordinates,Original*
G04 #@! TF.FileFunction,Copper,L2,Bot*
G04 #@! TF.FilePolarity,Positive*
%FSLAX46Y46*%
G04 Gerber Fmt 4.6, Leading zero omitted, Abs format (unit mm)*
G04 Created by KiCad (PCBNEW (5.1.10)-1) date 2021-10-20 16:58:38*
%MOMM*%
%LPD*%
G01*
G04 APERTURE LIST*
G04 #@! TA.AperFunction,ComponentPad*
%ADD10C,2.250000*%
G04 #@! TD*
G04 #@! TA.AperFunction,ComponentPad*
%ADD11C,1.300000*%
G04 #@! TD*
G04 #@! TA.AperFunction,SMDPad,CuDef*
%ADD12R,1.100000X1.700000*%
G04 #@! TD*
G04 #@! TA.AperFunction,ComponentPad*
%ADD13C,1.650000*%
G04 #@! TD*
G04 #@! TA.AperFunction,ComponentPad*
%ADD14R,1.650000X1.650000*%
G04 #@! TD*
G04 #@! TA.AperFunction,ComponentPad*
%ADD15C,6.400000*%
G04 #@! TD*
G04 #@! TA.AperFunction,SMDPad,CuDef*
%ADD16R,0.910000X1.390000*%
G04 #@! TD*
G04 #@! TA.AperFunction,ViaPad*
%ADD17C,0.800000*%
G04 #@! TD*
G04 #@! TA.AperFunction,Conductor*
%ADD18C,0.250000*%
G04 #@! TD*
G04 APERTURE END LIST*
D10*
X123448000Y-64897000D03*
X111248000Y-64897000D03*
D11*
X121348000Y-64897000D03*
X119348000Y-64897000D03*
X117348000Y-64897000D03*
X113348000Y-64897000D03*
D10*
X123448000Y-73088500D03*
X111248000Y-73088500D03*
D11*
X121348000Y-73088500D03*
X119348000Y-73088500D03*
X117348000Y-73088500D03*
X113348000Y-73088500D03*
D12*
X134122500Y-62992000D03*
X137022500Y-62992000D03*
X134122500Y-71183500D03*
X137022500Y-71183500D03*
X101864500Y-66357500D03*
X104764500Y-66357500D03*
X130228000Y-67945000D03*
X127328000Y-67945000D03*
X130228000Y-65214500D03*
X127328000Y-65214500D03*
X130228000Y-62420500D03*
X127328000Y-62420500D03*
X130228000Y-70802500D03*
X127328000Y-70802500D03*
X130228000Y-73596500D03*
X127328000Y-73596500D03*
X130291500Y-76390500D03*
X127391500Y-76390500D03*
D13*
X135255000Y-58737500D03*
X132715000Y-58737500D03*
X130175000Y-58737500D03*
X127635000Y-58737500D03*
X125095000Y-58737500D03*
X122555000Y-58737500D03*
X120015000Y-58737500D03*
X117475000Y-58737500D03*
X114935000Y-58737500D03*
X112395000Y-58737500D03*
D14*
X109855000Y-58737500D03*
D15*
X95059500Y-68707000D03*
X147193000Y-68707000D03*
D16*
X136334500Y-66230500D03*
X134694500Y-66230500D03*
X136456000Y-74358500D03*
X134816000Y-74358500D03*
X104198000Y-70739000D03*
X102558000Y-70739000D03*
D17*
X138811000Y-71183500D03*
X138811000Y-62992000D03*
X119697500Y-61277500D03*
D18*
X130175000Y-59904226D02*
X130175000Y-58737500D01*
X130175000Y-60373500D02*
X130175000Y-59904226D01*
X128128000Y-62420500D02*
X130175000Y-60373500D01*
X127328000Y-62420500D02*
X128128000Y-62420500D01*
X126810001Y-59562499D02*
X127635000Y-58737500D01*
X126452999Y-65139499D02*
X126452999Y-59919501D01*
X126452999Y-59919501D02*
X126810001Y-59562499D01*
X126528000Y-65214500D02*
X126452999Y-65139499D01*
X127328000Y-65214500D02*
X126528000Y-65214500D01*
X127328000Y-67945000D02*
X126528000Y-67945000D01*
X126002989Y-67419989D02*
X126002989Y-59607511D01*
X126528000Y-67945000D02*
X126002989Y-67419989D01*
X125965011Y-59607511D02*
X125095000Y-58737500D01*
X126002989Y-59607511D02*
X125965011Y-59607511D01*
X126528000Y-70802500D02*
X125552979Y-69827479D01*
X127328000Y-70802500D02*
X126528000Y-70802500D01*
X125552979Y-61735479D02*
X122555000Y-58737500D01*
X125552979Y-69827479D02*
X125552979Y-61735479D01*
X121348000Y-72169262D02*
X116078000Y-66899262D01*
X121348000Y-73088500D02*
X121348000Y-72169262D01*
X116078000Y-66899262D02*
X116078000Y-62230000D01*
X121730001Y-57912501D02*
X122555000Y-58737500D01*
X121404999Y-57587499D02*
X121730001Y-57912501D01*
X119462999Y-57587499D02*
X121404999Y-57587499D01*
X118864999Y-58185499D02*
X119462999Y-57587499D01*
X118864999Y-59443001D02*
X118864999Y-58185499D01*
X116078000Y-62230000D02*
X118864999Y-59443001D01*
X120839999Y-59562499D02*
X120015000Y-58737500D01*
X124898001Y-63620501D02*
X120839999Y-59562499D01*
X124898001Y-71966501D02*
X124898001Y-63620501D01*
X126528000Y-73596500D02*
X124898001Y-71966501D01*
X126528000Y-73596500D02*
X127328000Y-73596500D01*
X120798001Y-74538501D02*
X125585999Y-74538501D01*
X125585999Y-74538501D02*
X126528000Y-73596500D01*
X119348000Y-73088500D02*
X120798001Y-74538501D01*
X127391500Y-76390500D02*
X117792500Y-76390500D01*
X117792500Y-76390500D02*
X115316000Y-73914000D01*
X115316000Y-60896500D02*
X117475000Y-58737500D01*
X115316000Y-73914000D02*
X115316000Y-60896500D01*
X114490500Y-73088500D02*
X113348000Y-73088500D01*
X115316000Y-73914000D02*
X114490500Y-73088500D01*
X104198000Y-66924000D02*
X104764500Y-66357500D01*
X104198000Y-70739000D02*
X104198000Y-66924000D01*
X109855000Y-59812500D02*
X109855000Y-58737500D01*
X109855000Y-62067000D02*
X109855000Y-59812500D01*
X105564500Y-66357500D02*
X109855000Y-62067000D01*
X104764500Y-66357500D02*
X105564500Y-66357500D01*
X135255000Y-58737500D02*
X135255000Y-58864500D01*
X131572000Y-62420500D02*
X130228000Y-62420500D01*
X135255000Y-58737500D02*
X131572000Y-62420500D01*
X131572000Y-72771000D02*
X131572000Y-72925500D01*
X131572000Y-70104000D02*
X131572000Y-70131500D01*
X131572000Y-70104000D02*
X131572000Y-72771000D01*
X131572000Y-67401000D02*
X131028000Y-67945000D01*
X131572000Y-67310000D02*
X131572000Y-67401000D01*
X131028000Y-67945000D02*
X130228000Y-67945000D01*
X131572000Y-67310000D02*
X131572000Y-70104000D01*
X131028000Y-65214500D02*
X130228000Y-65214500D01*
X131572000Y-64670500D02*
X131028000Y-65214500D01*
X131572000Y-64389000D02*
X131572000Y-64670500D01*
X131572000Y-64389000D02*
X131572000Y-67310000D01*
X131572000Y-62420500D02*
X131572000Y-64389000D01*
X132397500Y-74358500D02*
X134816000Y-74358500D01*
X131572000Y-75184000D02*
X132397500Y-74358500D01*
X134816000Y-73413500D02*
X135572500Y-72657000D01*
X134816000Y-74358500D02*
X134816000Y-73413500D01*
X134694500Y-67175500D02*
X134694500Y-66230500D01*
X135572500Y-68053500D02*
X134694500Y-67175500D01*
X135572500Y-72657000D02*
X135572500Y-68053500D01*
X131028000Y-70802500D02*
X130228000Y-70802500D01*
X131572000Y-70258500D02*
X131028000Y-70802500D01*
X131572000Y-70104000D02*
X131572000Y-70258500D01*
X131028000Y-73596500D02*
X130228000Y-73596500D01*
X131572000Y-72961500D02*
X131572000Y-75184000D01*
X131572000Y-73052500D02*
X131028000Y-73596500D01*
X131572000Y-72961500D02*
X131572000Y-73052500D01*
X131572000Y-72771000D02*
X131572000Y-72961500D01*
X131091500Y-76390500D02*
X130291500Y-76390500D01*
X131572000Y-75910000D02*
X131091500Y-76390500D01*
X131572000Y-75184000D02*
X131572000Y-75910000D01*
X109657010Y-73088500D02*
X111248000Y-73088500D01*
X103962500Y-73088500D02*
X109657010Y-73088500D01*
X102558000Y-71684000D02*
X103962500Y-73088500D01*
X102558000Y-70739000D02*
X102558000Y-71684000D01*
X137022500Y-71183500D02*
X138811000Y-71183500D01*
X137022500Y-73792000D02*
X136456000Y-74358500D01*
X137022500Y-71183500D02*
X137022500Y-73792000D01*
X137022500Y-62992000D02*
X138811000Y-62992000D01*
X136334500Y-63680000D02*
X137022500Y-62992000D01*
X136334500Y-66230500D02*
X136334500Y-63680000D01*
X134922500Y-62992000D02*
X134122500Y-62992000D01*
X136405001Y-58185499D02*
X136405001Y-61509499D01*
X133865001Y-57587499D02*
X135807001Y-57587499D01*
X136405001Y-61509499D02*
X134922500Y-62992000D01*
X135807001Y-57587499D02*
X136405001Y-58185499D01*
X132715000Y-58737500D02*
X133865001Y-57587499D01*
X134122500Y-70083500D02*
X134122500Y-71183500D01*
X133322500Y-69283500D02*
X134122500Y-70083500D01*
X133322500Y-64892000D02*
X133322500Y-69283500D01*
X134122500Y-64092000D02*
X133322500Y-64892000D01*
X134122500Y-62992000D02*
X134122500Y-64092000D01*
X117348000Y-64897000D02*
X117348000Y-63627000D01*
X117348000Y-63627000D02*
X119697500Y-61277500D01*
X101864500Y-65257500D02*
X101864500Y-66357500D01*
X109220009Y-57137489D02*
X101864500Y-64492998D01*
X101864500Y-64492998D02*
X101864500Y-65257500D01*
X131114989Y-57137489D02*
X109220009Y-57137489D01*
X132715000Y-58737500D02*
X131114989Y-57137489D01*
M02*
