M48
; DRILL file {KiCad (5.1.5)-3} date 10/21/2021 07:31:44 PM
; FORMAT={-:-/ absolute / inch / decimal}
; #@! TF.CreationDate,2021-10-21T19:31:44-04:00
; #@! TF.GenerationSoftware,Kicad,Pcbnew,(5.1.5)-3
FMAT,2
INCH
T1C0.0157
T2C0.0200
T3C0.0236
T4C0.0250
T5C0.0276
T6C0.0295
T7C0.0300
T8C0.0394
T9C0.0433
T10C0.0984
T11C0.1244
T12C0.1433
T13C0.1693
%
G90
G05
T1
X3.9352Y-2.6727
X3.959Y-2.1947
X4.0002Y-2.6527
X4.03Y-2.7335
X4.0398Y-2.6723
X4.0775Y-1.1075
X4.0842Y-2.7317
X4.0952Y-2.8277
X4.1002Y-2.9677
X4.1352Y-3.0127
X4.1404Y-2.9679
X4.1411Y-2.7386
X4.1502Y-2.8277
X4.1792Y-3.0117
X4.2002Y-2.8277
X4.297Y-2.187
X4.3455Y-2.1722
X4.3847Y-2.1678
X4.454Y-2.1595
X4.4802Y-3.2127
X4.5102Y-3.2477
X4.5262Y-1.9017
X4.6402Y-1.9027
X4.7712Y-2.1497
X4.7822Y-2.1119
X4.7943Y-2.0744
X4.825Y-3.6
X4.8282Y-2.0507
X4.8674Y-2.0472
X4.9002Y-2.0254
X4.9395Y-2.0247
X5.0542Y-2.4647
X5.1843Y-2.4286
X5.2002Y-2.7527
X5.2242Y-2.5887
X5.2302Y-2.6527
X5.2402Y-2.7714
X5.2498Y-2.8327
X5.2734Y-2.7999
X5.2802Y-2.7327
X5.2952Y-2.6277
X5.2952Y-2.8327
X5.2952Y-2.8727
X5.3302Y-2.6627
X5.3502Y-2.7027
X5.3525Y-1.9975
X5.3525Y-2.0975
X5.3525Y-2.1975
X5.3525Y-2.2975
X5.3525Y-2.3975
X5.3702Y-2.5577
X5.4525Y-1.9975
X5.4525Y-2.0975
X5.4525Y-2.1975
X5.4525Y-2.2975
X5.4525Y-2.3975
X5.5525Y-1.9975
X5.5525Y-2.0975
X5.5525Y-2.1975
X5.5525Y-2.2975
X5.5525Y-2.3975
X5.6525Y-2.2975
X5.6525Y-2.3975
X5.7525Y-2.2975
X5.7525Y-2.3975
X5.8525Y-2.2975
X5.8525Y-2.3975
X5.928Y-2.955
X5.9525Y-2.1125
X5.9525Y-2.2125
X5.9525Y-2.2975
X5.9525Y-2.3975
X6.0162Y-2.5567
X6.0525Y-2.1125
X6.0525Y-2.2125
X6.0525Y-2.2975
X6.0525Y-2.3975
X6.071Y-3.671
X6.1525Y-2.1125
X6.1525Y-2.2125
X6.1525Y-2.2975
X6.1525Y-2.3975
X6.22Y-3.495
X6.233Y-3.447
X6.3Y-2.9
X6.386Y-2.887
X6.386Y-3.132
X6.4672Y-3.4047
X6.4682Y-3.3177
T2
X4.1902Y-2.4677
X4.2082Y-1.6387
X4.3032Y-1.9057
X4.3445Y-2.316
X4.3445Y-2.378
X4.3465Y-2.763
X4.3475Y-2.829
X4.3485Y-2.616
X4.3505Y-2.556
X4.3612Y-2.9447
X4.3642Y-2.9997
X4.3952Y-3.2377
X4.516Y-1.632
X4.5262Y-3.0147
X4.5915Y-3.014
X4.7225Y-2.306
X4.7545Y-3.013
X4.7805Y-2.307
X4.801Y-1.407
X4.8145Y-3.015
X4.9515Y-3.014
X5.0385Y-2.612
X5.0415Y-2.546
X5.0565Y-2.744
X5.0565Y-2.813
X5.0595Y-3.009
X5.0605Y-2.301
X5.0615Y-2.378
X5.4392Y-1.4277
X5.4392Y-1.4877
T3
X6.2429Y-1.1647
X6.2801Y-1.0749
X6.2801Y-1.2545
X6.3699Y-1.0377
X6.3699Y-1.2917
X6.4597Y-1.0749
X6.4597Y-1.2545
X6.4969Y-1.1647
X6.2479Y-3.7707
X6.2851Y-3.6809
X6.2851Y-3.8605
X6.3749Y-3.6437
X6.3749Y-3.8977
X6.4647Y-3.6809
X6.4647Y-3.8605
X6.5019Y-3.7707
X3.4463Y-1.1647
X3.4835Y-1.0749
X3.4835Y-1.2545
X3.5733Y-1.0377
X3.5733Y-1.2917
X3.6631Y-1.0749
X3.6631Y-1.2545
X3.7003Y-1.1647
X3.4513Y-3.7658
X3.4885Y-3.676
X3.4885Y-3.8556
X3.5783Y-3.6388
X3.5783Y-3.8928
X3.6681Y-3.676
X3.6681Y-3.8556
X3.7053Y-3.7658
T4
X4.0064Y-2.3324
X4.2682Y-3.3927
X4.574Y-2.032
X4.6893Y-2.1313
X5.1032Y-1.6587
X5.355Y-1.852
X5.701Y-2.783
X5.702Y-2.725
X6.0762Y-1.8497
X6.2562Y-1.7407
X6.2812Y-2.1597
X6.3952Y-2.6697
X6.4822Y-2.6697
T5
X6.2575Y-1.829
X6.2575Y-1.9077
T6
X4.5502Y-1.2213
X4.5502Y-1.3
T7
X6.4297Y-1.7327
T8
X3.4702Y-2.8127
X3.4702Y-2.9127
X3.4702Y-3.0127
X3.4702Y-3.1127
X3.4702Y-3.2127
X3.4702Y-3.3127
X3.4702Y-3.4127
X3.4702Y-3.5127
X5.373Y-3.134
X5.373Y-3.234
X5.473Y-3.134
X5.473Y-3.234
X5.573Y-3.134
X5.573Y-3.234
X5.673Y-3.134
X5.673Y-3.234
X5.773Y-3.134
X5.773Y-3.234
X3.8825Y-3.87
X3.9825Y-3.87
X4.0825Y-3.87
X4.1825Y-3.87
X4.2825Y-3.87
X4.3825Y-3.87
X4.4825Y-3.87
X4.5825Y-3.87
X4.6825Y-3.87
X3.4702Y-1.8527
X3.4702Y-1.9527
X3.4702Y-2.0527
X3.4702Y-2.1527
X3.4702Y-2.2527
X3.4702Y-2.3527
X3.4702Y-2.4527
X3.4702Y-2.5527
X3.4702Y-2.6527
X6.473Y-1.435
X6.473Y-1.535
X4.2502Y-1.0527
X4.3502Y-1.0527
X4.4502Y-1.0527
X3.475Y-1.5475
X3.475Y-1.6475
X5.9675Y-3.87
X6.0675Y-3.87
T9
X4.825Y-3.8725
X4.925Y-3.8725
X5.025Y-3.8725
X5.125Y-3.8725
X5.225Y-3.8725
X5.325Y-3.8725
X5.425Y-3.8725
X5.525Y-3.8725
X5.625Y-3.8725
X5.725Y-3.8725
X5.825Y-3.8725
T10
X4.7752Y-1.0977
X5.074Y-1.099
T11
X5.835Y-1.2788
T12
X5.835Y-1.515
T13
X3.5783Y-3.7658
X6.3699Y-1.1647
X6.3749Y-3.7707
X3.5733Y-1.1647
T0
M30
