G04 #@! TF.GenerationSoftware,KiCad,Pcbnew,(5.1.10)-1*
G04 #@! TF.CreationDate,2021-10-20T16:57:21-04:00*
G04 #@! TF.ProjectId,Main_Board,4d61696e-5f42-46f6-9172-642e6b696361,rev?*
G04 #@! TF.SameCoordinates,Original*
G04 #@! TF.FileFunction,Copper,L1,Top*
G04 #@! TF.FilePolarity,Positive*
%FSLAX46Y46*%
G04 Gerber Fmt 4.6, Leading zero omitted, Abs format (unit mm)*
G04 Created by KiCad (PCBNEW (5.1.10)-1) date 2021-10-20 16:57:21*
%MOMM*%
%LPD*%
G01*
G04 APERTURE LIST*
G04 #@! TA.AperFunction,ComponentPad*
%ADD10O,1.700000X1.700000*%
G04 #@! TD*
G04 #@! TA.AperFunction,ComponentPad*
%ADD11R,1.700000X1.700000*%
G04 #@! TD*
G04 #@! TA.AperFunction,ComponentPad*
%ADD12C,1.650000*%
G04 #@! TD*
G04 #@! TA.AperFunction,ComponentPad*
%ADD13R,1.650000X1.650000*%
G04 #@! TD*
G04 #@! TA.AperFunction,SMDPad,CuDef*
%ADD14R,2.000000X2.000000*%
G04 #@! TD*
G04 #@! TA.AperFunction,SMDPad,CuDef*
%ADD15R,0.620000X0.600000*%
G04 #@! TD*
G04 #@! TA.AperFunction,SMDPad,CuDef*
%ADD16R,1.000000X3.800000*%
G04 #@! TD*
G04 #@! TA.AperFunction,SMDPad,CuDef*
%ADD17R,1.528000X0.650000*%
G04 #@! TD*
G04 #@! TA.AperFunction,ComponentPad*
%ADD18C,4.740000*%
G04 #@! TD*
G04 #@! TA.AperFunction,ComponentPad*
%ADD19C,5.460000*%
G04 #@! TD*
G04 #@! TA.AperFunction,SMDPad,CuDef*
%ADD20R,1.000000X1.550000*%
G04 #@! TD*
G04 #@! TA.AperFunction,SMDPad,CuDef*
%ADD21R,1.390000X0.910000*%
G04 #@! TD*
G04 #@! TA.AperFunction,SMDPad,CuDef*
%ADD22R,0.910000X1.390000*%
G04 #@! TD*
G04 #@! TA.AperFunction,ComponentPad*
%ADD23R,1.100000X1.100000*%
G04 #@! TD*
G04 #@! TA.AperFunction,ComponentPad*
%ADD24C,1.100000*%
G04 #@! TD*
G04 #@! TA.AperFunction,ComponentPad*
%ADD25C,8.600000*%
G04 #@! TD*
G04 #@! TA.AperFunction,ComponentPad*
%ADD26C,0.900000*%
G04 #@! TD*
G04 #@! TA.AperFunction,SMDPad,CuDef*
%ADD27R,0.600000X0.620000*%
G04 #@! TD*
G04 #@! TA.AperFunction,SMDPad,CuDef*
%ADD28R,0.980000X1.430000*%
G04 #@! TD*
G04 #@! TA.AperFunction,ComponentPad*
%ADD29C,5.000000*%
G04 #@! TD*
G04 #@! TA.AperFunction,SMDPad,CuDef*
%ADD30R,1.500000X2.500000*%
G04 #@! TD*
G04 #@! TA.AperFunction,SMDPad,CuDef*
%ADD31R,7.000000X7.000000*%
G04 #@! TD*
G04 #@! TA.AperFunction,SMDPad,CuDef*
%ADD32R,1.500000X0.800000*%
G04 #@! TD*
G04 #@! TA.AperFunction,SMDPad,CuDef*
%ADD33R,1.400000X1.300000*%
G04 #@! TD*
G04 #@! TA.AperFunction,SMDPad,CuDef*
%ADD34R,0.950000X1.000000*%
G04 #@! TD*
G04 #@! TA.AperFunction,SMDPad,CuDef*
%ADD35R,1.900000X1.400000*%
G04 #@! TD*
G04 #@! TA.AperFunction,SMDPad,CuDef*
%ADD36R,1.550000X0.435000*%
G04 #@! TD*
G04 #@! TA.AperFunction,SMDPad,CuDef*
%ADD37R,2.209000X3.120000*%
G04 #@! TD*
G04 #@! TA.AperFunction,SMDPad,CuDef*
%ADD38R,3.120000X2.209000*%
G04 #@! TD*
G04 #@! TA.AperFunction,SMDPad,CuDef*
%ADD39R,0.435000X1.550000*%
G04 #@! TD*
G04 #@! TA.AperFunction,SMDPad,CuDef*
%ADD40R,0.950000X1.400000*%
G04 #@! TD*
G04 #@! TA.AperFunction,SMDPad,CuDef*
%ADD41R,1.400000X0.950000*%
G04 #@! TD*
G04 #@! TA.AperFunction,SMDPad,CuDef*
%ADD42R,1.250000X2.700000*%
G04 #@! TD*
G04 #@! TA.AperFunction,SMDPad,CuDef*
%ADD43R,2.900000X1.450000*%
G04 #@! TD*
G04 #@! TA.AperFunction,SMDPad,CuDef*
%ADD44R,1.100000X2.700000*%
G04 #@! TD*
G04 #@! TA.AperFunction,SMDPad,CuDef*
%ADD45R,0.700000X1.000000*%
G04 #@! TD*
G04 #@! TA.AperFunction,SMDPad,CuDef*
%ADD46R,3.400000X1.100000*%
G04 #@! TD*
G04 #@! TA.AperFunction,SMDPad,CuDef*
%ADD47R,1.700000X1.100000*%
G04 #@! TD*
G04 #@! TA.AperFunction,ComponentPad*
%ADD48R,1.150000X1.150000*%
G04 #@! TD*
G04 #@! TA.AperFunction,ComponentPad*
%ADD49C,1.150000*%
G04 #@! TD*
G04 #@! TA.AperFunction,SMDPad,CuDef*
%ADD50R,0.700000X0.700000*%
G04 #@! TD*
G04 #@! TA.AperFunction,SMDPad,CuDef*
%ADD51R,0.360000X0.330000*%
G04 #@! TD*
G04 #@! TA.AperFunction,SMDPad,CuDef*
%ADD52R,1.015000X2.540000*%
G04 #@! TD*
G04 #@! TA.AperFunction,SMDPad,CuDef*
%ADD53R,1.100000X1.700000*%
G04 #@! TD*
G04 #@! TA.AperFunction,SMDPad,CuDef*
%ADD54R,1.200000X0.850000*%
G04 #@! TD*
G04 #@! TA.AperFunction,SMDPad,CuDef*
%ADD55R,1.100000X3.400000*%
G04 #@! TD*
G04 #@! TA.AperFunction,ViaPad*
%ADD56C,1.270000*%
G04 #@! TD*
G04 #@! TA.AperFunction,ViaPad*
%ADD57C,1.016000*%
G04 #@! TD*
G04 #@! TA.AperFunction,ViaPad*
%ADD58C,0.800000*%
G04 #@! TD*
G04 #@! TA.AperFunction,ViaPad*
%ADD59C,1.524000*%
G04 #@! TD*
G04 #@! TA.AperFunction,Conductor*
%ADD60C,0.250000*%
G04 #@! TD*
G04 #@! TA.AperFunction,Conductor*
%ADD61C,0.508000*%
G04 #@! TD*
G04 #@! TA.AperFunction,Conductor*
%ADD62C,0.381000*%
G04 #@! TD*
G04 #@! TA.AperFunction,Conductor*
%ADD63C,1.270000*%
G04 #@! TD*
G04 #@! TA.AperFunction,Conductor*
%ADD64C,0.635000*%
G04 #@! TD*
G04 #@! TA.AperFunction,Conductor*
%ADD65C,1.016000*%
G04 #@! TD*
G04 #@! TA.AperFunction,Conductor*
%ADD66C,0.254000*%
G04 #@! TD*
G04 #@! TA.AperFunction,Conductor*
%ADD67C,0.100000*%
G04 #@! TD*
G04 APERTURE END LIST*
D10*
X88265000Y-39306500D03*
D11*
X88265000Y-41846500D03*
D12*
X147955000Y-98361500D03*
X145415000Y-98361500D03*
X142875000Y-98361500D03*
X140335000Y-98361500D03*
X137795000Y-98361500D03*
X135255000Y-98361500D03*
X132715000Y-98361500D03*
X130175000Y-98361500D03*
X127635000Y-98361500D03*
X125095000Y-98361500D03*
D13*
X122555000Y-98361500D03*
D14*
X163263580Y-59885580D03*
X163263580Y-56710580D03*
D15*
X114965480Y-49367180D03*
X114965480Y-50287180D03*
G04 #@! TA.AperFunction,SMDPad,CuDef*
G36*
G01*
X129507000Y-58537000D02*
X130832000Y-58537000D01*
G75*
G02*
X130907000Y-58612000I0J-75000D01*
G01*
X130907000Y-58762000D01*
G75*
G02*
X130832000Y-58837000I-75000J0D01*
G01*
X129507000Y-58837000D01*
G75*
G02*
X129432000Y-58762000I0J75000D01*
G01*
X129432000Y-58612000D01*
G75*
G02*
X129507000Y-58537000I75000J0D01*
G01*
G37*
G04 #@! TD.AperFunction*
G04 #@! TA.AperFunction,SMDPad,CuDef*
G36*
G01*
X129507000Y-59037000D02*
X130832000Y-59037000D01*
G75*
G02*
X130907000Y-59112000I0J-75000D01*
G01*
X130907000Y-59262000D01*
G75*
G02*
X130832000Y-59337000I-75000J0D01*
G01*
X129507000Y-59337000D01*
G75*
G02*
X129432000Y-59262000I0J75000D01*
G01*
X129432000Y-59112000D01*
G75*
G02*
X129507000Y-59037000I75000J0D01*
G01*
G37*
G04 #@! TD.AperFunction*
G04 #@! TA.AperFunction,SMDPad,CuDef*
G36*
G01*
X129507000Y-59537000D02*
X130832000Y-59537000D01*
G75*
G02*
X130907000Y-59612000I0J-75000D01*
G01*
X130907000Y-59762000D01*
G75*
G02*
X130832000Y-59837000I-75000J0D01*
G01*
X129507000Y-59837000D01*
G75*
G02*
X129432000Y-59762000I0J75000D01*
G01*
X129432000Y-59612000D01*
G75*
G02*
X129507000Y-59537000I75000J0D01*
G01*
G37*
G04 #@! TD.AperFunction*
G04 #@! TA.AperFunction,SMDPad,CuDef*
G36*
G01*
X129507000Y-60037000D02*
X130832000Y-60037000D01*
G75*
G02*
X130907000Y-60112000I0J-75000D01*
G01*
X130907000Y-60262000D01*
G75*
G02*
X130832000Y-60337000I-75000J0D01*
G01*
X129507000Y-60337000D01*
G75*
G02*
X129432000Y-60262000I0J75000D01*
G01*
X129432000Y-60112000D01*
G75*
G02*
X129507000Y-60037000I75000J0D01*
G01*
G37*
G04 #@! TD.AperFunction*
G04 #@! TA.AperFunction,SMDPad,CuDef*
G36*
G01*
X129507000Y-60537000D02*
X130832000Y-60537000D01*
G75*
G02*
X130907000Y-60612000I0J-75000D01*
G01*
X130907000Y-60762000D01*
G75*
G02*
X130832000Y-60837000I-75000J0D01*
G01*
X129507000Y-60837000D01*
G75*
G02*
X129432000Y-60762000I0J75000D01*
G01*
X129432000Y-60612000D01*
G75*
G02*
X129507000Y-60537000I75000J0D01*
G01*
G37*
G04 #@! TD.AperFunction*
G04 #@! TA.AperFunction,SMDPad,CuDef*
G36*
G01*
X129507000Y-61037000D02*
X130832000Y-61037000D01*
G75*
G02*
X130907000Y-61112000I0J-75000D01*
G01*
X130907000Y-61262000D01*
G75*
G02*
X130832000Y-61337000I-75000J0D01*
G01*
X129507000Y-61337000D01*
G75*
G02*
X129432000Y-61262000I0J75000D01*
G01*
X129432000Y-61112000D01*
G75*
G02*
X129507000Y-61037000I75000J0D01*
G01*
G37*
G04 #@! TD.AperFunction*
G04 #@! TA.AperFunction,SMDPad,CuDef*
G36*
G01*
X129507000Y-61537000D02*
X130832000Y-61537000D01*
G75*
G02*
X130907000Y-61612000I0J-75000D01*
G01*
X130907000Y-61762000D01*
G75*
G02*
X130832000Y-61837000I-75000J0D01*
G01*
X129507000Y-61837000D01*
G75*
G02*
X129432000Y-61762000I0J75000D01*
G01*
X129432000Y-61612000D01*
G75*
G02*
X129507000Y-61537000I75000J0D01*
G01*
G37*
G04 #@! TD.AperFunction*
G04 #@! TA.AperFunction,SMDPad,CuDef*
G36*
G01*
X129507000Y-62037000D02*
X130832000Y-62037000D01*
G75*
G02*
X130907000Y-62112000I0J-75000D01*
G01*
X130907000Y-62262000D01*
G75*
G02*
X130832000Y-62337000I-75000J0D01*
G01*
X129507000Y-62337000D01*
G75*
G02*
X129432000Y-62262000I0J75000D01*
G01*
X129432000Y-62112000D01*
G75*
G02*
X129507000Y-62037000I75000J0D01*
G01*
G37*
G04 #@! TD.AperFunction*
G04 #@! TA.AperFunction,SMDPad,CuDef*
G36*
G01*
X129507000Y-62537000D02*
X130832000Y-62537000D01*
G75*
G02*
X130907000Y-62612000I0J-75000D01*
G01*
X130907000Y-62762000D01*
G75*
G02*
X130832000Y-62837000I-75000J0D01*
G01*
X129507000Y-62837000D01*
G75*
G02*
X129432000Y-62762000I0J75000D01*
G01*
X129432000Y-62612000D01*
G75*
G02*
X129507000Y-62537000I75000J0D01*
G01*
G37*
G04 #@! TD.AperFunction*
G04 #@! TA.AperFunction,SMDPad,CuDef*
G36*
G01*
X129507000Y-63037000D02*
X130832000Y-63037000D01*
G75*
G02*
X130907000Y-63112000I0J-75000D01*
G01*
X130907000Y-63262000D01*
G75*
G02*
X130832000Y-63337000I-75000J0D01*
G01*
X129507000Y-63337000D01*
G75*
G02*
X129432000Y-63262000I0J75000D01*
G01*
X129432000Y-63112000D01*
G75*
G02*
X129507000Y-63037000I75000J0D01*
G01*
G37*
G04 #@! TD.AperFunction*
G04 #@! TA.AperFunction,SMDPad,CuDef*
G36*
G01*
X129507000Y-63537000D02*
X130832000Y-63537000D01*
G75*
G02*
X130907000Y-63612000I0J-75000D01*
G01*
X130907000Y-63762000D01*
G75*
G02*
X130832000Y-63837000I-75000J0D01*
G01*
X129507000Y-63837000D01*
G75*
G02*
X129432000Y-63762000I0J75000D01*
G01*
X129432000Y-63612000D01*
G75*
G02*
X129507000Y-63537000I75000J0D01*
G01*
G37*
G04 #@! TD.AperFunction*
G04 #@! TA.AperFunction,SMDPad,CuDef*
G36*
G01*
X129507000Y-64037000D02*
X130832000Y-64037000D01*
G75*
G02*
X130907000Y-64112000I0J-75000D01*
G01*
X130907000Y-64262000D01*
G75*
G02*
X130832000Y-64337000I-75000J0D01*
G01*
X129507000Y-64337000D01*
G75*
G02*
X129432000Y-64262000I0J75000D01*
G01*
X129432000Y-64112000D01*
G75*
G02*
X129507000Y-64037000I75000J0D01*
G01*
G37*
G04 #@! TD.AperFunction*
G04 #@! TA.AperFunction,SMDPad,CuDef*
G36*
G01*
X129507000Y-64537000D02*
X130832000Y-64537000D01*
G75*
G02*
X130907000Y-64612000I0J-75000D01*
G01*
X130907000Y-64762000D01*
G75*
G02*
X130832000Y-64837000I-75000J0D01*
G01*
X129507000Y-64837000D01*
G75*
G02*
X129432000Y-64762000I0J75000D01*
G01*
X129432000Y-64612000D01*
G75*
G02*
X129507000Y-64537000I75000J0D01*
G01*
G37*
G04 #@! TD.AperFunction*
G04 #@! TA.AperFunction,SMDPad,CuDef*
G36*
G01*
X129507000Y-65037000D02*
X130832000Y-65037000D01*
G75*
G02*
X130907000Y-65112000I0J-75000D01*
G01*
X130907000Y-65262000D01*
G75*
G02*
X130832000Y-65337000I-75000J0D01*
G01*
X129507000Y-65337000D01*
G75*
G02*
X129432000Y-65262000I0J75000D01*
G01*
X129432000Y-65112000D01*
G75*
G02*
X129507000Y-65037000I75000J0D01*
G01*
G37*
G04 #@! TD.AperFunction*
G04 #@! TA.AperFunction,SMDPad,CuDef*
G36*
G01*
X129507000Y-65537000D02*
X130832000Y-65537000D01*
G75*
G02*
X130907000Y-65612000I0J-75000D01*
G01*
X130907000Y-65762000D01*
G75*
G02*
X130832000Y-65837000I-75000J0D01*
G01*
X129507000Y-65837000D01*
G75*
G02*
X129432000Y-65762000I0J75000D01*
G01*
X129432000Y-65612000D01*
G75*
G02*
X129507000Y-65537000I75000J0D01*
G01*
G37*
G04 #@! TD.AperFunction*
G04 #@! TA.AperFunction,SMDPad,CuDef*
G36*
G01*
X129507000Y-66037000D02*
X130832000Y-66037000D01*
G75*
G02*
X130907000Y-66112000I0J-75000D01*
G01*
X130907000Y-66262000D01*
G75*
G02*
X130832000Y-66337000I-75000J0D01*
G01*
X129507000Y-66337000D01*
G75*
G02*
X129432000Y-66262000I0J75000D01*
G01*
X129432000Y-66112000D01*
G75*
G02*
X129507000Y-66037000I75000J0D01*
G01*
G37*
G04 #@! TD.AperFunction*
G04 #@! TA.AperFunction,SMDPad,CuDef*
G36*
G01*
X129507000Y-66537000D02*
X130832000Y-66537000D01*
G75*
G02*
X130907000Y-66612000I0J-75000D01*
G01*
X130907000Y-66762000D01*
G75*
G02*
X130832000Y-66837000I-75000J0D01*
G01*
X129507000Y-66837000D01*
G75*
G02*
X129432000Y-66762000I0J75000D01*
G01*
X129432000Y-66612000D01*
G75*
G02*
X129507000Y-66537000I75000J0D01*
G01*
G37*
G04 #@! TD.AperFunction*
G04 #@! TA.AperFunction,SMDPad,CuDef*
G36*
G01*
X129507000Y-67037000D02*
X130832000Y-67037000D01*
G75*
G02*
X130907000Y-67112000I0J-75000D01*
G01*
X130907000Y-67262000D01*
G75*
G02*
X130832000Y-67337000I-75000J0D01*
G01*
X129507000Y-67337000D01*
G75*
G02*
X129432000Y-67262000I0J75000D01*
G01*
X129432000Y-67112000D01*
G75*
G02*
X129507000Y-67037000I75000J0D01*
G01*
G37*
G04 #@! TD.AperFunction*
G04 #@! TA.AperFunction,SMDPad,CuDef*
G36*
G01*
X129507000Y-67537000D02*
X130832000Y-67537000D01*
G75*
G02*
X130907000Y-67612000I0J-75000D01*
G01*
X130907000Y-67762000D01*
G75*
G02*
X130832000Y-67837000I-75000J0D01*
G01*
X129507000Y-67837000D01*
G75*
G02*
X129432000Y-67762000I0J75000D01*
G01*
X129432000Y-67612000D01*
G75*
G02*
X129507000Y-67537000I75000J0D01*
G01*
G37*
G04 #@! TD.AperFunction*
G04 #@! TA.AperFunction,SMDPad,CuDef*
G36*
G01*
X129507000Y-68037000D02*
X130832000Y-68037000D01*
G75*
G02*
X130907000Y-68112000I0J-75000D01*
G01*
X130907000Y-68262000D01*
G75*
G02*
X130832000Y-68337000I-75000J0D01*
G01*
X129507000Y-68337000D01*
G75*
G02*
X129432000Y-68262000I0J75000D01*
G01*
X129432000Y-68112000D01*
G75*
G02*
X129507000Y-68037000I75000J0D01*
G01*
G37*
G04 #@! TD.AperFunction*
G04 #@! TA.AperFunction,SMDPad,CuDef*
G36*
G01*
X129507000Y-68537000D02*
X130832000Y-68537000D01*
G75*
G02*
X130907000Y-68612000I0J-75000D01*
G01*
X130907000Y-68762000D01*
G75*
G02*
X130832000Y-68837000I-75000J0D01*
G01*
X129507000Y-68837000D01*
G75*
G02*
X129432000Y-68762000I0J75000D01*
G01*
X129432000Y-68612000D01*
G75*
G02*
X129507000Y-68537000I75000J0D01*
G01*
G37*
G04 #@! TD.AperFunction*
G04 #@! TA.AperFunction,SMDPad,CuDef*
G36*
G01*
X129507000Y-69037000D02*
X130832000Y-69037000D01*
G75*
G02*
X130907000Y-69112000I0J-75000D01*
G01*
X130907000Y-69262000D01*
G75*
G02*
X130832000Y-69337000I-75000J0D01*
G01*
X129507000Y-69337000D01*
G75*
G02*
X129432000Y-69262000I0J75000D01*
G01*
X129432000Y-69112000D01*
G75*
G02*
X129507000Y-69037000I75000J0D01*
G01*
G37*
G04 #@! TD.AperFunction*
G04 #@! TA.AperFunction,SMDPad,CuDef*
G36*
G01*
X129507000Y-69537000D02*
X130832000Y-69537000D01*
G75*
G02*
X130907000Y-69612000I0J-75000D01*
G01*
X130907000Y-69762000D01*
G75*
G02*
X130832000Y-69837000I-75000J0D01*
G01*
X129507000Y-69837000D01*
G75*
G02*
X129432000Y-69762000I0J75000D01*
G01*
X129432000Y-69612000D01*
G75*
G02*
X129507000Y-69537000I75000J0D01*
G01*
G37*
G04 #@! TD.AperFunction*
G04 #@! TA.AperFunction,SMDPad,CuDef*
G36*
G01*
X129507000Y-70037000D02*
X130832000Y-70037000D01*
G75*
G02*
X130907000Y-70112000I0J-75000D01*
G01*
X130907000Y-70262000D01*
G75*
G02*
X130832000Y-70337000I-75000J0D01*
G01*
X129507000Y-70337000D01*
G75*
G02*
X129432000Y-70262000I0J75000D01*
G01*
X129432000Y-70112000D01*
G75*
G02*
X129507000Y-70037000I75000J0D01*
G01*
G37*
G04 #@! TD.AperFunction*
G04 #@! TA.AperFunction,SMDPad,CuDef*
G36*
G01*
X129507000Y-70537000D02*
X130832000Y-70537000D01*
G75*
G02*
X130907000Y-70612000I0J-75000D01*
G01*
X130907000Y-70762000D01*
G75*
G02*
X130832000Y-70837000I-75000J0D01*
G01*
X129507000Y-70837000D01*
G75*
G02*
X129432000Y-70762000I0J75000D01*
G01*
X129432000Y-70612000D01*
G75*
G02*
X129507000Y-70537000I75000J0D01*
G01*
G37*
G04 #@! TD.AperFunction*
G04 #@! TA.AperFunction,SMDPad,CuDef*
G36*
G01*
X129507000Y-71037000D02*
X130832000Y-71037000D01*
G75*
G02*
X130907000Y-71112000I0J-75000D01*
G01*
X130907000Y-71262000D01*
G75*
G02*
X130832000Y-71337000I-75000J0D01*
G01*
X129507000Y-71337000D01*
G75*
G02*
X129432000Y-71262000I0J75000D01*
G01*
X129432000Y-71112000D01*
G75*
G02*
X129507000Y-71037000I75000J0D01*
G01*
G37*
G04 #@! TD.AperFunction*
G04 #@! TA.AperFunction,SMDPad,CuDef*
G36*
G01*
X129507000Y-71537000D02*
X130832000Y-71537000D01*
G75*
G02*
X130907000Y-71612000I0J-75000D01*
G01*
X130907000Y-71762000D01*
G75*
G02*
X130832000Y-71837000I-75000J0D01*
G01*
X129507000Y-71837000D01*
G75*
G02*
X129432000Y-71762000I0J75000D01*
G01*
X129432000Y-71612000D01*
G75*
G02*
X129507000Y-71537000I75000J0D01*
G01*
G37*
G04 #@! TD.AperFunction*
G04 #@! TA.AperFunction,SMDPad,CuDef*
G36*
G01*
X129507000Y-72037000D02*
X130832000Y-72037000D01*
G75*
G02*
X130907000Y-72112000I0J-75000D01*
G01*
X130907000Y-72262000D01*
G75*
G02*
X130832000Y-72337000I-75000J0D01*
G01*
X129507000Y-72337000D01*
G75*
G02*
X129432000Y-72262000I0J75000D01*
G01*
X129432000Y-72112000D01*
G75*
G02*
X129507000Y-72037000I75000J0D01*
G01*
G37*
G04 #@! TD.AperFunction*
G04 #@! TA.AperFunction,SMDPad,CuDef*
G36*
G01*
X129507000Y-72537000D02*
X130832000Y-72537000D01*
G75*
G02*
X130907000Y-72612000I0J-75000D01*
G01*
X130907000Y-72762000D01*
G75*
G02*
X130832000Y-72837000I-75000J0D01*
G01*
X129507000Y-72837000D01*
G75*
G02*
X129432000Y-72762000I0J75000D01*
G01*
X129432000Y-72612000D01*
G75*
G02*
X129507000Y-72537000I75000J0D01*
G01*
G37*
G04 #@! TD.AperFunction*
G04 #@! TA.AperFunction,SMDPad,CuDef*
G36*
G01*
X129507000Y-73037000D02*
X130832000Y-73037000D01*
G75*
G02*
X130907000Y-73112000I0J-75000D01*
G01*
X130907000Y-73262000D01*
G75*
G02*
X130832000Y-73337000I-75000J0D01*
G01*
X129507000Y-73337000D01*
G75*
G02*
X129432000Y-73262000I0J75000D01*
G01*
X129432000Y-73112000D01*
G75*
G02*
X129507000Y-73037000I75000J0D01*
G01*
G37*
G04 #@! TD.AperFunction*
G04 #@! TA.AperFunction,SMDPad,CuDef*
G36*
G01*
X129507000Y-73537000D02*
X130832000Y-73537000D01*
G75*
G02*
X130907000Y-73612000I0J-75000D01*
G01*
X130907000Y-73762000D01*
G75*
G02*
X130832000Y-73837000I-75000J0D01*
G01*
X129507000Y-73837000D01*
G75*
G02*
X129432000Y-73762000I0J75000D01*
G01*
X129432000Y-73612000D01*
G75*
G02*
X129507000Y-73537000I75000J0D01*
G01*
G37*
G04 #@! TD.AperFunction*
G04 #@! TA.AperFunction,SMDPad,CuDef*
G36*
G01*
X129507000Y-74037000D02*
X130832000Y-74037000D01*
G75*
G02*
X130907000Y-74112000I0J-75000D01*
G01*
X130907000Y-74262000D01*
G75*
G02*
X130832000Y-74337000I-75000J0D01*
G01*
X129507000Y-74337000D01*
G75*
G02*
X129432000Y-74262000I0J75000D01*
G01*
X129432000Y-74112000D01*
G75*
G02*
X129507000Y-74037000I75000J0D01*
G01*
G37*
G04 #@! TD.AperFunction*
G04 #@! TA.AperFunction,SMDPad,CuDef*
G36*
G01*
X129507000Y-74537000D02*
X130832000Y-74537000D01*
G75*
G02*
X130907000Y-74612000I0J-75000D01*
G01*
X130907000Y-74762000D01*
G75*
G02*
X130832000Y-74837000I-75000J0D01*
G01*
X129507000Y-74837000D01*
G75*
G02*
X129432000Y-74762000I0J75000D01*
G01*
X129432000Y-74612000D01*
G75*
G02*
X129507000Y-74537000I75000J0D01*
G01*
G37*
G04 #@! TD.AperFunction*
G04 #@! TA.AperFunction,SMDPad,CuDef*
G36*
G01*
X129507000Y-75037000D02*
X130832000Y-75037000D01*
G75*
G02*
X130907000Y-75112000I0J-75000D01*
G01*
X130907000Y-75262000D01*
G75*
G02*
X130832000Y-75337000I-75000J0D01*
G01*
X129507000Y-75337000D01*
G75*
G02*
X129432000Y-75262000I0J75000D01*
G01*
X129432000Y-75112000D01*
G75*
G02*
X129507000Y-75037000I75000J0D01*
G01*
G37*
G04 #@! TD.AperFunction*
G04 #@! TA.AperFunction,SMDPad,CuDef*
G36*
G01*
X129507000Y-75537000D02*
X130832000Y-75537000D01*
G75*
G02*
X130907000Y-75612000I0J-75000D01*
G01*
X130907000Y-75762000D01*
G75*
G02*
X130832000Y-75837000I-75000J0D01*
G01*
X129507000Y-75837000D01*
G75*
G02*
X129432000Y-75762000I0J75000D01*
G01*
X129432000Y-75612000D01*
G75*
G02*
X129507000Y-75537000I75000J0D01*
G01*
G37*
G04 #@! TD.AperFunction*
G04 #@! TA.AperFunction,SMDPad,CuDef*
G36*
G01*
X129507000Y-76037000D02*
X130832000Y-76037000D01*
G75*
G02*
X130907000Y-76112000I0J-75000D01*
G01*
X130907000Y-76262000D01*
G75*
G02*
X130832000Y-76337000I-75000J0D01*
G01*
X129507000Y-76337000D01*
G75*
G02*
X129432000Y-76262000I0J75000D01*
G01*
X129432000Y-76112000D01*
G75*
G02*
X129507000Y-76037000I75000J0D01*
G01*
G37*
G04 #@! TD.AperFunction*
G04 #@! TA.AperFunction,SMDPad,CuDef*
G36*
G01*
X128182000Y-77362000D02*
X128332000Y-77362000D01*
G75*
G02*
X128407000Y-77437000I0J-75000D01*
G01*
X128407000Y-78762000D01*
G75*
G02*
X128332000Y-78837000I-75000J0D01*
G01*
X128182000Y-78837000D01*
G75*
G02*
X128107000Y-78762000I0J75000D01*
G01*
X128107000Y-77437000D01*
G75*
G02*
X128182000Y-77362000I75000J0D01*
G01*
G37*
G04 #@! TD.AperFunction*
G04 #@! TA.AperFunction,SMDPad,CuDef*
G36*
G01*
X127682000Y-77362000D02*
X127832000Y-77362000D01*
G75*
G02*
X127907000Y-77437000I0J-75000D01*
G01*
X127907000Y-78762000D01*
G75*
G02*
X127832000Y-78837000I-75000J0D01*
G01*
X127682000Y-78837000D01*
G75*
G02*
X127607000Y-78762000I0J75000D01*
G01*
X127607000Y-77437000D01*
G75*
G02*
X127682000Y-77362000I75000J0D01*
G01*
G37*
G04 #@! TD.AperFunction*
G04 #@! TA.AperFunction,SMDPad,CuDef*
G36*
G01*
X127182000Y-77362000D02*
X127332000Y-77362000D01*
G75*
G02*
X127407000Y-77437000I0J-75000D01*
G01*
X127407000Y-78762000D01*
G75*
G02*
X127332000Y-78837000I-75000J0D01*
G01*
X127182000Y-78837000D01*
G75*
G02*
X127107000Y-78762000I0J75000D01*
G01*
X127107000Y-77437000D01*
G75*
G02*
X127182000Y-77362000I75000J0D01*
G01*
G37*
G04 #@! TD.AperFunction*
G04 #@! TA.AperFunction,SMDPad,CuDef*
G36*
G01*
X126682000Y-77362000D02*
X126832000Y-77362000D01*
G75*
G02*
X126907000Y-77437000I0J-75000D01*
G01*
X126907000Y-78762000D01*
G75*
G02*
X126832000Y-78837000I-75000J0D01*
G01*
X126682000Y-78837000D01*
G75*
G02*
X126607000Y-78762000I0J75000D01*
G01*
X126607000Y-77437000D01*
G75*
G02*
X126682000Y-77362000I75000J0D01*
G01*
G37*
G04 #@! TD.AperFunction*
G04 #@! TA.AperFunction,SMDPad,CuDef*
G36*
G01*
X126182000Y-77362000D02*
X126332000Y-77362000D01*
G75*
G02*
X126407000Y-77437000I0J-75000D01*
G01*
X126407000Y-78762000D01*
G75*
G02*
X126332000Y-78837000I-75000J0D01*
G01*
X126182000Y-78837000D01*
G75*
G02*
X126107000Y-78762000I0J75000D01*
G01*
X126107000Y-77437000D01*
G75*
G02*
X126182000Y-77362000I75000J0D01*
G01*
G37*
G04 #@! TD.AperFunction*
G04 #@! TA.AperFunction,SMDPad,CuDef*
G36*
G01*
X125682000Y-77362000D02*
X125832000Y-77362000D01*
G75*
G02*
X125907000Y-77437000I0J-75000D01*
G01*
X125907000Y-78762000D01*
G75*
G02*
X125832000Y-78837000I-75000J0D01*
G01*
X125682000Y-78837000D01*
G75*
G02*
X125607000Y-78762000I0J75000D01*
G01*
X125607000Y-77437000D01*
G75*
G02*
X125682000Y-77362000I75000J0D01*
G01*
G37*
G04 #@! TD.AperFunction*
G04 #@! TA.AperFunction,SMDPad,CuDef*
G36*
G01*
X125182000Y-77362000D02*
X125332000Y-77362000D01*
G75*
G02*
X125407000Y-77437000I0J-75000D01*
G01*
X125407000Y-78762000D01*
G75*
G02*
X125332000Y-78837000I-75000J0D01*
G01*
X125182000Y-78837000D01*
G75*
G02*
X125107000Y-78762000I0J75000D01*
G01*
X125107000Y-77437000D01*
G75*
G02*
X125182000Y-77362000I75000J0D01*
G01*
G37*
G04 #@! TD.AperFunction*
G04 #@! TA.AperFunction,SMDPad,CuDef*
G36*
G01*
X124682000Y-77362000D02*
X124832000Y-77362000D01*
G75*
G02*
X124907000Y-77437000I0J-75000D01*
G01*
X124907000Y-78762000D01*
G75*
G02*
X124832000Y-78837000I-75000J0D01*
G01*
X124682000Y-78837000D01*
G75*
G02*
X124607000Y-78762000I0J75000D01*
G01*
X124607000Y-77437000D01*
G75*
G02*
X124682000Y-77362000I75000J0D01*
G01*
G37*
G04 #@! TD.AperFunction*
G04 #@! TA.AperFunction,SMDPad,CuDef*
G36*
G01*
X124182000Y-77362000D02*
X124332000Y-77362000D01*
G75*
G02*
X124407000Y-77437000I0J-75000D01*
G01*
X124407000Y-78762000D01*
G75*
G02*
X124332000Y-78837000I-75000J0D01*
G01*
X124182000Y-78837000D01*
G75*
G02*
X124107000Y-78762000I0J75000D01*
G01*
X124107000Y-77437000D01*
G75*
G02*
X124182000Y-77362000I75000J0D01*
G01*
G37*
G04 #@! TD.AperFunction*
G04 #@! TA.AperFunction,SMDPad,CuDef*
G36*
G01*
X123682000Y-77362000D02*
X123832000Y-77362000D01*
G75*
G02*
X123907000Y-77437000I0J-75000D01*
G01*
X123907000Y-78762000D01*
G75*
G02*
X123832000Y-78837000I-75000J0D01*
G01*
X123682000Y-78837000D01*
G75*
G02*
X123607000Y-78762000I0J75000D01*
G01*
X123607000Y-77437000D01*
G75*
G02*
X123682000Y-77362000I75000J0D01*
G01*
G37*
G04 #@! TD.AperFunction*
G04 #@! TA.AperFunction,SMDPad,CuDef*
G36*
G01*
X123182000Y-77362000D02*
X123332000Y-77362000D01*
G75*
G02*
X123407000Y-77437000I0J-75000D01*
G01*
X123407000Y-78762000D01*
G75*
G02*
X123332000Y-78837000I-75000J0D01*
G01*
X123182000Y-78837000D01*
G75*
G02*
X123107000Y-78762000I0J75000D01*
G01*
X123107000Y-77437000D01*
G75*
G02*
X123182000Y-77362000I75000J0D01*
G01*
G37*
G04 #@! TD.AperFunction*
G04 #@! TA.AperFunction,SMDPad,CuDef*
G36*
G01*
X122682000Y-77362000D02*
X122832000Y-77362000D01*
G75*
G02*
X122907000Y-77437000I0J-75000D01*
G01*
X122907000Y-78762000D01*
G75*
G02*
X122832000Y-78837000I-75000J0D01*
G01*
X122682000Y-78837000D01*
G75*
G02*
X122607000Y-78762000I0J75000D01*
G01*
X122607000Y-77437000D01*
G75*
G02*
X122682000Y-77362000I75000J0D01*
G01*
G37*
G04 #@! TD.AperFunction*
G04 #@! TA.AperFunction,SMDPad,CuDef*
G36*
G01*
X122182000Y-77362000D02*
X122332000Y-77362000D01*
G75*
G02*
X122407000Y-77437000I0J-75000D01*
G01*
X122407000Y-78762000D01*
G75*
G02*
X122332000Y-78837000I-75000J0D01*
G01*
X122182000Y-78837000D01*
G75*
G02*
X122107000Y-78762000I0J75000D01*
G01*
X122107000Y-77437000D01*
G75*
G02*
X122182000Y-77362000I75000J0D01*
G01*
G37*
G04 #@! TD.AperFunction*
G04 #@! TA.AperFunction,SMDPad,CuDef*
G36*
G01*
X121682000Y-77362000D02*
X121832000Y-77362000D01*
G75*
G02*
X121907000Y-77437000I0J-75000D01*
G01*
X121907000Y-78762000D01*
G75*
G02*
X121832000Y-78837000I-75000J0D01*
G01*
X121682000Y-78837000D01*
G75*
G02*
X121607000Y-78762000I0J75000D01*
G01*
X121607000Y-77437000D01*
G75*
G02*
X121682000Y-77362000I75000J0D01*
G01*
G37*
G04 #@! TD.AperFunction*
G04 #@! TA.AperFunction,SMDPad,CuDef*
G36*
G01*
X121182000Y-77362000D02*
X121332000Y-77362000D01*
G75*
G02*
X121407000Y-77437000I0J-75000D01*
G01*
X121407000Y-78762000D01*
G75*
G02*
X121332000Y-78837000I-75000J0D01*
G01*
X121182000Y-78837000D01*
G75*
G02*
X121107000Y-78762000I0J75000D01*
G01*
X121107000Y-77437000D01*
G75*
G02*
X121182000Y-77362000I75000J0D01*
G01*
G37*
G04 #@! TD.AperFunction*
G04 #@! TA.AperFunction,SMDPad,CuDef*
G36*
G01*
X120682000Y-77362000D02*
X120832000Y-77362000D01*
G75*
G02*
X120907000Y-77437000I0J-75000D01*
G01*
X120907000Y-78762000D01*
G75*
G02*
X120832000Y-78837000I-75000J0D01*
G01*
X120682000Y-78837000D01*
G75*
G02*
X120607000Y-78762000I0J75000D01*
G01*
X120607000Y-77437000D01*
G75*
G02*
X120682000Y-77362000I75000J0D01*
G01*
G37*
G04 #@! TD.AperFunction*
G04 #@! TA.AperFunction,SMDPad,CuDef*
G36*
G01*
X120182000Y-77362000D02*
X120332000Y-77362000D01*
G75*
G02*
X120407000Y-77437000I0J-75000D01*
G01*
X120407000Y-78762000D01*
G75*
G02*
X120332000Y-78837000I-75000J0D01*
G01*
X120182000Y-78837000D01*
G75*
G02*
X120107000Y-78762000I0J75000D01*
G01*
X120107000Y-77437000D01*
G75*
G02*
X120182000Y-77362000I75000J0D01*
G01*
G37*
G04 #@! TD.AperFunction*
G04 #@! TA.AperFunction,SMDPad,CuDef*
G36*
G01*
X119682000Y-77362000D02*
X119832000Y-77362000D01*
G75*
G02*
X119907000Y-77437000I0J-75000D01*
G01*
X119907000Y-78762000D01*
G75*
G02*
X119832000Y-78837000I-75000J0D01*
G01*
X119682000Y-78837000D01*
G75*
G02*
X119607000Y-78762000I0J75000D01*
G01*
X119607000Y-77437000D01*
G75*
G02*
X119682000Y-77362000I75000J0D01*
G01*
G37*
G04 #@! TD.AperFunction*
G04 #@! TA.AperFunction,SMDPad,CuDef*
G36*
G01*
X119182000Y-77362000D02*
X119332000Y-77362000D01*
G75*
G02*
X119407000Y-77437000I0J-75000D01*
G01*
X119407000Y-78762000D01*
G75*
G02*
X119332000Y-78837000I-75000J0D01*
G01*
X119182000Y-78837000D01*
G75*
G02*
X119107000Y-78762000I0J75000D01*
G01*
X119107000Y-77437000D01*
G75*
G02*
X119182000Y-77362000I75000J0D01*
G01*
G37*
G04 #@! TD.AperFunction*
G04 #@! TA.AperFunction,SMDPad,CuDef*
G36*
G01*
X118682000Y-77362000D02*
X118832000Y-77362000D01*
G75*
G02*
X118907000Y-77437000I0J-75000D01*
G01*
X118907000Y-78762000D01*
G75*
G02*
X118832000Y-78837000I-75000J0D01*
G01*
X118682000Y-78837000D01*
G75*
G02*
X118607000Y-78762000I0J75000D01*
G01*
X118607000Y-77437000D01*
G75*
G02*
X118682000Y-77362000I75000J0D01*
G01*
G37*
G04 #@! TD.AperFunction*
G04 #@! TA.AperFunction,SMDPad,CuDef*
G36*
G01*
X118182000Y-77362000D02*
X118332000Y-77362000D01*
G75*
G02*
X118407000Y-77437000I0J-75000D01*
G01*
X118407000Y-78762000D01*
G75*
G02*
X118332000Y-78837000I-75000J0D01*
G01*
X118182000Y-78837000D01*
G75*
G02*
X118107000Y-78762000I0J75000D01*
G01*
X118107000Y-77437000D01*
G75*
G02*
X118182000Y-77362000I75000J0D01*
G01*
G37*
G04 #@! TD.AperFunction*
G04 #@! TA.AperFunction,SMDPad,CuDef*
G36*
G01*
X117682000Y-77362000D02*
X117832000Y-77362000D01*
G75*
G02*
X117907000Y-77437000I0J-75000D01*
G01*
X117907000Y-78762000D01*
G75*
G02*
X117832000Y-78837000I-75000J0D01*
G01*
X117682000Y-78837000D01*
G75*
G02*
X117607000Y-78762000I0J75000D01*
G01*
X117607000Y-77437000D01*
G75*
G02*
X117682000Y-77362000I75000J0D01*
G01*
G37*
G04 #@! TD.AperFunction*
G04 #@! TA.AperFunction,SMDPad,CuDef*
G36*
G01*
X117182000Y-77362000D02*
X117332000Y-77362000D01*
G75*
G02*
X117407000Y-77437000I0J-75000D01*
G01*
X117407000Y-78762000D01*
G75*
G02*
X117332000Y-78837000I-75000J0D01*
G01*
X117182000Y-78837000D01*
G75*
G02*
X117107000Y-78762000I0J75000D01*
G01*
X117107000Y-77437000D01*
G75*
G02*
X117182000Y-77362000I75000J0D01*
G01*
G37*
G04 #@! TD.AperFunction*
G04 #@! TA.AperFunction,SMDPad,CuDef*
G36*
G01*
X116682000Y-77362000D02*
X116832000Y-77362000D01*
G75*
G02*
X116907000Y-77437000I0J-75000D01*
G01*
X116907000Y-78762000D01*
G75*
G02*
X116832000Y-78837000I-75000J0D01*
G01*
X116682000Y-78837000D01*
G75*
G02*
X116607000Y-78762000I0J75000D01*
G01*
X116607000Y-77437000D01*
G75*
G02*
X116682000Y-77362000I75000J0D01*
G01*
G37*
G04 #@! TD.AperFunction*
G04 #@! TA.AperFunction,SMDPad,CuDef*
G36*
G01*
X116182000Y-77362000D02*
X116332000Y-77362000D01*
G75*
G02*
X116407000Y-77437000I0J-75000D01*
G01*
X116407000Y-78762000D01*
G75*
G02*
X116332000Y-78837000I-75000J0D01*
G01*
X116182000Y-78837000D01*
G75*
G02*
X116107000Y-78762000I0J75000D01*
G01*
X116107000Y-77437000D01*
G75*
G02*
X116182000Y-77362000I75000J0D01*
G01*
G37*
G04 #@! TD.AperFunction*
G04 #@! TA.AperFunction,SMDPad,CuDef*
G36*
G01*
X115682000Y-77362000D02*
X115832000Y-77362000D01*
G75*
G02*
X115907000Y-77437000I0J-75000D01*
G01*
X115907000Y-78762000D01*
G75*
G02*
X115832000Y-78837000I-75000J0D01*
G01*
X115682000Y-78837000D01*
G75*
G02*
X115607000Y-78762000I0J75000D01*
G01*
X115607000Y-77437000D01*
G75*
G02*
X115682000Y-77362000I75000J0D01*
G01*
G37*
G04 #@! TD.AperFunction*
G04 #@! TA.AperFunction,SMDPad,CuDef*
G36*
G01*
X115182000Y-77362000D02*
X115332000Y-77362000D01*
G75*
G02*
X115407000Y-77437000I0J-75000D01*
G01*
X115407000Y-78762000D01*
G75*
G02*
X115332000Y-78837000I-75000J0D01*
G01*
X115182000Y-78837000D01*
G75*
G02*
X115107000Y-78762000I0J75000D01*
G01*
X115107000Y-77437000D01*
G75*
G02*
X115182000Y-77362000I75000J0D01*
G01*
G37*
G04 #@! TD.AperFunction*
G04 #@! TA.AperFunction,SMDPad,CuDef*
G36*
G01*
X114682000Y-77362000D02*
X114832000Y-77362000D01*
G75*
G02*
X114907000Y-77437000I0J-75000D01*
G01*
X114907000Y-78762000D01*
G75*
G02*
X114832000Y-78837000I-75000J0D01*
G01*
X114682000Y-78837000D01*
G75*
G02*
X114607000Y-78762000I0J75000D01*
G01*
X114607000Y-77437000D01*
G75*
G02*
X114682000Y-77362000I75000J0D01*
G01*
G37*
G04 #@! TD.AperFunction*
G04 #@! TA.AperFunction,SMDPad,CuDef*
G36*
G01*
X114182000Y-77362000D02*
X114332000Y-77362000D01*
G75*
G02*
X114407000Y-77437000I0J-75000D01*
G01*
X114407000Y-78762000D01*
G75*
G02*
X114332000Y-78837000I-75000J0D01*
G01*
X114182000Y-78837000D01*
G75*
G02*
X114107000Y-78762000I0J75000D01*
G01*
X114107000Y-77437000D01*
G75*
G02*
X114182000Y-77362000I75000J0D01*
G01*
G37*
G04 #@! TD.AperFunction*
G04 #@! TA.AperFunction,SMDPad,CuDef*
G36*
G01*
X113682000Y-77362000D02*
X113832000Y-77362000D01*
G75*
G02*
X113907000Y-77437000I0J-75000D01*
G01*
X113907000Y-78762000D01*
G75*
G02*
X113832000Y-78837000I-75000J0D01*
G01*
X113682000Y-78837000D01*
G75*
G02*
X113607000Y-78762000I0J75000D01*
G01*
X113607000Y-77437000D01*
G75*
G02*
X113682000Y-77362000I75000J0D01*
G01*
G37*
G04 #@! TD.AperFunction*
G04 #@! TA.AperFunction,SMDPad,CuDef*
G36*
G01*
X113182000Y-77362000D02*
X113332000Y-77362000D01*
G75*
G02*
X113407000Y-77437000I0J-75000D01*
G01*
X113407000Y-78762000D01*
G75*
G02*
X113332000Y-78837000I-75000J0D01*
G01*
X113182000Y-78837000D01*
G75*
G02*
X113107000Y-78762000I0J75000D01*
G01*
X113107000Y-77437000D01*
G75*
G02*
X113182000Y-77362000I75000J0D01*
G01*
G37*
G04 #@! TD.AperFunction*
G04 #@! TA.AperFunction,SMDPad,CuDef*
G36*
G01*
X112682000Y-77362000D02*
X112832000Y-77362000D01*
G75*
G02*
X112907000Y-77437000I0J-75000D01*
G01*
X112907000Y-78762000D01*
G75*
G02*
X112832000Y-78837000I-75000J0D01*
G01*
X112682000Y-78837000D01*
G75*
G02*
X112607000Y-78762000I0J75000D01*
G01*
X112607000Y-77437000D01*
G75*
G02*
X112682000Y-77362000I75000J0D01*
G01*
G37*
G04 #@! TD.AperFunction*
G04 #@! TA.AperFunction,SMDPad,CuDef*
G36*
G01*
X112182000Y-77362000D02*
X112332000Y-77362000D01*
G75*
G02*
X112407000Y-77437000I0J-75000D01*
G01*
X112407000Y-78762000D01*
G75*
G02*
X112332000Y-78837000I-75000J0D01*
G01*
X112182000Y-78837000D01*
G75*
G02*
X112107000Y-78762000I0J75000D01*
G01*
X112107000Y-77437000D01*
G75*
G02*
X112182000Y-77362000I75000J0D01*
G01*
G37*
G04 #@! TD.AperFunction*
G04 #@! TA.AperFunction,SMDPad,CuDef*
G36*
G01*
X111682000Y-77362000D02*
X111832000Y-77362000D01*
G75*
G02*
X111907000Y-77437000I0J-75000D01*
G01*
X111907000Y-78762000D01*
G75*
G02*
X111832000Y-78837000I-75000J0D01*
G01*
X111682000Y-78837000D01*
G75*
G02*
X111607000Y-78762000I0J75000D01*
G01*
X111607000Y-77437000D01*
G75*
G02*
X111682000Y-77362000I75000J0D01*
G01*
G37*
G04 #@! TD.AperFunction*
G04 #@! TA.AperFunction,SMDPad,CuDef*
G36*
G01*
X111182000Y-77362000D02*
X111332000Y-77362000D01*
G75*
G02*
X111407000Y-77437000I0J-75000D01*
G01*
X111407000Y-78762000D01*
G75*
G02*
X111332000Y-78837000I-75000J0D01*
G01*
X111182000Y-78837000D01*
G75*
G02*
X111107000Y-78762000I0J75000D01*
G01*
X111107000Y-77437000D01*
G75*
G02*
X111182000Y-77362000I75000J0D01*
G01*
G37*
G04 #@! TD.AperFunction*
G04 #@! TA.AperFunction,SMDPad,CuDef*
G36*
G01*
X110682000Y-77362000D02*
X110832000Y-77362000D01*
G75*
G02*
X110907000Y-77437000I0J-75000D01*
G01*
X110907000Y-78762000D01*
G75*
G02*
X110832000Y-78837000I-75000J0D01*
G01*
X110682000Y-78837000D01*
G75*
G02*
X110607000Y-78762000I0J75000D01*
G01*
X110607000Y-77437000D01*
G75*
G02*
X110682000Y-77362000I75000J0D01*
G01*
G37*
G04 #@! TD.AperFunction*
G04 #@! TA.AperFunction,SMDPad,CuDef*
G36*
G01*
X108182000Y-76037000D02*
X109507000Y-76037000D01*
G75*
G02*
X109582000Y-76112000I0J-75000D01*
G01*
X109582000Y-76262000D01*
G75*
G02*
X109507000Y-76337000I-75000J0D01*
G01*
X108182000Y-76337000D01*
G75*
G02*
X108107000Y-76262000I0J75000D01*
G01*
X108107000Y-76112000D01*
G75*
G02*
X108182000Y-76037000I75000J0D01*
G01*
G37*
G04 #@! TD.AperFunction*
G04 #@! TA.AperFunction,SMDPad,CuDef*
G36*
G01*
X108182000Y-75537000D02*
X109507000Y-75537000D01*
G75*
G02*
X109582000Y-75612000I0J-75000D01*
G01*
X109582000Y-75762000D01*
G75*
G02*
X109507000Y-75837000I-75000J0D01*
G01*
X108182000Y-75837000D01*
G75*
G02*
X108107000Y-75762000I0J75000D01*
G01*
X108107000Y-75612000D01*
G75*
G02*
X108182000Y-75537000I75000J0D01*
G01*
G37*
G04 #@! TD.AperFunction*
G04 #@! TA.AperFunction,SMDPad,CuDef*
G36*
G01*
X108182000Y-75037000D02*
X109507000Y-75037000D01*
G75*
G02*
X109582000Y-75112000I0J-75000D01*
G01*
X109582000Y-75262000D01*
G75*
G02*
X109507000Y-75337000I-75000J0D01*
G01*
X108182000Y-75337000D01*
G75*
G02*
X108107000Y-75262000I0J75000D01*
G01*
X108107000Y-75112000D01*
G75*
G02*
X108182000Y-75037000I75000J0D01*
G01*
G37*
G04 #@! TD.AperFunction*
G04 #@! TA.AperFunction,SMDPad,CuDef*
G36*
G01*
X108182000Y-74537000D02*
X109507000Y-74537000D01*
G75*
G02*
X109582000Y-74612000I0J-75000D01*
G01*
X109582000Y-74762000D01*
G75*
G02*
X109507000Y-74837000I-75000J0D01*
G01*
X108182000Y-74837000D01*
G75*
G02*
X108107000Y-74762000I0J75000D01*
G01*
X108107000Y-74612000D01*
G75*
G02*
X108182000Y-74537000I75000J0D01*
G01*
G37*
G04 #@! TD.AperFunction*
G04 #@! TA.AperFunction,SMDPad,CuDef*
G36*
G01*
X108182000Y-74037000D02*
X109507000Y-74037000D01*
G75*
G02*
X109582000Y-74112000I0J-75000D01*
G01*
X109582000Y-74262000D01*
G75*
G02*
X109507000Y-74337000I-75000J0D01*
G01*
X108182000Y-74337000D01*
G75*
G02*
X108107000Y-74262000I0J75000D01*
G01*
X108107000Y-74112000D01*
G75*
G02*
X108182000Y-74037000I75000J0D01*
G01*
G37*
G04 #@! TD.AperFunction*
G04 #@! TA.AperFunction,SMDPad,CuDef*
G36*
G01*
X108182000Y-73537000D02*
X109507000Y-73537000D01*
G75*
G02*
X109582000Y-73612000I0J-75000D01*
G01*
X109582000Y-73762000D01*
G75*
G02*
X109507000Y-73837000I-75000J0D01*
G01*
X108182000Y-73837000D01*
G75*
G02*
X108107000Y-73762000I0J75000D01*
G01*
X108107000Y-73612000D01*
G75*
G02*
X108182000Y-73537000I75000J0D01*
G01*
G37*
G04 #@! TD.AperFunction*
G04 #@! TA.AperFunction,SMDPad,CuDef*
G36*
G01*
X108182000Y-73037000D02*
X109507000Y-73037000D01*
G75*
G02*
X109582000Y-73112000I0J-75000D01*
G01*
X109582000Y-73262000D01*
G75*
G02*
X109507000Y-73337000I-75000J0D01*
G01*
X108182000Y-73337000D01*
G75*
G02*
X108107000Y-73262000I0J75000D01*
G01*
X108107000Y-73112000D01*
G75*
G02*
X108182000Y-73037000I75000J0D01*
G01*
G37*
G04 #@! TD.AperFunction*
G04 #@! TA.AperFunction,SMDPad,CuDef*
G36*
G01*
X108182000Y-72537000D02*
X109507000Y-72537000D01*
G75*
G02*
X109582000Y-72612000I0J-75000D01*
G01*
X109582000Y-72762000D01*
G75*
G02*
X109507000Y-72837000I-75000J0D01*
G01*
X108182000Y-72837000D01*
G75*
G02*
X108107000Y-72762000I0J75000D01*
G01*
X108107000Y-72612000D01*
G75*
G02*
X108182000Y-72537000I75000J0D01*
G01*
G37*
G04 #@! TD.AperFunction*
G04 #@! TA.AperFunction,SMDPad,CuDef*
G36*
G01*
X108182000Y-72037000D02*
X109507000Y-72037000D01*
G75*
G02*
X109582000Y-72112000I0J-75000D01*
G01*
X109582000Y-72262000D01*
G75*
G02*
X109507000Y-72337000I-75000J0D01*
G01*
X108182000Y-72337000D01*
G75*
G02*
X108107000Y-72262000I0J75000D01*
G01*
X108107000Y-72112000D01*
G75*
G02*
X108182000Y-72037000I75000J0D01*
G01*
G37*
G04 #@! TD.AperFunction*
G04 #@! TA.AperFunction,SMDPad,CuDef*
G36*
G01*
X108182000Y-71537000D02*
X109507000Y-71537000D01*
G75*
G02*
X109582000Y-71612000I0J-75000D01*
G01*
X109582000Y-71762000D01*
G75*
G02*
X109507000Y-71837000I-75000J0D01*
G01*
X108182000Y-71837000D01*
G75*
G02*
X108107000Y-71762000I0J75000D01*
G01*
X108107000Y-71612000D01*
G75*
G02*
X108182000Y-71537000I75000J0D01*
G01*
G37*
G04 #@! TD.AperFunction*
G04 #@! TA.AperFunction,SMDPad,CuDef*
G36*
G01*
X108182000Y-71037000D02*
X109507000Y-71037000D01*
G75*
G02*
X109582000Y-71112000I0J-75000D01*
G01*
X109582000Y-71262000D01*
G75*
G02*
X109507000Y-71337000I-75000J0D01*
G01*
X108182000Y-71337000D01*
G75*
G02*
X108107000Y-71262000I0J75000D01*
G01*
X108107000Y-71112000D01*
G75*
G02*
X108182000Y-71037000I75000J0D01*
G01*
G37*
G04 #@! TD.AperFunction*
G04 #@! TA.AperFunction,SMDPad,CuDef*
G36*
G01*
X108182000Y-70537000D02*
X109507000Y-70537000D01*
G75*
G02*
X109582000Y-70612000I0J-75000D01*
G01*
X109582000Y-70762000D01*
G75*
G02*
X109507000Y-70837000I-75000J0D01*
G01*
X108182000Y-70837000D01*
G75*
G02*
X108107000Y-70762000I0J75000D01*
G01*
X108107000Y-70612000D01*
G75*
G02*
X108182000Y-70537000I75000J0D01*
G01*
G37*
G04 #@! TD.AperFunction*
G04 #@! TA.AperFunction,SMDPad,CuDef*
G36*
G01*
X108182000Y-70037000D02*
X109507000Y-70037000D01*
G75*
G02*
X109582000Y-70112000I0J-75000D01*
G01*
X109582000Y-70262000D01*
G75*
G02*
X109507000Y-70337000I-75000J0D01*
G01*
X108182000Y-70337000D01*
G75*
G02*
X108107000Y-70262000I0J75000D01*
G01*
X108107000Y-70112000D01*
G75*
G02*
X108182000Y-70037000I75000J0D01*
G01*
G37*
G04 #@! TD.AperFunction*
G04 #@! TA.AperFunction,SMDPad,CuDef*
G36*
G01*
X108182000Y-69537000D02*
X109507000Y-69537000D01*
G75*
G02*
X109582000Y-69612000I0J-75000D01*
G01*
X109582000Y-69762000D01*
G75*
G02*
X109507000Y-69837000I-75000J0D01*
G01*
X108182000Y-69837000D01*
G75*
G02*
X108107000Y-69762000I0J75000D01*
G01*
X108107000Y-69612000D01*
G75*
G02*
X108182000Y-69537000I75000J0D01*
G01*
G37*
G04 #@! TD.AperFunction*
G04 #@! TA.AperFunction,SMDPad,CuDef*
G36*
G01*
X108182000Y-69037000D02*
X109507000Y-69037000D01*
G75*
G02*
X109582000Y-69112000I0J-75000D01*
G01*
X109582000Y-69262000D01*
G75*
G02*
X109507000Y-69337000I-75000J0D01*
G01*
X108182000Y-69337000D01*
G75*
G02*
X108107000Y-69262000I0J75000D01*
G01*
X108107000Y-69112000D01*
G75*
G02*
X108182000Y-69037000I75000J0D01*
G01*
G37*
G04 #@! TD.AperFunction*
G04 #@! TA.AperFunction,SMDPad,CuDef*
G36*
G01*
X108182000Y-68537000D02*
X109507000Y-68537000D01*
G75*
G02*
X109582000Y-68612000I0J-75000D01*
G01*
X109582000Y-68762000D01*
G75*
G02*
X109507000Y-68837000I-75000J0D01*
G01*
X108182000Y-68837000D01*
G75*
G02*
X108107000Y-68762000I0J75000D01*
G01*
X108107000Y-68612000D01*
G75*
G02*
X108182000Y-68537000I75000J0D01*
G01*
G37*
G04 #@! TD.AperFunction*
G04 #@! TA.AperFunction,SMDPad,CuDef*
G36*
G01*
X108182000Y-68037000D02*
X109507000Y-68037000D01*
G75*
G02*
X109582000Y-68112000I0J-75000D01*
G01*
X109582000Y-68262000D01*
G75*
G02*
X109507000Y-68337000I-75000J0D01*
G01*
X108182000Y-68337000D01*
G75*
G02*
X108107000Y-68262000I0J75000D01*
G01*
X108107000Y-68112000D01*
G75*
G02*
X108182000Y-68037000I75000J0D01*
G01*
G37*
G04 #@! TD.AperFunction*
G04 #@! TA.AperFunction,SMDPad,CuDef*
G36*
G01*
X108182000Y-67537000D02*
X109507000Y-67537000D01*
G75*
G02*
X109582000Y-67612000I0J-75000D01*
G01*
X109582000Y-67762000D01*
G75*
G02*
X109507000Y-67837000I-75000J0D01*
G01*
X108182000Y-67837000D01*
G75*
G02*
X108107000Y-67762000I0J75000D01*
G01*
X108107000Y-67612000D01*
G75*
G02*
X108182000Y-67537000I75000J0D01*
G01*
G37*
G04 #@! TD.AperFunction*
G04 #@! TA.AperFunction,SMDPad,CuDef*
G36*
G01*
X108182000Y-67037000D02*
X109507000Y-67037000D01*
G75*
G02*
X109582000Y-67112000I0J-75000D01*
G01*
X109582000Y-67262000D01*
G75*
G02*
X109507000Y-67337000I-75000J0D01*
G01*
X108182000Y-67337000D01*
G75*
G02*
X108107000Y-67262000I0J75000D01*
G01*
X108107000Y-67112000D01*
G75*
G02*
X108182000Y-67037000I75000J0D01*
G01*
G37*
G04 #@! TD.AperFunction*
G04 #@! TA.AperFunction,SMDPad,CuDef*
G36*
G01*
X108182000Y-66537000D02*
X109507000Y-66537000D01*
G75*
G02*
X109582000Y-66612000I0J-75000D01*
G01*
X109582000Y-66762000D01*
G75*
G02*
X109507000Y-66837000I-75000J0D01*
G01*
X108182000Y-66837000D01*
G75*
G02*
X108107000Y-66762000I0J75000D01*
G01*
X108107000Y-66612000D01*
G75*
G02*
X108182000Y-66537000I75000J0D01*
G01*
G37*
G04 #@! TD.AperFunction*
G04 #@! TA.AperFunction,SMDPad,CuDef*
G36*
G01*
X108182000Y-66037000D02*
X109507000Y-66037000D01*
G75*
G02*
X109582000Y-66112000I0J-75000D01*
G01*
X109582000Y-66262000D01*
G75*
G02*
X109507000Y-66337000I-75000J0D01*
G01*
X108182000Y-66337000D01*
G75*
G02*
X108107000Y-66262000I0J75000D01*
G01*
X108107000Y-66112000D01*
G75*
G02*
X108182000Y-66037000I75000J0D01*
G01*
G37*
G04 #@! TD.AperFunction*
G04 #@! TA.AperFunction,SMDPad,CuDef*
G36*
G01*
X108182000Y-65537000D02*
X109507000Y-65537000D01*
G75*
G02*
X109582000Y-65612000I0J-75000D01*
G01*
X109582000Y-65762000D01*
G75*
G02*
X109507000Y-65837000I-75000J0D01*
G01*
X108182000Y-65837000D01*
G75*
G02*
X108107000Y-65762000I0J75000D01*
G01*
X108107000Y-65612000D01*
G75*
G02*
X108182000Y-65537000I75000J0D01*
G01*
G37*
G04 #@! TD.AperFunction*
G04 #@! TA.AperFunction,SMDPad,CuDef*
G36*
G01*
X108182000Y-65037000D02*
X109507000Y-65037000D01*
G75*
G02*
X109582000Y-65112000I0J-75000D01*
G01*
X109582000Y-65262000D01*
G75*
G02*
X109507000Y-65337000I-75000J0D01*
G01*
X108182000Y-65337000D01*
G75*
G02*
X108107000Y-65262000I0J75000D01*
G01*
X108107000Y-65112000D01*
G75*
G02*
X108182000Y-65037000I75000J0D01*
G01*
G37*
G04 #@! TD.AperFunction*
G04 #@! TA.AperFunction,SMDPad,CuDef*
G36*
G01*
X108182000Y-64537000D02*
X109507000Y-64537000D01*
G75*
G02*
X109582000Y-64612000I0J-75000D01*
G01*
X109582000Y-64762000D01*
G75*
G02*
X109507000Y-64837000I-75000J0D01*
G01*
X108182000Y-64837000D01*
G75*
G02*
X108107000Y-64762000I0J75000D01*
G01*
X108107000Y-64612000D01*
G75*
G02*
X108182000Y-64537000I75000J0D01*
G01*
G37*
G04 #@! TD.AperFunction*
G04 #@! TA.AperFunction,SMDPad,CuDef*
G36*
G01*
X108182000Y-64037000D02*
X109507000Y-64037000D01*
G75*
G02*
X109582000Y-64112000I0J-75000D01*
G01*
X109582000Y-64262000D01*
G75*
G02*
X109507000Y-64337000I-75000J0D01*
G01*
X108182000Y-64337000D01*
G75*
G02*
X108107000Y-64262000I0J75000D01*
G01*
X108107000Y-64112000D01*
G75*
G02*
X108182000Y-64037000I75000J0D01*
G01*
G37*
G04 #@! TD.AperFunction*
G04 #@! TA.AperFunction,SMDPad,CuDef*
G36*
G01*
X108182000Y-63537000D02*
X109507000Y-63537000D01*
G75*
G02*
X109582000Y-63612000I0J-75000D01*
G01*
X109582000Y-63762000D01*
G75*
G02*
X109507000Y-63837000I-75000J0D01*
G01*
X108182000Y-63837000D01*
G75*
G02*
X108107000Y-63762000I0J75000D01*
G01*
X108107000Y-63612000D01*
G75*
G02*
X108182000Y-63537000I75000J0D01*
G01*
G37*
G04 #@! TD.AperFunction*
G04 #@! TA.AperFunction,SMDPad,CuDef*
G36*
G01*
X108182000Y-63037000D02*
X109507000Y-63037000D01*
G75*
G02*
X109582000Y-63112000I0J-75000D01*
G01*
X109582000Y-63262000D01*
G75*
G02*
X109507000Y-63337000I-75000J0D01*
G01*
X108182000Y-63337000D01*
G75*
G02*
X108107000Y-63262000I0J75000D01*
G01*
X108107000Y-63112000D01*
G75*
G02*
X108182000Y-63037000I75000J0D01*
G01*
G37*
G04 #@! TD.AperFunction*
G04 #@! TA.AperFunction,SMDPad,CuDef*
G36*
G01*
X108182000Y-62537000D02*
X109507000Y-62537000D01*
G75*
G02*
X109582000Y-62612000I0J-75000D01*
G01*
X109582000Y-62762000D01*
G75*
G02*
X109507000Y-62837000I-75000J0D01*
G01*
X108182000Y-62837000D01*
G75*
G02*
X108107000Y-62762000I0J75000D01*
G01*
X108107000Y-62612000D01*
G75*
G02*
X108182000Y-62537000I75000J0D01*
G01*
G37*
G04 #@! TD.AperFunction*
G04 #@! TA.AperFunction,SMDPad,CuDef*
G36*
G01*
X108182000Y-62037000D02*
X109507000Y-62037000D01*
G75*
G02*
X109582000Y-62112000I0J-75000D01*
G01*
X109582000Y-62262000D01*
G75*
G02*
X109507000Y-62337000I-75000J0D01*
G01*
X108182000Y-62337000D01*
G75*
G02*
X108107000Y-62262000I0J75000D01*
G01*
X108107000Y-62112000D01*
G75*
G02*
X108182000Y-62037000I75000J0D01*
G01*
G37*
G04 #@! TD.AperFunction*
G04 #@! TA.AperFunction,SMDPad,CuDef*
G36*
G01*
X108182000Y-61537000D02*
X109507000Y-61537000D01*
G75*
G02*
X109582000Y-61612000I0J-75000D01*
G01*
X109582000Y-61762000D01*
G75*
G02*
X109507000Y-61837000I-75000J0D01*
G01*
X108182000Y-61837000D01*
G75*
G02*
X108107000Y-61762000I0J75000D01*
G01*
X108107000Y-61612000D01*
G75*
G02*
X108182000Y-61537000I75000J0D01*
G01*
G37*
G04 #@! TD.AperFunction*
G04 #@! TA.AperFunction,SMDPad,CuDef*
G36*
G01*
X108182000Y-61037000D02*
X109507000Y-61037000D01*
G75*
G02*
X109582000Y-61112000I0J-75000D01*
G01*
X109582000Y-61262000D01*
G75*
G02*
X109507000Y-61337000I-75000J0D01*
G01*
X108182000Y-61337000D01*
G75*
G02*
X108107000Y-61262000I0J75000D01*
G01*
X108107000Y-61112000D01*
G75*
G02*
X108182000Y-61037000I75000J0D01*
G01*
G37*
G04 #@! TD.AperFunction*
G04 #@! TA.AperFunction,SMDPad,CuDef*
G36*
G01*
X108182000Y-60537000D02*
X109507000Y-60537000D01*
G75*
G02*
X109582000Y-60612000I0J-75000D01*
G01*
X109582000Y-60762000D01*
G75*
G02*
X109507000Y-60837000I-75000J0D01*
G01*
X108182000Y-60837000D01*
G75*
G02*
X108107000Y-60762000I0J75000D01*
G01*
X108107000Y-60612000D01*
G75*
G02*
X108182000Y-60537000I75000J0D01*
G01*
G37*
G04 #@! TD.AperFunction*
G04 #@! TA.AperFunction,SMDPad,CuDef*
G36*
G01*
X108182000Y-60037000D02*
X109507000Y-60037000D01*
G75*
G02*
X109582000Y-60112000I0J-75000D01*
G01*
X109582000Y-60262000D01*
G75*
G02*
X109507000Y-60337000I-75000J0D01*
G01*
X108182000Y-60337000D01*
G75*
G02*
X108107000Y-60262000I0J75000D01*
G01*
X108107000Y-60112000D01*
G75*
G02*
X108182000Y-60037000I75000J0D01*
G01*
G37*
G04 #@! TD.AperFunction*
G04 #@! TA.AperFunction,SMDPad,CuDef*
G36*
G01*
X108182000Y-59537000D02*
X109507000Y-59537000D01*
G75*
G02*
X109582000Y-59612000I0J-75000D01*
G01*
X109582000Y-59762000D01*
G75*
G02*
X109507000Y-59837000I-75000J0D01*
G01*
X108182000Y-59837000D01*
G75*
G02*
X108107000Y-59762000I0J75000D01*
G01*
X108107000Y-59612000D01*
G75*
G02*
X108182000Y-59537000I75000J0D01*
G01*
G37*
G04 #@! TD.AperFunction*
G04 #@! TA.AperFunction,SMDPad,CuDef*
G36*
G01*
X108182000Y-59037000D02*
X109507000Y-59037000D01*
G75*
G02*
X109582000Y-59112000I0J-75000D01*
G01*
X109582000Y-59262000D01*
G75*
G02*
X109507000Y-59337000I-75000J0D01*
G01*
X108182000Y-59337000D01*
G75*
G02*
X108107000Y-59262000I0J75000D01*
G01*
X108107000Y-59112000D01*
G75*
G02*
X108182000Y-59037000I75000J0D01*
G01*
G37*
G04 #@! TD.AperFunction*
G04 #@! TA.AperFunction,SMDPad,CuDef*
G36*
G01*
X108182000Y-58537000D02*
X109507000Y-58537000D01*
G75*
G02*
X109582000Y-58612000I0J-75000D01*
G01*
X109582000Y-58762000D01*
G75*
G02*
X109507000Y-58837000I-75000J0D01*
G01*
X108182000Y-58837000D01*
G75*
G02*
X108107000Y-58762000I0J75000D01*
G01*
X108107000Y-58612000D01*
G75*
G02*
X108182000Y-58537000I75000J0D01*
G01*
G37*
G04 #@! TD.AperFunction*
G04 #@! TA.AperFunction,SMDPad,CuDef*
G36*
G01*
X110682000Y-56037000D02*
X110832000Y-56037000D01*
G75*
G02*
X110907000Y-56112000I0J-75000D01*
G01*
X110907000Y-57437000D01*
G75*
G02*
X110832000Y-57512000I-75000J0D01*
G01*
X110682000Y-57512000D01*
G75*
G02*
X110607000Y-57437000I0J75000D01*
G01*
X110607000Y-56112000D01*
G75*
G02*
X110682000Y-56037000I75000J0D01*
G01*
G37*
G04 #@! TD.AperFunction*
G04 #@! TA.AperFunction,SMDPad,CuDef*
G36*
G01*
X111182000Y-56037000D02*
X111332000Y-56037000D01*
G75*
G02*
X111407000Y-56112000I0J-75000D01*
G01*
X111407000Y-57437000D01*
G75*
G02*
X111332000Y-57512000I-75000J0D01*
G01*
X111182000Y-57512000D01*
G75*
G02*
X111107000Y-57437000I0J75000D01*
G01*
X111107000Y-56112000D01*
G75*
G02*
X111182000Y-56037000I75000J0D01*
G01*
G37*
G04 #@! TD.AperFunction*
G04 #@! TA.AperFunction,SMDPad,CuDef*
G36*
G01*
X111682000Y-56037000D02*
X111832000Y-56037000D01*
G75*
G02*
X111907000Y-56112000I0J-75000D01*
G01*
X111907000Y-57437000D01*
G75*
G02*
X111832000Y-57512000I-75000J0D01*
G01*
X111682000Y-57512000D01*
G75*
G02*
X111607000Y-57437000I0J75000D01*
G01*
X111607000Y-56112000D01*
G75*
G02*
X111682000Y-56037000I75000J0D01*
G01*
G37*
G04 #@! TD.AperFunction*
G04 #@! TA.AperFunction,SMDPad,CuDef*
G36*
G01*
X112182000Y-56037000D02*
X112332000Y-56037000D01*
G75*
G02*
X112407000Y-56112000I0J-75000D01*
G01*
X112407000Y-57437000D01*
G75*
G02*
X112332000Y-57512000I-75000J0D01*
G01*
X112182000Y-57512000D01*
G75*
G02*
X112107000Y-57437000I0J75000D01*
G01*
X112107000Y-56112000D01*
G75*
G02*
X112182000Y-56037000I75000J0D01*
G01*
G37*
G04 #@! TD.AperFunction*
G04 #@! TA.AperFunction,SMDPad,CuDef*
G36*
G01*
X112682000Y-56037000D02*
X112832000Y-56037000D01*
G75*
G02*
X112907000Y-56112000I0J-75000D01*
G01*
X112907000Y-57437000D01*
G75*
G02*
X112832000Y-57512000I-75000J0D01*
G01*
X112682000Y-57512000D01*
G75*
G02*
X112607000Y-57437000I0J75000D01*
G01*
X112607000Y-56112000D01*
G75*
G02*
X112682000Y-56037000I75000J0D01*
G01*
G37*
G04 #@! TD.AperFunction*
G04 #@! TA.AperFunction,SMDPad,CuDef*
G36*
G01*
X113182000Y-56037000D02*
X113332000Y-56037000D01*
G75*
G02*
X113407000Y-56112000I0J-75000D01*
G01*
X113407000Y-57437000D01*
G75*
G02*
X113332000Y-57512000I-75000J0D01*
G01*
X113182000Y-57512000D01*
G75*
G02*
X113107000Y-57437000I0J75000D01*
G01*
X113107000Y-56112000D01*
G75*
G02*
X113182000Y-56037000I75000J0D01*
G01*
G37*
G04 #@! TD.AperFunction*
G04 #@! TA.AperFunction,SMDPad,CuDef*
G36*
G01*
X113682000Y-56037000D02*
X113832000Y-56037000D01*
G75*
G02*
X113907000Y-56112000I0J-75000D01*
G01*
X113907000Y-57437000D01*
G75*
G02*
X113832000Y-57512000I-75000J0D01*
G01*
X113682000Y-57512000D01*
G75*
G02*
X113607000Y-57437000I0J75000D01*
G01*
X113607000Y-56112000D01*
G75*
G02*
X113682000Y-56037000I75000J0D01*
G01*
G37*
G04 #@! TD.AperFunction*
G04 #@! TA.AperFunction,SMDPad,CuDef*
G36*
G01*
X114182000Y-56037000D02*
X114332000Y-56037000D01*
G75*
G02*
X114407000Y-56112000I0J-75000D01*
G01*
X114407000Y-57437000D01*
G75*
G02*
X114332000Y-57512000I-75000J0D01*
G01*
X114182000Y-57512000D01*
G75*
G02*
X114107000Y-57437000I0J75000D01*
G01*
X114107000Y-56112000D01*
G75*
G02*
X114182000Y-56037000I75000J0D01*
G01*
G37*
G04 #@! TD.AperFunction*
G04 #@! TA.AperFunction,SMDPad,CuDef*
G36*
G01*
X114682000Y-56037000D02*
X114832000Y-56037000D01*
G75*
G02*
X114907000Y-56112000I0J-75000D01*
G01*
X114907000Y-57437000D01*
G75*
G02*
X114832000Y-57512000I-75000J0D01*
G01*
X114682000Y-57512000D01*
G75*
G02*
X114607000Y-57437000I0J75000D01*
G01*
X114607000Y-56112000D01*
G75*
G02*
X114682000Y-56037000I75000J0D01*
G01*
G37*
G04 #@! TD.AperFunction*
G04 #@! TA.AperFunction,SMDPad,CuDef*
G36*
G01*
X115182000Y-56037000D02*
X115332000Y-56037000D01*
G75*
G02*
X115407000Y-56112000I0J-75000D01*
G01*
X115407000Y-57437000D01*
G75*
G02*
X115332000Y-57512000I-75000J0D01*
G01*
X115182000Y-57512000D01*
G75*
G02*
X115107000Y-57437000I0J75000D01*
G01*
X115107000Y-56112000D01*
G75*
G02*
X115182000Y-56037000I75000J0D01*
G01*
G37*
G04 #@! TD.AperFunction*
G04 #@! TA.AperFunction,SMDPad,CuDef*
G36*
G01*
X115682000Y-56037000D02*
X115832000Y-56037000D01*
G75*
G02*
X115907000Y-56112000I0J-75000D01*
G01*
X115907000Y-57437000D01*
G75*
G02*
X115832000Y-57512000I-75000J0D01*
G01*
X115682000Y-57512000D01*
G75*
G02*
X115607000Y-57437000I0J75000D01*
G01*
X115607000Y-56112000D01*
G75*
G02*
X115682000Y-56037000I75000J0D01*
G01*
G37*
G04 #@! TD.AperFunction*
G04 #@! TA.AperFunction,SMDPad,CuDef*
G36*
G01*
X116182000Y-56037000D02*
X116332000Y-56037000D01*
G75*
G02*
X116407000Y-56112000I0J-75000D01*
G01*
X116407000Y-57437000D01*
G75*
G02*
X116332000Y-57512000I-75000J0D01*
G01*
X116182000Y-57512000D01*
G75*
G02*
X116107000Y-57437000I0J75000D01*
G01*
X116107000Y-56112000D01*
G75*
G02*
X116182000Y-56037000I75000J0D01*
G01*
G37*
G04 #@! TD.AperFunction*
G04 #@! TA.AperFunction,SMDPad,CuDef*
G36*
G01*
X116682000Y-56037000D02*
X116832000Y-56037000D01*
G75*
G02*
X116907000Y-56112000I0J-75000D01*
G01*
X116907000Y-57437000D01*
G75*
G02*
X116832000Y-57512000I-75000J0D01*
G01*
X116682000Y-57512000D01*
G75*
G02*
X116607000Y-57437000I0J75000D01*
G01*
X116607000Y-56112000D01*
G75*
G02*
X116682000Y-56037000I75000J0D01*
G01*
G37*
G04 #@! TD.AperFunction*
G04 #@! TA.AperFunction,SMDPad,CuDef*
G36*
G01*
X117182000Y-56037000D02*
X117332000Y-56037000D01*
G75*
G02*
X117407000Y-56112000I0J-75000D01*
G01*
X117407000Y-57437000D01*
G75*
G02*
X117332000Y-57512000I-75000J0D01*
G01*
X117182000Y-57512000D01*
G75*
G02*
X117107000Y-57437000I0J75000D01*
G01*
X117107000Y-56112000D01*
G75*
G02*
X117182000Y-56037000I75000J0D01*
G01*
G37*
G04 #@! TD.AperFunction*
G04 #@! TA.AperFunction,SMDPad,CuDef*
G36*
G01*
X117682000Y-56037000D02*
X117832000Y-56037000D01*
G75*
G02*
X117907000Y-56112000I0J-75000D01*
G01*
X117907000Y-57437000D01*
G75*
G02*
X117832000Y-57512000I-75000J0D01*
G01*
X117682000Y-57512000D01*
G75*
G02*
X117607000Y-57437000I0J75000D01*
G01*
X117607000Y-56112000D01*
G75*
G02*
X117682000Y-56037000I75000J0D01*
G01*
G37*
G04 #@! TD.AperFunction*
G04 #@! TA.AperFunction,SMDPad,CuDef*
G36*
G01*
X118182000Y-56037000D02*
X118332000Y-56037000D01*
G75*
G02*
X118407000Y-56112000I0J-75000D01*
G01*
X118407000Y-57437000D01*
G75*
G02*
X118332000Y-57512000I-75000J0D01*
G01*
X118182000Y-57512000D01*
G75*
G02*
X118107000Y-57437000I0J75000D01*
G01*
X118107000Y-56112000D01*
G75*
G02*
X118182000Y-56037000I75000J0D01*
G01*
G37*
G04 #@! TD.AperFunction*
G04 #@! TA.AperFunction,SMDPad,CuDef*
G36*
G01*
X118682000Y-56037000D02*
X118832000Y-56037000D01*
G75*
G02*
X118907000Y-56112000I0J-75000D01*
G01*
X118907000Y-57437000D01*
G75*
G02*
X118832000Y-57512000I-75000J0D01*
G01*
X118682000Y-57512000D01*
G75*
G02*
X118607000Y-57437000I0J75000D01*
G01*
X118607000Y-56112000D01*
G75*
G02*
X118682000Y-56037000I75000J0D01*
G01*
G37*
G04 #@! TD.AperFunction*
G04 #@! TA.AperFunction,SMDPad,CuDef*
G36*
G01*
X119182000Y-56037000D02*
X119332000Y-56037000D01*
G75*
G02*
X119407000Y-56112000I0J-75000D01*
G01*
X119407000Y-57437000D01*
G75*
G02*
X119332000Y-57512000I-75000J0D01*
G01*
X119182000Y-57512000D01*
G75*
G02*
X119107000Y-57437000I0J75000D01*
G01*
X119107000Y-56112000D01*
G75*
G02*
X119182000Y-56037000I75000J0D01*
G01*
G37*
G04 #@! TD.AperFunction*
G04 #@! TA.AperFunction,SMDPad,CuDef*
G36*
G01*
X119682000Y-56037000D02*
X119832000Y-56037000D01*
G75*
G02*
X119907000Y-56112000I0J-75000D01*
G01*
X119907000Y-57437000D01*
G75*
G02*
X119832000Y-57512000I-75000J0D01*
G01*
X119682000Y-57512000D01*
G75*
G02*
X119607000Y-57437000I0J75000D01*
G01*
X119607000Y-56112000D01*
G75*
G02*
X119682000Y-56037000I75000J0D01*
G01*
G37*
G04 #@! TD.AperFunction*
G04 #@! TA.AperFunction,SMDPad,CuDef*
G36*
G01*
X120182000Y-56037000D02*
X120332000Y-56037000D01*
G75*
G02*
X120407000Y-56112000I0J-75000D01*
G01*
X120407000Y-57437000D01*
G75*
G02*
X120332000Y-57512000I-75000J0D01*
G01*
X120182000Y-57512000D01*
G75*
G02*
X120107000Y-57437000I0J75000D01*
G01*
X120107000Y-56112000D01*
G75*
G02*
X120182000Y-56037000I75000J0D01*
G01*
G37*
G04 #@! TD.AperFunction*
G04 #@! TA.AperFunction,SMDPad,CuDef*
G36*
G01*
X120682000Y-56037000D02*
X120832000Y-56037000D01*
G75*
G02*
X120907000Y-56112000I0J-75000D01*
G01*
X120907000Y-57437000D01*
G75*
G02*
X120832000Y-57512000I-75000J0D01*
G01*
X120682000Y-57512000D01*
G75*
G02*
X120607000Y-57437000I0J75000D01*
G01*
X120607000Y-56112000D01*
G75*
G02*
X120682000Y-56037000I75000J0D01*
G01*
G37*
G04 #@! TD.AperFunction*
G04 #@! TA.AperFunction,SMDPad,CuDef*
G36*
G01*
X121182000Y-56037000D02*
X121332000Y-56037000D01*
G75*
G02*
X121407000Y-56112000I0J-75000D01*
G01*
X121407000Y-57437000D01*
G75*
G02*
X121332000Y-57512000I-75000J0D01*
G01*
X121182000Y-57512000D01*
G75*
G02*
X121107000Y-57437000I0J75000D01*
G01*
X121107000Y-56112000D01*
G75*
G02*
X121182000Y-56037000I75000J0D01*
G01*
G37*
G04 #@! TD.AperFunction*
G04 #@! TA.AperFunction,SMDPad,CuDef*
G36*
G01*
X121682000Y-56037000D02*
X121832000Y-56037000D01*
G75*
G02*
X121907000Y-56112000I0J-75000D01*
G01*
X121907000Y-57437000D01*
G75*
G02*
X121832000Y-57512000I-75000J0D01*
G01*
X121682000Y-57512000D01*
G75*
G02*
X121607000Y-57437000I0J75000D01*
G01*
X121607000Y-56112000D01*
G75*
G02*
X121682000Y-56037000I75000J0D01*
G01*
G37*
G04 #@! TD.AperFunction*
G04 #@! TA.AperFunction,SMDPad,CuDef*
G36*
G01*
X122182000Y-56037000D02*
X122332000Y-56037000D01*
G75*
G02*
X122407000Y-56112000I0J-75000D01*
G01*
X122407000Y-57437000D01*
G75*
G02*
X122332000Y-57512000I-75000J0D01*
G01*
X122182000Y-57512000D01*
G75*
G02*
X122107000Y-57437000I0J75000D01*
G01*
X122107000Y-56112000D01*
G75*
G02*
X122182000Y-56037000I75000J0D01*
G01*
G37*
G04 #@! TD.AperFunction*
G04 #@! TA.AperFunction,SMDPad,CuDef*
G36*
G01*
X122682000Y-56037000D02*
X122832000Y-56037000D01*
G75*
G02*
X122907000Y-56112000I0J-75000D01*
G01*
X122907000Y-57437000D01*
G75*
G02*
X122832000Y-57512000I-75000J0D01*
G01*
X122682000Y-57512000D01*
G75*
G02*
X122607000Y-57437000I0J75000D01*
G01*
X122607000Y-56112000D01*
G75*
G02*
X122682000Y-56037000I75000J0D01*
G01*
G37*
G04 #@! TD.AperFunction*
G04 #@! TA.AperFunction,SMDPad,CuDef*
G36*
G01*
X123182000Y-56037000D02*
X123332000Y-56037000D01*
G75*
G02*
X123407000Y-56112000I0J-75000D01*
G01*
X123407000Y-57437000D01*
G75*
G02*
X123332000Y-57512000I-75000J0D01*
G01*
X123182000Y-57512000D01*
G75*
G02*
X123107000Y-57437000I0J75000D01*
G01*
X123107000Y-56112000D01*
G75*
G02*
X123182000Y-56037000I75000J0D01*
G01*
G37*
G04 #@! TD.AperFunction*
G04 #@! TA.AperFunction,SMDPad,CuDef*
G36*
G01*
X123682000Y-56037000D02*
X123832000Y-56037000D01*
G75*
G02*
X123907000Y-56112000I0J-75000D01*
G01*
X123907000Y-57437000D01*
G75*
G02*
X123832000Y-57512000I-75000J0D01*
G01*
X123682000Y-57512000D01*
G75*
G02*
X123607000Y-57437000I0J75000D01*
G01*
X123607000Y-56112000D01*
G75*
G02*
X123682000Y-56037000I75000J0D01*
G01*
G37*
G04 #@! TD.AperFunction*
G04 #@! TA.AperFunction,SMDPad,CuDef*
G36*
G01*
X124182000Y-56037000D02*
X124332000Y-56037000D01*
G75*
G02*
X124407000Y-56112000I0J-75000D01*
G01*
X124407000Y-57437000D01*
G75*
G02*
X124332000Y-57512000I-75000J0D01*
G01*
X124182000Y-57512000D01*
G75*
G02*
X124107000Y-57437000I0J75000D01*
G01*
X124107000Y-56112000D01*
G75*
G02*
X124182000Y-56037000I75000J0D01*
G01*
G37*
G04 #@! TD.AperFunction*
G04 #@! TA.AperFunction,SMDPad,CuDef*
G36*
G01*
X124682000Y-56037000D02*
X124832000Y-56037000D01*
G75*
G02*
X124907000Y-56112000I0J-75000D01*
G01*
X124907000Y-57437000D01*
G75*
G02*
X124832000Y-57512000I-75000J0D01*
G01*
X124682000Y-57512000D01*
G75*
G02*
X124607000Y-57437000I0J75000D01*
G01*
X124607000Y-56112000D01*
G75*
G02*
X124682000Y-56037000I75000J0D01*
G01*
G37*
G04 #@! TD.AperFunction*
G04 #@! TA.AperFunction,SMDPad,CuDef*
G36*
G01*
X125182000Y-56037000D02*
X125332000Y-56037000D01*
G75*
G02*
X125407000Y-56112000I0J-75000D01*
G01*
X125407000Y-57437000D01*
G75*
G02*
X125332000Y-57512000I-75000J0D01*
G01*
X125182000Y-57512000D01*
G75*
G02*
X125107000Y-57437000I0J75000D01*
G01*
X125107000Y-56112000D01*
G75*
G02*
X125182000Y-56037000I75000J0D01*
G01*
G37*
G04 #@! TD.AperFunction*
G04 #@! TA.AperFunction,SMDPad,CuDef*
G36*
G01*
X125682000Y-56037000D02*
X125832000Y-56037000D01*
G75*
G02*
X125907000Y-56112000I0J-75000D01*
G01*
X125907000Y-57437000D01*
G75*
G02*
X125832000Y-57512000I-75000J0D01*
G01*
X125682000Y-57512000D01*
G75*
G02*
X125607000Y-57437000I0J75000D01*
G01*
X125607000Y-56112000D01*
G75*
G02*
X125682000Y-56037000I75000J0D01*
G01*
G37*
G04 #@! TD.AperFunction*
G04 #@! TA.AperFunction,SMDPad,CuDef*
G36*
G01*
X126182000Y-56037000D02*
X126332000Y-56037000D01*
G75*
G02*
X126407000Y-56112000I0J-75000D01*
G01*
X126407000Y-57437000D01*
G75*
G02*
X126332000Y-57512000I-75000J0D01*
G01*
X126182000Y-57512000D01*
G75*
G02*
X126107000Y-57437000I0J75000D01*
G01*
X126107000Y-56112000D01*
G75*
G02*
X126182000Y-56037000I75000J0D01*
G01*
G37*
G04 #@! TD.AperFunction*
G04 #@! TA.AperFunction,SMDPad,CuDef*
G36*
G01*
X126682000Y-56037000D02*
X126832000Y-56037000D01*
G75*
G02*
X126907000Y-56112000I0J-75000D01*
G01*
X126907000Y-57437000D01*
G75*
G02*
X126832000Y-57512000I-75000J0D01*
G01*
X126682000Y-57512000D01*
G75*
G02*
X126607000Y-57437000I0J75000D01*
G01*
X126607000Y-56112000D01*
G75*
G02*
X126682000Y-56037000I75000J0D01*
G01*
G37*
G04 #@! TD.AperFunction*
G04 #@! TA.AperFunction,SMDPad,CuDef*
G36*
G01*
X127182000Y-56037000D02*
X127332000Y-56037000D01*
G75*
G02*
X127407000Y-56112000I0J-75000D01*
G01*
X127407000Y-57437000D01*
G75*
G02*
X127332000Y-57512000I-75000J0D01*
G01*
X127182000Y-57512000D01*
G75*
G02*
X127107000Y-57437000I0J75000D01*
G01*
X127107000Y-56112000D01*
G75*
G02*
X127182000Y-56037000I75000J0D01*
G01*
G37*
G04 #@! TD.AperFunction*
G04 #@! TA.AperFunction,SMDPad,CuDef*
G36*
G01*
X127682000Y-56037000D02*
X127832000Y-56037000D01*
G75*
G02*
X127907000Y-56112000I0J-75000D01*
G01*
X127907000Y-57437000D01*
G75*
G02*
X127832000Y-57512000I-75000J0D01*
G01*
X127682000Y-57512000D01*
G75*
G02*
X127607000Y-57437000I0J75000D01*
G01*
X127607000Y-56112000D01*
G75*
G02*
X127682000Y-56037000I75000J0D01*
G01*
G37*
G04 #@! TD.AperFunction*
G04 #@! TA.AperFunction,SMDPad,CuDef*
G36*
G01*
X128182000Y-56037000D02*
X128332000Y-56037000D01*
G75*
G02*
X128407000Y-56112000I0J-75000D01*
G01*
X128407000Y-57437000D01*
G75*
G02*
X128332000Y-57512000I-75000J0D01*
G01*
X128182000Y-57512000D01*
G75*
G02*
X128107000Y-57437000I0J75000D01*
G01*
X128107000Y-56112000D01*
G75*
G02*
X128182000Y-56037000I75000J0D01*
G01*
G37*
G04 #@! TD.AperFunction*
D16*
X105333800Y-44805600D03*
X98983800Y-44805600D03*
D17*
X118408000Y-36195000D03*
X118408000Y-37465000D03*
X118408000Y-38735000D03*
X118408000Y-40005000D03*
X112986000Y-40005000D03*
X112986000Y-38735000D03*
X112986000Y-37465000D03*
X112986000Y-36195000D03*
D18*
X148209000Y-32481000D03*
D19*
X148209000Y-38481000D03*
D20*
X141990880Y-64982180D03*
X138790880Y-64982180D03*
X138790880Y-70232180D03*
X141990880Y-70232180D03*
D21*
X144861280Y-66598380D03*
X144861280Y-64958380D03*
D22*
X120029400Y-42062400D03*
X118389400Y-42062400D03*
D21*
X106959400Y-40416320D03*
X106959400Y-38776320D03*
D23*
X158940500Y-46456600D03*
D24*
X158940500Y-48456600D03*
D25*
X90888820Y-95651320D03*
D26*
X94113820Y-95651320D03*
X93169239Y-97931739D03*
X90888820Y-98876320D03*
X88608401Y-97931739D03*
X87663820Y-95651320D03*
X88608401Y-93370901D03*
X90888820Y-92426320D03*
X93169239Y-93370901D03*
X164202879Y-93495361D03*
X161922460Y-92550780D03*
X159642041Y-93495361D03*
X158697460Y-95775780D03*
X159642041Y-98056199D03*
X161922460Y-99000780D03*
X164202879Y-98056199D03*
X165147460Y-95775780D03*
D25*
X161922460Y-95775780D03*
X90761820Y-29583380D03*
D26*
X93986820Y-29583380D03*
X93042239Y-31863799D03*
X90761820Y-32808380D03*
X88481401Y-31863799D03*
X87536820Y-29583380D03*
X88481401Y-27302961D03*
X90761820Y-26358380D03*
X93042239Y-27302961D03*
X164075879Y-27302961D03*
X161795460Y-26358380D03*
X159515041Y-27302961D03*
X158570460Y-29583380D03*
X159515041Y-31863799D03*
X161795460Y-32808380D03*
X164075879Y-31863799D03*
X165020460Y-29583380D03*
D25*
X161795460Y-29583380D03*
D27*
X113164880Y-52951380D03*
X112244880Y-52951380D03*
D28*
X108943240Y-38709600D03*
X110543240Y-38709600D03*
D21*
X121945400Y-38668540D03*
X121945400Y-37028540D03*
D29*
X121290080Y-27881580D03*
X128879600Y-27914600D03*
D21*
X102143560Y-62729960D03*
X102143560Y-61089960D03*
D22*
X110379080Y-85915500D03*
X112019080Y-85915500D03*
D30*
X148638699Y-46207199D03*
D31*
X146338699Y-53057199D03*
D30*
X144038699Y-46207199D03*
D11*
X88143080Y-47058580D03*
D10*
X88143080Y-49598580D03*
X88143080Y-52138580D03*
X88143080Y-54678580D03*
X88143080Y-57218580D03*
X88143080Y-59758580D03*
X88143080Y-62298580D03*
X88143080Y-64838580D03*
X88143080Y-67378580D03*
D32*
X162181080Y-80947580D03*
X161781080Y-82047580D03*
X162181080Y-83147580D03*
X162381080Y-84247580D03*
X162181080Y-85347580D03*
X162381080Y-86447580D03*
X162181080Y-87547580D03*
X162181080Y-88647580D03*
D33*
X151321080Y-87837580D03*
D34*
X151096080Y-86447580D03*
D33*
X151321080Y-82137580D03*
D35*
X164471080Y-89437580D03*
X165471080Y-76287580D03*
D36*
X106576280Y-87452700D03*
X106576280Y-88086700D03*
X106576280Y-88722700D03*
X106576280Y-89356700D03*
X106576280Y-89992700D03*
X106576280Y-90626700D03*
X106576280Y-91262700D03*
X106576280Y-91896700D03*
X112026280Y-91896700D03*
X112026280Y-91262700D03*
X112026280Y-90626700D03*
X112026280Y-89992700D03*
X112026280Y-89356700D03*
X112026280Y-88722700D03*
X112026280Y-88086700D03*
X112026280Y-87452700D03*
D37*
X109301280Y-89674700D03*
D22*
X111950080Y-93586300D03*
X110310080Y-93586300D03*
D21*
X94564200Y-60518460D03*
X94564200Y-62158460D03*
D38*
X98358960Y-60284360D03*
D39*
X100580960Y-63009360D03*
X99946960Y-63009360D03*
X99310960Y-63009360D03*
X98676960Y-63009360D03*
X98040960Y-63009360D03*
X97406960Y-63009360D03*
X96770960Y-63009360D03*
X96136960Y-63009360D03*
X96136960Y-57559360D03*
X96770960Y-57559360D03*
X97406960Y-57559360D03*
X98040960Y-57559360D03*
X98676960Y-57559360D03*
X99310960Y-57559360D03*
X99946960Y-57559360D03*
X100580960Y-57559360D03*
D40*
X105481080Y-93510100D03*
X107381080Y-93510100D03*
D41*
X94513400Y-58150800D03*
X94513400Y-56250800D03*
D11*
X154114500Y-98298000D03*
D10*
X151574500Y-98298000D03*
D42*
X104762800Y-38811200D03*
X100062800Y-38811200D03*
D43*
X100457000Y-34757500D03*
X100457000Y-28107500D03*
D10*
X118935500Y-98298000D03*
X116395500Y-98298000D03*
X113855500Y-98298000D03*
X111315500Y-98298000D03*
X108775500Y-98298000D03*
X106235500Y-98298000D03*
X103695500Y-98298000D03*
X101155500Y-98298000D03*
D11*
X98615500Y-98298000D03*
X88143080Y-71442580D03*
D10*
X88143080Y-73982580D03*
X88143080Y-76522580D03*
X88143080Y-79062580D03*
X88143080Y-81602580D03*
X88143080Y-84142580D03*
X88143080Y-86682580D03*
X88143080Y-89222580D03*
D11*
X113035080Y-26738580D03*
D10*
X110495080Y-26738580D03*
X107955080Y-26738580D03*
D44*
X123284280Y-42130980D03*
X128084280Y-42130980D03*
D45*
X159517080Y-58372580D03*
X159517080Y-56572580D03*
D46*
X159390080Y-61280580D03*
X159390080Y-67380580D03*
D47*
X163327080Y-62499580D03*
X163327080Y-65399580D03*
D28*
X141140080Y-36263580D03*
X139540080Y-36263580D03*
D48*
X115575080Y-33020000D03*
D49*
X115575080Y-31020000D03*
D50*
X104907080Y-61217580D03*
X104907080Y-62617580D03*
X111830080Y-83380580D03*
X110430080Y-83380580D03*
X154360880Y-50450980D03*
X154360880Y-49050980D03*
D27*
X139880080Y-37787580D03*
X140800080Y-37787580D03*
D51*
X112247080Y-53916580D03*
X112807080Y-53916580D03*
D15*
X117861080Y-50312580D03*
X117861080Y-49392580D03*
D52*
X109961680Y-50741580D03*
X112247680Y-50741580D03*
D53*
X147627680Y-64889380D03*
X150527680Y-64889380D03*
D54*
X117785080Y-52935580D03*
X116159080Y-52935580D03*
X116159080Y-54135580D03*
X117785080Y-54135580D03*
D11*
X164414200Y-38989000D03*
D10*
X164414200Y-36449000D03*
D45*
X128270000Y-50535000D03*
X128270000Y-52335000D03*
D55*
X128295400Y-47066200D03*
X134395400Y-47066200D03*
D11*
X136474200Y-82143600D03*
D10*
X136474200Y-79603600D03*
X139014200Y-82143600D03*
X139014200Y-79603600D03*
X141554200Y-82143600D03*
X141554200Y-79603600D03*
X144094200Y-82143600D03*
X144094200Y-79603600D03*
X146634200Y-82143600D03*
X146634200Y-79603600D03*
D56*
X144830800Y-69215000D03*
X164647880Y-67810380D03*
X101762560Y-59242960D03*
D57*
X128435100Y-71450200D03*
X110502700Y-64922400D03*
X121424700Y-58597800D03*
X128562100Y-60401200D03*
X110401100Y-70180200D03*
X120764300Y-76530200D03*
X127977900Y-66344800D03*
D58*
X164266880Y-86479380D03*
D56*
X108412280Y-86174580D03*
D58*
X131680660Y-61687000D03*
D56*
X129621280Y-42130980D03*
D58*
X114965480Y-48303180D03*
X117861080Y-48328580D03*
D57*
X138155680Y-36263580D03*
X138155680Y-37787580D03*
X106888280Y-41622980D03*
D56*
X144805400Y-70688200D03*
X162438080Y-67810380D03*
X158907480Y-44213780D03*
X154335480Y-46982380D03*
D57*
X110774480Y-74795380D03*
X114965480Y-76573380D03*
X110350300Y-58826400D03*
D58*
X113131600Y-54851300D03*
D57*
X121945400Y-35737800D03*
D56*
X136017000Y-47040800D03*
D57*
X114706400Y-41452800D03*
X125768100Y-76555600D03*
D56*
X116179600Y-51612800D03*
X119108780Y-54135580D03*
D58*
X103568500Y-28130500D03*
X124464238Y-51444845D03*
X123632412Y-51999886D03*
X121467290Y-53642032D03*
X121188480Y-54602380D03*
D59*
X163314380Y-44010580D03*
D58*
X134498080Y-66743580D03*
X132847080Y-67378580D03*
X135387080Y-67632580D03*
X135895080Y-68648580D03*
X134117080Y-69410580D03*
X132085080Y-69918580D03*
X133100902Y-70393539D03*
X133943379Y-71118529D03*
X133344717Y-71951637D03*
X134498080Y-71950580D03*
X134498080Y-72966580D03*
X114559080Y-82491580D03*
X113797080Y-81602580D03*
X106151387Y-76496887D03*
X105034080Y-76522580D03*
X105165733Y-75384233D03*
X104145080Y-75379580D03*
X121774898Y-52690517D03*
X122636280Y-52087780D03*
X125464077Y-51426769D03*
X151193500Y-56197500D03*
X156273500Y-56197500D03*
X153733500Y-56197500D03*
X153733500Y-53657500D03*
X156273500Y-53657500D03*
X151193500Y-53657500D03*
D57*
X110426500Y-71856600D03*
X110451900Y-66446400D03*
X128536700Y-58445400D03*
X116624100Y-76555600D03*
X122288300Y-76581000D03*
X128435100Y-69697600D03*
X128054100Y-64668400D03*
X119951500Y-58572400D03*
D58*
X164292280Y-84269580D03*
D57*
X106431080Y-62679580D03*
D58*
X152811480Y-64940180D03*
D57*
X111638080Y-82237580D03*
X109301280Y-48404780D03*
D56*
X159542480Y-54856380D03*
D57*
X110850680Y-76192380D03*
X110350300Y-60401200D03*
D58*
X135953500Y-50736500D03*
X138493500Y-50736500D03*
X141033500Y-50736500D03*
X135953500Y-53276500D03*
X138493500Y-53276500D03*
X141033500Y-53276500D03*
X135953500Y-55816500D03*
X138493500Y-55816500D03*
X141033500Y-55816500D03*
X135953500Y-58356500D03*
X138493500Y-58356500D03*
X141033500Y-58356500D03*
X135953500Y-60896500D03*
X138493500Y-60896500D03*
X141033500Y-60896500D03*
X143573500Y-58356500D03*
X146113500Y-58356500D03*
X148653500Y-58356500D03*
X151193500Y-58356500D03*
X153733500Y-58356500D03*
X156273500Y-58356500D03*
X143573500Y-60896500D03*
X146113500Y-60896500D03*
X148653500Y-60896500D03*
X151193500Y-60896500D03*
X153733500Y-60896500D03*
X156273500Y-60896500D03*
D57*
X128511300Y-76428600D03*
D58*
X128376680Y-62603380D03*
X136403080Y-64965580D03*
X132694680Y-65752980D03*
X99954080Y-67886580D03*
X100558600Y-55745380D03*
X109143800Y-55549800D03*
X110375700Y-55173880D03*
X111372340Y-55061332D03*
X150571200Y-75057000D03*
X158318200Y-87553800D03*
X101605080Y-67378580D03*
X102611444Y-67876944D03*
X102361959Y-69431614D03*
X103738581Y-69385081D03*
X105183500Y-69560000D03*
X104018080Y-71823580D03*
X105415080Y-71823580D03*
X106685080Y-71823580D03*
D60*
X108846290Y-75711990D02*
X108844500Y-75710200D01*
X108844500Y-75710200D02*
X108844500Y-75687000D01*
D61*
X98358960Y-60131960D02*
X98638360Y-60131960D01*
X98638360Y-60131960D02*
X99527360Y-59242960D01*
X99527360Y-59242960D02*
X101762560Y-59242960D01*
D62*
X109301280Y-90302300D02*
X109301280Y-89649300D01*
X107732280Y-91871300D02*
X109301280Y-90302300D01*
X106576280Y-91871300D02*
X107732280Y-91871300D01*
D60*
X109943900Y-65659000D02*
X108844500Y-65687000D01*
X110502700Y-64922400D02*
X109943900Y-65659000D01*
X120757000Y-58209500D02*
X120757000Y-56774500D01*
X121424700Y-58597800D02*
X120757000Y-58209500D01*
X129019300Y-59207400D02*
X130169500Y-59187000D01*
X128562100Y-60401200D02*
X129019300Y-59207400D01*
D62*
X98213760Y-60277160D02*
X98358960Y-60131960D01*
D60*
X109918500Y-70688200D02*
X108844500Y-70687000D01*
X110401100Y-70180200D02*
X109918500Y-70688200D01*
X121257000Y-76850300D02*
X121257000Y-78099500D01*
X120764300Y-76530200D02*
X121257000Y-76850300D01*
X128967300Y-70687000D02*
X128435100Y-71450200D01*
X130169500Y-70687000D02*
X128967300Y-70687000D01*
X128638300Y-65687000D02*
X130169500Y-65687000D01*
X127977900Y-66344800D02*
X128638300Y-65687000D01*
X113779300Y-56796800D02*
X113757000Y-56774500D01*
D62*
X110048880Y-90396900D02*
X109301280Y-89649300D01*
X110310080Y-93586300D02*
X110048880Y-90396900D01*
D61*
X110190280Y-86347300D02*
X110190280Y-86601300D01*
D60*
X97836960Y-60131960D02*
X98358960Y-60131960D01*
D62*
X96149160Y-58760360D02*
X97836960Y-60131960D01*
X96136960Y-57406960D02*
X96149160Y-58760360D01*
X101780760Y-61089960D02*
X101737160Y-61046360D01*
D60*
X113757000Y-56774500D02*
X113757000Y-55707840D01*
X113757000Y-55707840D02*
X113757000Y-55470500D01*
D62*
X164247880Y-86498380D02*
X164266880Y-86479380D01*
X162508080Y-86498380D02*
X164247880Y-86498380D01*
X107381080Y-92701500D02*
X106576280Y-91896700D01*
X107381080Y-93510100D02*
X107381080Y-92701500D01*
D61*
X99171760Y-61046360D02*
X102143560Y-61089960D01*
X98358960Y-60233560D02*
X99171760Y-61046360D01*
X98358960Y-60131960D02*
X98358960Y-60233560D01*
X109656880Y-89649300D02*
X109301280Y-89649300D01*
X110190280Y-89115900D02*
X109656880Y-89649300D01*
X110379080Y-85915500D02*
X110190280Y-89115900D01*
X109072680Y-89649300D02*
X109301280Y-89649300D01*
X108412280Y-88988900D02*
X109072680Y-89649300D01*
X108412280Y-86174580D02*
X108412280Y-88988900D01*
D60*
X130169500Y-61687000D02*
X131680660Y-61687000D01*
D61*
X128084280Y-42130980D02*
X129621280Y-42130980D01*
X102151180Y-61097580D02*
X102143560Y-61089960D01*
X104907080Y-61217580D02*
X102151180Y-61097580D01*
D62*
X110379080Y-85915500D02*
X110430080Y-83380580D01*
D60*
X114965480Y-49367180D02*
X114965480Y-48303180D01*
X117861080Y-49392580D02*
X117861080Y-48328580D01*
X113131600Y-52984660D02*
X113164880Y-52951380D01*
X112908080Y-53916580D02*
X113131600Y-53693060D01*
X112807080Y-53916580D02*
X112908080Y-53916580D01*
X113131600Y-53693060D02*
X113131600Y-52984660D01*
X113060480Y-53916580D02*
X113131600Y-53987700D01*
X112807080Y-53916580D02*
X113060480Y-53916580D01*
X113131600Y-53987700D02*
X113131600Y-53693060D01*
D62*
X139880080Y-36603580D02*
X139540080Y-36263580D01*
X138358880Y-36263580D02*
X138358880Y-36263580D01*
X139880080Y-37787580D02*
X138155680Y-37787580D01*
X138155680Y-37787580D02*
X138358880Y-37787580D01*
X139540080Y-36263580D02*
X138155680Y-36263580D01*
X106959400Y-40416320D02*
X106888280Y-41622980D01*
D61*
X144861280Y-66598380D02*
X144861280Y-69359780D01*
X158940500Y-44246800D02*
X158907480Y-44213780D01*
X158940500Y-46456600D02*
X158940500Y-44246800D01*
X154360880Y-49050980D02*
X154335480Y-46982380D01*
D60*
X109989501Y-75671799D02*
X108859701Y-75671799D01*
X108859701Y-75671799D02*
X108844500Y-75687000D01*
X110774480Y-74795380D02*
X109989501Y-75671799D01*
X114965480Y-76573380D02*
X114965480Y-76573380D01*
X115752880Y-76827380D02*
X114965480Y-76573380D01*
X115757000Y-78099500D02*
X115752880Y-76827380D01*
X113757000Y-55476700D02*
X113131600Y-54851300D01*
X113757000Y-55707840D02*
X113757000Y-55476700D01*
X113131600Y-54851300D02*
X113131600Y-54241100D01*
X113131600Y-54241100D02*
X112807080Y-53916580D01*
X113131600Y-54851300D02*
X113131600Y-53987700D01*
X108849500Y-59182000D02*
X108844500Y-59187000D01*
X109994700Y-59182000D02*
X108849500Y-59182000D01*
X110350300Y-58826400D02*
X109994700Y-59182000D01*
X113257000Y-56774500D02*
X113757000Y-56774500D01*
X113257000Y-54976700D02*
X113131600Y-54851300D01*
X113257000Y-56774500D02*
X113257000Y-54976700D01*
D63*
X150658699Y-46207199D02*
X152654000Y-44211898D01*
X148638699Y-46207199D02*
X150658699Y-46207199D01*
D62*
X114131000Y-40005000D02*
X114935000Y-39201000D01*
X112986000Y-40005000D02*
X114131000Y-40005000D01*
X114131000Y-37465000D02*
X112986000Y-37465000D01*
X114935000Y-38269000D02*
X114131000Y-37465000D01*
X114935000Y-39201000D02*
X114935000Y-38269000D01*
D60*
X121945400Y-37028540D02*
X121945400Y-35737800D01*
D63*
X152654000Y-36926000D02*
X148209000Y-32481000D01*
X152654000Y-44211898D02*
X152654000Y-36926000D01*
D62*
X94513400Y-58150800D02*
X96136960Y-57559360D01*
X94564200Y-60518460D02*
X98404260Y-60258960D01*
D61*
X134395400Y-47066200D02*
X136017000Y-47040800D01*
D62*
X112395000Y-37465000D02*
X112986000Y-37465000D01*
X114706400Y-41452800D02*
X114249200Y-39997940D01*
D63*
X163327080Y-66921380D02*
X162438080Y-67810380D01*
X163327080Y-65399580D02*
X163327080Y-66921380D01*
X163327080Y-66489580D02*
X164647880Y-67810380D01*
X163327080Y-65399580D02*
X163327080Y-66489580D01*
X144861280Y-69184520D02*
X144830800Y-69215000D01*
X144861280Y-66598380D02*
X144861280Y-69184520D01*
D60*
X127757000Y-78099500D02*
X127757000Y-77296298D01*
X127016302Y-76555600D02*
X125768100Y-76555600D01*
X127757000Y-77296298D02*
X127016302Y-76555600D01*
X116179600Y-51612800D02*
X116159080Y-51935580D01*
D61*
X116159080Y-51633320D02*
X116179600Y-51612800D01*
X116159080Y-52935580D02*
X116159080Y-51633320D01*
X117785080Y-54135580D02*
X119108780Y-54135580D01*
D62*
X100457000Y-28107500D02*
X103545500Y-28107500D01*
X103545500Y-28107500D02*
X103568500Y-28130500D01*
D60*
X124464238Y-54945264D02*
X124464238Y-51444845D01*
X123757000Y-55652502D02*
X124464238Y-54945264D01*
X123757000Y-56774500D02*
X123757000Y-55652502D01*
X123632412Y-55140680D02*
X123632412Y-51999886D01*
X123257000Y-55516092D02*
X123632412Y-55140680D01*
X123257000Y-56774500D02*
X123257000Y-55516092D01*
X121913481Y-54088223D02*
X121467290Y-53642032D01*
X121913481Y-54950381D02*
X121913481Y-54088223D01*
X121757000Y-55106862D02*
X121913481Y-54950381D01*
X121757000Y-56774500D02*
X121757000Y-55106862D01*
X121257000Y-54670900D02*
X121188480Y-54602380D01*
X121257000Y-56774500D02*
X121257000Y-54670900D01*
D63*
X141185900Y-38506400D02*
X141185900Y-38544500D01*
X141185900Y-36814760D02*
X141185900Y-38506400D01*
X142443197Y-40386000D02*
X141224000Y-40386000D01*
X148209000Y-38481000D02*
X144348197Y-38481000D01*
X141185900Y-38544500D02*
X141224000Y-40386000D01*
X142913098Y-39916098D02*
X142443197Y-40386000D01*
X144348197Y-38481000D02*
X142913098Y-39916098D01*
D61*
X122181261Y-38904401D02*
X121945400Y-38668540D01*
X139948920Y-39743380D02*
X135691880Y-39743380D01*
X141185900Y-38506400D02*
X139948920Y-39743380D01*
D64*
X163314380Y-44010580D02*
X163263580Y-56710580D01*
D61*
X121878940Y-38735000D02*
X121945400Y-38668540D01*
X118408000Y-38735000D02*
X121878940Y-38735000D01*
X134698081Y-38749581D02*
X135691880Y-39743380D01*
X122026441Y-38749581D02*
X134698081Y-38749581D01*
X121945400Y-38668540D02*
X122026441Y-38749581D01*
D63*
X143916400Y-41452800D02*
X144038699Y-46207199D01*
X141224000Y-40386000D02*
X143916400Y-41452800D01*
D60*
X131390302Y-67187000D02*
X130169500Y-67187000D01*
X132889581Y-66574079D02*
X131390302Y-67187000D01*
X134498080Y-66743580D02*
X132889581Y-66574079D01*
X131963304Y-67687000D02*
X130169500Y-67687000D01*
X132847080Y-67378580D02*
X131963304Y-67687000D01*
X132819670Y-68187000D02*
X130169500Y-68187000D01*
X135387080Y-67632580D02*
X132819670Y-68187000D01*
X133393500Y-68687000D02*
X130169500Y-68687000D01*
X135895080Y-68648580D02*
X133393500Y-68687000D01*
X132211385Y-69187000D02*
X130169500Y-69187000D01*
X134117080Y-69410580D02*
X132211385Y-69187000D01*
X131345500Y-69687000D02*
X130169500Y-69687000D01*
X132085080Y-69918580D02*
X131345500Y-69687000D01*
X132307441Y-71187000D02*
X133100902Y-70393539D01*
X130169500Y-71187000D02*
X132307441Y-71187000D01*
X133104823Y-71118529D02*
X133943379Y-71118529D01*
X132536352Y-71687000D02*
X133104823Y-71118529D01*
X130169500Y-71687000D02*
X132536352Y-71687000D01*
X133109354Y-72187000D02*
X133344717Y-71951637D01*
X130169500Y-72187000D02*
X133109354Y-72187000D01*
X130169500Y-72687000D02*
X133634660Y-72687000D01*
X134371080Y-71950580D02*
X134498080Y-71950580D01*
X133634660Y-72687000D02*
X134371080Y-71950580D01*
X134277660Y-73187000D02*
X134498080Y-72966580D01*
X130169500Y-73187000D02*
X134277660Y-73187000D01*
X113757000Y-79091088D02*
X113757000Y-78099500D01*
X114559080Y-80459580D02*
X113757000Y-79091088D01*
X114559080Y-82491580D02*
X114559080Y-80459580D01*
X113257000Y-79227498D02*
X113257000Y-78099500D01*
X113924080Y-80332580D02*
X113257000Y-79227498D01*
X113797080Y-81602580D02*
X113924080Y-80332580D01*
X107461274Y-75187000D02*
X106151387Y-76496887D01*
X108844500Y-75187000D02*
X107461274Y-75187000D01*
X105100388Y-76522580D02*
X105034080Y-76522580D01*
X106935968Y-74687000D02*
X105100388Y-76522580D01*
X108844500Y-74687000D02*
X106935968Y-74687000D01*
X106362966Y-74187000D02*
X105165733Y-75384233D01*
X108844500Y-74187000D02*
X106362966Y-74187000D01*
X105837660Y-73687000D02*
X104145080Y-75379580D01*
X108844500Y-73687000D02*
X105837660Y-73687000D01*
X122363491Y-53279110D02*
X121774898Y-52690517D01*
X122363491Y-55136781D02*
X122363491Y-53279110D01*
X122257000Y-55243272D02*
X122363491Y-55136781D01*
X122257000Y-56774500D02*
X122257000Y-55243272D01*
X122813501Y-52265001D02*
X122636280Y-52087780D01*
X122813501Y-55323181D02*
X122813501Y-52265001D01*
X122757000Y-55379682D02*
X122813501Y-55323181D01*
X122757000Y-56774500D02*
X122757000Y-55379682D01*
X125464077Y-54581835D02*
X125464077Y-51426769D01*
X124257000Y-55788912D02*
X125464077Y-54581835D01*
X124257000Y-56774500D02*
X124257000Y-55788912D01*
D62*
X143192500Y-53238400D02*
X146075400Y-53238400D01*
X146075400Y-53238400D02*
X146075400Y-54648100D01*
D60*
X146338699Y-52447599D02*
X145605500Y-51714400D01*
D61*
X146338699Y-53057199D02*
X146338699Y-53419601D01*
X146338699Y-53419601D02*
X145529300Y-54229000D01*
X146338699Y-53057199D02*
X149070501Y-53057199D01*
D60*
X109582000Y-66187000D02*
X108844500Y-66187000D01*
X109647702Y-66187000D02*
X109582000Y-66187000D01*
X110451900Y-66446400D02*
X109647702Y-66187000D01*
X129927900Y-58445400D02*
X130169500Y-58687000D01*
X128536700Y-58445400D02*
X129927900Y-58445400D01*
X110061700Y-71187000D02*
X110426500Y-71856600D01*
X108844500Y-71187000D02*
X110061700Y-71187000D01*
X116257000Y-76922700D02*
X116624100Y-76555600D01*
X116257000Y-78099500D02*
X116257000Y-76922700D01*
X121754900Y-77038200D02*
X121757000Y-78099500D01*
X122288300Y-76581000D02*
X121754900Y-77038200D01*
X129197100Y-70180200D02*
X130169500Y-70187000D01*
X128435100Y-69697600D02*
X129197100Y-70180200D01*
X128409700Y-65176400D02*
X130169500Y-65187000D01*
X128054100Y-64668400D02*
X128409700Y-65176400D01*
X120281700Y-57886600D02*
X120257000Y-56774500D01*
X119951500Y-58572400D02*
X120281700Y-57886600D01*
D62*
X146338699Y-53057199D02*
X147691701Y-53057199D01*
X147691701Y-53057199D02*
X149618700Y-51130200D01*
X158933900Y-48463200D02*
X158940500Y-48456600D01*
X146338699Y-53057199D02*
X146427599Y-53057199D01*
X164263480Y-84298380D02*
X164292280Y-84269580D01*
X162508080Y-84298380D02*
X164263480Y-84298380D01*
X100580960Y-62856960D02*
X102143560Y-62729960D01*
X101686360Y-62849760D02*
X102143560Y-62729960D01*
X101679160Y-62856960D02*
X101686360Y-62849760D01*
X102143560Y-62729960D02*
X101679160Y-62856960D01*
X102143560Y-62729960D02*
X103286560Y-62729960D01*
D60*
X152748480Y-64877180D02*
X152811480Y-64940180D01*
X150525480Y-64877180D02*
X152748480Y-64877180D01*
X146338699Y-53057199D02*
X146338699Y-52447599D01*
D62*
X102524560Y-62729960D02*
X104907080Y-62617580D01*
X106369080Y-62617580D02*
X106431080Y-62679580D01*
X104907080Y-62617580D02*
X106369080Y-62617580D01*
X111830080Y-83380580D02*
X112026280Y-86506900D01*
X112026280Y-86506900D02*
X112026280Y-87427300D01*
X111638080Y-82237580D02*
X111830080Y-83380580D01*
X109961680Y-49675939D02*
X109961680Y-50741580D01*
X109301280Y-48404780D02*
X109961680Y-49675939D01*
D61*
X159517080Y-56572580D02*
X159542480Y-54856380D01*
X146338699Y-53057199D02*
X146338699Y-52718561D01*
X146338699Y-53057199D02*
X147919261Y-53057199D01*
X158901920Y-48495180D02*
X158940500Y-48456600D01*
X146338699Y-53057199D02*
X154360880Y-50450980D01*
D60*
X109816900Y-76174600D02*
X108844500Y-76176710D01*
X110070900Y-76174600D02*
X109816900Y-76174600D01*
X110850680Y-76192380D02*
X110070900Y-76174600D01*
X110350300Y-60401200D02*
X110017100Y-59687000D01*
X110017100Y-59687000D02*
X108844500Y-59687000D01*
D61*
X155397200Y-50622200D02*
X156774900Y-50622200D01*
D63*
X158940500Y-48456600D02*
X156165300Y-51231800D01*
D60*
X128257000Y-78099500D02*
X128257000Y-76682900D01*
X128257000Y-76682900D02*
X128511300Y-76428600D01*
D63*
X159517080Y-61153580D02*
X159390080Y-61280580D01*
X159517080Y-58372580D02*
X159517080Y-61153580D01*
X163263580Y-62436080D02*
X163327080Y-62499580D01*
X163263580Y-59885580D02*
X163263580Y-62436080D01*
D60*
X116257000Y-57577702D02*
X116311680Y-57632382D01*
X116257000Y-56774500D02*
X116257000Y-57577702D01*
X116257000Y-56774500D02*
X116257000Y-59932500D01*
X116257000Y-59932500D02*
X118902480Y-62577980D01*
X128351280Y-62577980D02*
X128376680Y-62603380D01*
X118902480Y-62577980D02*
X128351280Y-62577980D01*
X144782880Y-64798380D02*
X144835880Y-64851380D01*
X144834280Y-64829780D02*
X144835880Y-64831380D01*
X144758080Y-64855180D02*
X144861280Y-64958380D01*
X144930280Y-64889380D02*
X144861280Y-64958380D01*
X136403080Y-64965580D02*
X137185400Y-64973200D01*
X138781900Y-64973200D02*
X138790880Y-64982180D01*
X137185400Y-64973200D02*
X138781900Y-64973200D01*
X138790880Y-64982180D02*
X141990880Y-64982180D01*
X144837480Y-64982180D02*
X144861280Y-64958380D01*
X141990880Y-64982180D02*
X144837480Y-64982180D01*
X147558680Y-64958380D02*
X147627680Y-64889380D01*
X144861280Y-64958380D02*
X147558680Y-64958380D01*
D63*
X138883680Y-64889380D02*
X138790880Y-64982180D01*
X147627680Y-64889380D02*
X138883680Y-64889380D01*
D60*
X130169500Y-64187000D02*
X130972702Y-64187000D01*
X132538682Y-65752980D02*
X132694680Y-65752980D01*
X130972702Y-64187000D02*
X132538682Y-65752980D01*
X130972702Y-75687000D02*
X130993102Y-75666600D01*
X130169500Y-75687000D02*
X130972702Y-75687000D01*
X139978402Y-75687000D02*
X140409052Y-75702552D01*
X130169500Y-75687000D02*
X139978402Y-75687000D01*
X140409052Y-75702552D02*
X144404080Y-79697580D01*
X136728200Y-76174600D02*
X139324080Y-79697580D01*
X130169500Y-76187000D02*
X136728200Y-76174600D01*
X127457898Y-79603600D02*
X136474200Y-79603600D01*
X126746000Y-79171800D02*
X127457898Y-79603600D01*
X126757000Y-78099500D02*
X126746000Y-79171800D01*
X112244880Y-53914380D02*
X112247080Y-53916580D01*
X112244880Y-52951380D02*
X112244880Y-53914380D01*
X112257000Y-56774500D02*
X112757000Y-56774500D01*
D61*
X112247680Y-52948580D02*
X112244880Y-52951380D01*
X112247680Y-50741580D02*
X112247680Y-52948580D01*
D60*
X112273080Y-56803020D02*
X112247080Y-53916580D01*
X106485280Y-87361700D02*
X106576280Y-87452700D01*
X106576280Y-84583422D02*
X106576280Y-87452700D01*
X112257000Y-78902702D02*
X106576280Y-84583422D01*
X112257000Y-78099500D02*
X112257000Y-78902702D01*
X104216200Y-87249000D02*
X105105200Y-88087200D01*
X105105200Y-88087200D02*
X106576280Y-88086700D01*
X104216200Y-85943502D02*
X104216200Y-87249000D01*
X111257000Y-78902702D02*
X104216200Y-85943502D01*
X111257000Y-78099500D02*
X111257000Y-78902702D01*
X100680520Y-88684100D02*
X99316259Y-90019859D01*
X106576280Y-88697300D02*
X100680520Y-88684100D01*
X98615500Y-90720618D02*
X98615500Y-98298000D01*
X99316259Y-90019859D02*
X98615500Y-90720618D01*
X102819200Y-89357200D02*
X101828600Y-90754200D01*
X105915960Y-89356700D02*
X102819200Y-89357200D01*
X101155500Y-91427300D02*
X101155500Y-98298000D01*
X101828600Y-90754200D02*
X101155500Y-91427300D01*
X102962692Y-90643692D02*
X102997000Y-95758000D01*
X103530338Y-89992262D02*
X102962692Y-90643692D01*
X106576280Y-89992700D02*
X103530338Y-89992262D01*
X103695500Y-96456500D02*
X103695500Y-98298000D01*
X102997000Y-95758000D02*
X103695500Y-96456500D01*
X106576280Y-90601300D02*
X105551280Y-90601300D01*
X106576280Y-90601300D02*
X105327239Y-90601300D01*
X104226360Y-96288860D02*
X106235500Y-98298000D01*
X104226360Y-91635580D02*
X104226360Y-96288860D01*
X106576280Y-90601300D02*
X105059480Y-90614500D01*
X105059480Y-90614500D02*
X104226360Y-91635580D01*
D62*
X105267680Y-91389900D02*
X105267680Y-93281500D01*
X105420280Y-91237300D02*
X105267680Y-91389900D01*
X106576280Y-91237300D02*
X105420280Y-91237300D01*
X112026280Y-93045700D02*
X111688880Y-93383100D01*
X112044480Y-91980100D02*
X111950080Y-93586300D01*
D60*
X108775500Y-98298000D02*
X111442500Y-95631000D01*
X111442500Y-95631000D02*
X112712500Y-95631000D01*
X112712500Y-95631000D02*
X113601500Y-94742000D01*
X113601500Y-91812920D02*
X113051280Y-91262700D01*
X113051280Y-91262700D02*
X112026280Y-91262700D01*
X113601500Y-94742000D02*
X113601500Y-91812920D01*
X113051690Y-90626700D02*
X113063890Y-90614500D01*
X112026280Y-90626700D02*
X113051690Y-90626700D01*
X113063890Y-90614500D02*
X113728500Y-90614500D01*
X113728500Y-90614500D02*
X114681000Y-91567000D01*
X114681000Y-94932500D02*
X111315500Y-98298000D01*
X114681000Y-91567000D02*
X114681000Y-94932500D01*
X113743110Y-89992700D02*
X113756310Y-89979500D01*
X112026280Y-89992700D02*
X113743110Y-89992700D01*
X113756310Y-89979500D02*
X114681000Y-89979500D01*
X114681000Y-89979500D02*
X115633500Y-90932000D01*
X115633500Y-96520000D02*
X113855500Y-98298000D01*
X115633500Y-90932000D02*
X115633500Y-96520000D01*
X114694610Y-89356700D02*
X114745910Y-89408000D01*
X112026280Y-89356700D02*
X114694610Y-89356700D01*
X114745910Y-89408000D02*
X115824000Y-89408000D01*
X116395500Y-89979500D02*
X116395500Y-98298000D01*
X115824000Y-89408000D02*
X116395500Y-89979500D01*
X115775110Y-88722700D02*
X115788310Y-88709500D01*
X112026280Y-88722700D02*
X115775110Y-88722700D01*
X118935500Y-91856690D02*
X118935500Y-98298000D01*
X115788310Y-88709500D02*
X118935500Y-91856690D01*
X112757000Y-78099500D02*
X112757000Y-82023000D01*
X112757000Y-82023000D02*
X114452400Y-83718400D01*
X114148100Y-88086700D02*
X112026280Y-88086700D01*
X114452400Y-87782400D02*
X114148100Y-88086700D01*
X114452400Y-83718400D02*
X114452400Y-87782400D01*
X99946960Y-63800462D02*
X99946960Y-62856960D01*
X108844500Y-72687000D02*
X108041298Y-72687000D01*
X99946960Y-65465338D02*
X99946960Y-63009360D01*
X102875080Y-72585580D02*
X99946960Y-65465338D01*
X108844500Y-72687000D02*
X102875080Y-72585580D01*
X88427560Y-67904360D02*
X88122760Y-67599560D01*
X99319080Y-65854580D02*
X96829199Y-67378580D01*
X99310960Y-63009360D02*
X99319080Y-65854580D01*
X96829199Y-67378580D02*
X88143080Y-67378580D01*
X98684080Y-65473580D02*
X96652080Y-66589762D01*
X89652962Y-66589762D02*
X88122760Y-65059560D01*
X98676960Y-63009360D02*
X98684080Y-65473580D01*
X96652080Y-66589762D02*
X89652962Y-66589762D01*
X98040960Y-63884780D02*
X98040960Y-62856960D01*
X98049080Y-64965580D02*
X96525080Y-65854580D01*
X98040960Y-63009360D02*
X98049080Y-64965580D01*
X91699080Y-65854580D02*
X88143080Y-62298580D01*
X96525080Y-65854580D02*
X91699080Y-65854580D01*
X97406960Y-63908770D02*
X97393760Y-63921970D01*
X97406960Y-62856960D02*
X97406960Y-63908770D01*
X97406960Y-64584580D02*
X96221740Y-65219580D01*
X97406960Y-63009360D02*
X97406960Y-64584580D01*
X93604080Y-65219580D02*
X88143080Y-59758580D01*
X96221740Y-65219580D02*
X93604080Y-65219580D01*
X88196420Y-57937400D02*
X88044020Y-57785000D01*
X96770960Y-63009360D02*
X96777529Y-63949580D01*
X96777529Y-63949580D02*
X96456554Y-64457580D01*
X96456554Y-64457580D02*
X95033861Y-64457580D01*
X95033861Y-64457580D02*
X88143080Y-57218580D01*
D62*
X94703900Y-62158460D02*
X94564200Y-62158460D01*
X96136960Y-63009360D02*
X94703900Y-62158460D01*
X96526960Y-56006960D02*
X94513400Y-56250800D01*
X96770960Y-56250960D02*
X96526960Y-56006960D01*
X96770960Y-57406960D02*
X96770960Y-56250960D01*
D60*
X97406960Y-57406960D02*
X97406960Y-56638960D01*
X97406960Y-56157919D02*
X95988581Y-54739540D01*
X97406960Y-57559360D02*
X97406960Y-56157919D01*
X88204040Y-54739540D02*
X88143080Y-54678580D01*
X95988581Y-54739540D02*
X88204040Y-54739540D01*
X98040960Y-57406960D02*
X98047652Y-55563612D01*
X98047652Y-55563612D02*
X94622620Y-52138580D01*
X94622620Y-52138580D02*
X88143080Y-52138580D01*
X98676960Y-57559360D02*
X98676960Y-55556510D01*
X92719030Y-49598580D02*
X88143080Y-49598580D01*
X98676960Y-55556510D02*
X92719030Y-49598580D01*
X90815440Y-47058580D02*
X88143080Y-47058580D01*
X99310960Y-57559360D02*
X99310960Y-55554100D01*
X99310960Y-55554100D02*
X90815440Y-47058580D01*
X108048500Y-73187000D02*
X108844500Y-73187000D01*
X102240080Y-73093580D02*
X108048500Y-73187000D01*
X99954080Y-67886580D02*
X102240080Y-73093580D01*
X100558600Y-55745380D02*
X99941380Y-56222900D01*
X99941380Y-56222900D02*
X99946960Y-57406960D01*
X108844500Y-61687000D02*
X108041298Y-61687000D01*
X108041298Y-61687000D02*
X103913658Y-57559360D01*
X103913658Y-57559360D02*
X100580960Y-57559360D01*
X139324080Y-74185780D02*
X130169500Y-74187000D01*
X162181080Y-83147580D02*
X160739070Y-83147580D01*
X139330473Y-74179387D02*
X139324080Y-74185780D01*
X151770877Y-74179387D02*
X139330473Y-74179387D01*
X160739070Y-83147580D02*
X151770877Y-74179387D01*
X131632500Y-75187000D02*
X130169500Y-75187000D01*
X138308080Y-75176380D02*
X131632500Y-75187000D01*
X161831080Y-85347580D02*
X162181080Y-85347580D01*
X138308080Y-75176380D02*
X149395180Y-75176380D01*
X159566380Y-85347580D02*
X162181080Y-85347580D01*
X149395180Y-75176380D02*
X159566380Y-85347580D01*
X125281990Y-78927692D02*
X125281990Y-78124490D01*
X127311288Y-80956990D02*
X125281990Y-78927692D01*
X154114500Y-97198000D02*
X151722000Y-94805500D01*
X154114500Y-98298000D02*
X154114500Y-97198000D01*
X142304910Y-94805500D02*
X128456400Y-80956990D01*
X128456400Y-80956990D02*
X127311288Y-80956990D01*
X125281990Y-78124490D02*
X125257000Y-78099500D01*
X151722000Y-94805500D02*
X142304910Y-94805500D01*
X139832080Y-73728580D02*
X130169500Y-73687000D01*
X160781080Y-82047580D02*
X161781080Y-82047580D01*
X152462080Y-73728580D02*
X160781080Y-82047580D01*
X139832080Y-73728580D02*
X152462080Y-73728580D01*
X110757000Y-56774500D02*
X110757000Y-56463900D01*
X110368500Y-56774500D02*
X109143800Y-55549800D01*
X110757000Y-56774500D02*
X110368500Y-56774500D01*
X110459582Y-55173880D02*
X110375700Y-55173880D01*
X111257000Y-55971298D02*
X110459582Y-55173880D01*
X111257000Y-56774500D02*
X111257000Y-55971298D01*
X111757000Y-56606900D02*
X111732010Y-56581910D01*
X111757000Y-56774500D02*
X111757000Y-56606900D01*
X111757000Y-55445992D02*
X111372340Y-55061332D01*
X111757000Y-56774500D02*
X111757000Y-55445992D01*
X124757000Y-78902702D02*
X124757000Y-78837000D01*
X151574500Y-98298000D02*
X148715457Y-95438957D01*
X148715457Y-95438957D02*
X142301957Y-95438957D01*
X142301957Y-95438957D02*
X128270000Y-81407000D01*
X128270000Y-81407000D02*
X127261298Y-81407000D01*
X124757000Y-78837000D02*
X124757000Y-78099500D01*
X124757000Y-79039112D02*
X124757000Y-78837000D01*
X127124887Y-81406999D02*
X124757000Y-79039112D01*
X127261298Y-81407000D02*
X127124887Y-81406999D01*
D65*
X104762800Y-38811200D02*
X108862460Y-38790380D01*
D61*
X110568640Y-38735000D02*
X110543240Y-38709600D01*
X112986000Y-38735000D02*
X110568640Y-38735000D01*
D63*
X123215700Y-42062400D02*
X123284280Y-42130980D01*
X120029400Y-42062400D02*
X123215700Y-42062400D01*
D62*
X118408000Y-40005000D02*
X118408000Y-40861800D01*
X115849400Y-39700200D02*
X115900200Y-41325800D01*
D61*
X116636800Y-42062400D02*
X115900200Y-41325800D01*
X118408000Y-42043800D02*
X118389400Y-42062400D01*
X118408000Y-40005000D02*
X118408000Y-42043800D01*
X118389400Y-42062400D02*
X116636800Y-42062400D01*
X115900200Y-41325800D02*
X115575080Y-33020000D01*
D63*
X98983800Y-39890200D02*
X100062800Y-38811200D01*
X98983800Y-44805600D02*
X98983800Y-39890200D01*
X98983800Y-44805600D02*
X98983800Y-40695880D01*
X100062800Y-35151700D02*
X100457000Y-34757500D01*
X100062800Y-38811200D02*
X100062800Y-35151700D01*
D62*
X105333800Y-44805600D02*
X105333800Y-56743600D01*
D60*
X105431692Y-58271308D02*
X105333800Y-56743600D01*
X107671308Y-60680600D02*
X105431692Y-58271308D01*
X107746800Y-60680600D02*
X107671308Y-60680600D01*
X108041298Y-60687000D02*
X107746800Y-60680600D01*
X108844500Y-60687000D02*
X108041298Y-60687000D01*
X132118100Y-74676000D02*
X138742540Y-74671040D01*
X130169500Y-74687000D02*
X132118100Y-74676000D01*
X161746078Y-87547580D02*
X162181080Y-87547580D01*
X138742540Y-74671040D02*
X148869538Y-74671040D01*
X148869538Y-74671040D02*
X150185240Y-74671040D01*
X150185240Y-74671040D02*
X150571200Y-75057000D01*
X162174860Y-87553800D02*
X162181080Y-87547580D01*
X158318200Y-87553800D02*
X162174860Y-87553800D01*
X102496202Y-66687000D02*
X108844500Y-66687000D01*
X101605080Y-67378580D02*
X102496202Y-66687000D01*
X103301387Y-67187000D02*
X108844500Y-67187000D01*
X102611444Y-67876944D02*
X103301387Y-67187000D01*
X104106573Y-67687000D02*
X102361959Y-69431614D01*
X108844500Y-67687000D02*
X104106573Y-67687000D01*
X103738581Y-69385081D02*
X104911672Y-68211990D01*
X108357510Y-68211990D02*
X104911672Y-68211990D01*
X108382500Y-68187000D02*
X108357510Y-68211990D01*
X108844500Y-68187000D02*
X108382500Y-68187000D01*
X106304080Y-68687000D02*
X108844500Y-68687000D01*
X105183500Y-69560000D02*
X106304080Y-68687000D01*
X106939080Y-69156580D02*
X108844500Y-69187000D01*
X104018080Y-71823580D02*
X106939080Y-69156580D01*
X107170660Y-69687000D02*
X108844500Y-69687000D01*
X105415080Y-71823580D02*
X107170660Y-69687000D01*
X108041298Y-70187000D02*
X108844500Y-70187000D01*
X106685080Y-71823580D02*
X107574080Y-70172580D01*
X107574080Y-70172580D02*
X108041298Y-70187000D01*
X118257000Y-86443500D02*
X118257000Y-78099500D01*
X130175000Y-98361500D02*
X118257000Y-86443500D01*
X118757000Y-84403500D02*
X118757000Y-78099500D01*
X132715000Y-98361500D02*
X118757000Y-84403500D01*
X119257000Y-78837000D02*
X119257000Y-78099500D01*
X134430001Y-96901501D02*
X119257000Y-81728500D01*
X134430001Y-97536501D02*
X134430001Y-96901501D01*
X119257000Y-81728500D02*
X119257000Y-78837000D01*
X135255000Y-98361500D02*
X134430001Y-97536501D01*
X137795000Y-98361500D02*
X121348500Y-81915000D01*
X119757000Y-78837000D02*
X119757000Y-78099500D01*
X119757000Y-80641000D02*
X119757000Y-78837000D01*
X121031000Y-81915000D02*
X119757000Y-80641000D01*
X121348500Y-81915000D02*
X121031000Y-81915000D01*
X120257000Y-78099500D02*
X120257000Y-78902702D01*
X140335000Y-98361500D02*
X123317000Y-81343500D01*
X120257000Y-79680500D02*
X120257000Y-78837000D01*
X120257000Y-78837000D02*
X120257000Y-78099500D01*
X121920000Y-81343500D02*
X120257000Y-79680500D01*
X123317000Y-81343500D02*
X121920000Y-81343500D01*
X142875000Y-98361500D02*
X124714000Y-80200500D01*
X120732010Y-78124490D02*
X120757000Y-78099500D01*
X124714000Y-80200500D02*
X122047000Y-80200500D01*
X120732010Y-78885510D02*
X120732010Y-78124490D01*
X122047000Y-80200500D02*
X120732010Y-78885510D01*
D63*
X117602000Y-30022800D02*
X121290080Y-27881580D01*
X115575080Y-31020000D02*
X117602000Y-30022800D01*
D60*
X118195082Y-52935580D02*
X117785080Y-52935580D01*
X117785080Y-52935580D02*
X117785080Y-50436580D01*
X119293080Y-52935580D02*
X117785080Y-52935580D01*
X120147080Y-53789580D02*
X119293080Y-52935580D01*
X120147080Y-54551580D02*
X120147080Y-53789580D01*
X119385080Y-55313580D02*
X120147080Y-54551580D01*
X117914718Y-55313580D02*
X119385080Y-55313580D01*
X117257000Y-55971298D02*
X117914718Y-55313580D01*
X117257000Y-56774500D02*
X117257000Y-55971298D01*
D61*
X117785080Y-50388580D02*
X117861080Y-50312580D01*
X117785080Y-52935580D02*
X117785080Y-50388580D01*
D60*
X116757000Y-55971298D02*
X116099282Y-55313580D01*
X116757000Y-56774500D02*
X116757000Y-55971298D01*
X116099282Y-54195378D02*
X116159080Y-54135580D01*
X116099282Y-55313580D02*
X116099282Y-54195378D01*
X115552280Y-54135580D02*
X115234079Y-53817379D01*
X116159080Y-54135580D02*
X115552280Y-54135580D01*
D61*
X115516878Y-54135580D02*
X115105079Y-53723781D01*
X114965480Y-53584182D02*
X114965480Y-50287180D01*
X115516878Y-54135580D02*
X114965480Y-53584182D01*
X116159080Y-54135580D02*
X115516878Y-54135580D01*
D63*
X128270000Y-47091600D02*
X128295400Y-47066200D01*
X128270000Y-50535000D02*
X128270000Y-47091600D01*
D60*
X128257000Y-56774500D02*
X128257000Y-55791400D01*
X128257000Y-56774500D02*
X128257000Y-55155800D01*
D61*
X128257000Y-55155800D02*
X128257000Y-52348000D01*
X128257000Y-52348000D02*
X128270000Y-52335000D01*
D60*
X127635000Y-98361500D02*
X117806990Y-88533490D01*
X117806990Y-88533490D02*
X117806990Y-81452692D01*
X115257000Y-78902702D02*
X115257000Y-78099500D01*
X117806990Y-81452692D02*
X115257000Y-78902702D01*
X117356980Y-89456754D02*
X125095000Y-97194774D01*
X117356980Y-82524940D02*
X117356980Y-89456754D01*
X114781990Y-79949950D02*
X117356980Y-82524940D01*
X125095000Y-97194774D02*
X125095000Y-98361500D01*
X114757000Y-78435000D02*
X114781990Y-78459990D01*
X114781990Y-78459990D02*
X114781990Y-79949950D01*
X114757000Y-78099500D02*
X114757000Y-78435000D01*
D66*
X138993880Y-38295580D02*
X137317480Y-38295580D01*
X137317480Y-35425380D01*
X138993880Y-35425380D01*
X138993880Y-38295580D01*
G04 #@! TA.AperFunction,Conductor*
D67*
G36*
X138993880Y-38295580D02*
G01*
X137317480Y-38295580D01*
X137317480Y-35425380D01*
X138993880Y-35425380D01*
X138993880Y-38295580D01*
G37*
G04 #@! TD.AperFunction*
D66*
X145851880Y-71480867D02*
X137495280Y-71493192D01*
X137495280Y-68546420D01*
X145851880Y-68509443D01*
X145851880Y-71480867D01*
G04 #@! TA.AperFunction,Conductor*
D67*
G36*
X145851880Y-71480867D02*
G01*
X137495280Y-71493192D01*
X137495280Y-68546420D01*
X145851880Y-68509443D01*
X145851880Y-71480867D01*
G37*
G04 #@! TD.AperFunction*
D66*
X165663880Y-68895278D02*
X156646021Y-68870572D01*
X156622344Y-65390079D01*
X165663880Y-65365375D01*
X165663880Y-68895278D01*
G04 #@! TA.AperFunction,Conductor*
D67*
G36*
X165663880Y-68895278D02*
G01*
X156646021Y-68870572D01*
X156622344Y-65390079D01*
X165663880Y-65365375D01*
X165663880Y-68895278D01*
G37*
G04 #@! TD.AperFunction*
D66*
X145648921Y-47649925D02*
X140716000Y-47625625D01*
X140716000Y-38442003D01*
X140769582Y-38341760D01*
X140805892Y-38222062D01*
X140818152Y-38097580D01*
X140818152Y-37477580D01*
X140805892Y-37353098D01*
X140769582Y-37233400D01*
X140716000Y-37133157D01*
X140716000Y-36116586D01*
X148907651Y-35972550D01*
X145648921Y-47649925D01*
G04 #@! TA.AperFunction,Conductor*
D67*
G36*
X145648921Y-47649925D02*
G01*
X140716000Y-47625625D01*
X140716000Y-38442003D01*
X140769582Y-38341760D01*
X140805892Y-38222062D01*
X140818152Y-38097580D01*
X140818152Y-37477580D01*
X140805892Y-37353098D01*
X140769582Y-37233400D01*
X140716000Y-37133157D01*
X140716000Y-36116586D01*
X148907651Y-35972550D01*
X145648921Y-47649925D01*
G37*
G04 #@! TD.AperFunction*
D66*
X156616667Y-61874400D02*
X134620268Y-61874400D01*
X134645133Y-50075955D01*
X156641532Y-50050845D01*
X156616667Y-61874400D01*
G04 #@! TA.AperFunction,Conductor*
D67*
G36*
X156616667Y-61874400D02*
G01*
X134620268Y-61874400D01*
X134645133Y-50075955D01*
X156641532Y-50050845D01*
X156616667Y-61874400D01*
G37*
G04 #@! TD.AperFunction*
M02*
