G04 #@! TF.GenerationSoftware,KiCad,Pcbnew,(5.1.10)-1*
G04 #@! TF.CreationDate,2021-10-20T16:57:21-04:00*
G04 #@! TF.ProjectId,Main_Board,4d61696e-5f42-46f6-9172-642e6b696361,rev?*
G04 #@! TF.SameCoordinates,Original*
G04 #@! TF.FileFunction,Soldermask,Top*
G04 #@! TF.FilePolarity,Negative*
%FSLAX46Y46*%
G04 Gerber Fmt 4.6, Leading zero omitted, Abs format (unit mm)*
G04 Created by KiCad (PCBNEW (5.1.10)-1) date 2021-10-20 16:57:21*
%MOMM*%
%LPD*%
G01*
G04 APERTURE LIST*
%ADD10O,1.700000X1.700000*%
%ADD11R,1.700000X1.700000*%
%ADD12C,1.650000*%
%ADD13R,1.650000X1.650000*%
%ADD14R,2.000000X2.000000*%
%ADD15R,0.620000X0.600000*%
%ADD16R,1.000000X3.800000*%
%ADD17R,1.528000X0.650000*%
%ADD18C,4.740000*%
%ADD19C,5.460000*%
%ADD20R,1.000000X1.550000*%
%ADD21R,1.390000X0.910000*%
%ADD22R,0.910000X1.390000*%
%ADD23R,1.100000X1.100000*%
%ADD24C,1.100000*%
%ADD25C,8.600000*%
%ADD26C,0.900000*%
%ADD27R,0.600000X0.620000*%
%ADD28R,0.980000X1.430000*%
%ADD29C,5.000000*%
%ADD30R,1.500000X2.500000*%
%ADD31R,7.000000X7.000000*%
%ADD32R,1.500000X0.800000*%
%ADD33R,1.400000X1.300000*%
%ADD34R,0.950000X1.000000*%
%ADD35R,1.900000X1.400000*%
%ADD36R,1.550000X0.435000*%
%ADD37R,2.209000X3.120000*%
%ADD38R,3.120000X2.209000*%
%ADD39R,0.435000X1.550000*%
%ADD40R,0.950000X1.400000*%
%ADD41R,1.400000X0.950000*%
%ADD42R,1.250000X2.700000*%
%ADD43R,2.900000X1.450000*%
%ADD44R,1.100000X2.700000*%
%ADD45R,0.700000X1.000000*%
%ADD46R,3.400000X1.100000*%
%ADD47R,1.700000X1.100000*%
%ADD48R,1.150000X1.150000*%
%ADD49C,1.150000*%
%ADD50R,0.700000X0.700000*%
%ADD51R,0.360000X0.330000*%
%ADD52R,1.015000X2.540000*%
%ADD53R,1.100000X1.700000*%
%ADD54R,1.200000X0.850000*%
%ADD55R,1.100000X3.400000*%
G04 APERTURE END LIST*
D10*
X88265000Y-39306500D03*
D11*
X88265000Y-41846500D03*
D12*
X147955000Y-98361500D03*
X145415000Y-98361500D03*
X142875000Y-98361500D03*
X140335000Y-98361500D03*
X137795000Y-98361500D03*
X135255000Y-98361500D03*
X132715000Y-98361500D03*
X130175000Y-98361500D03*
X127635000Y-98361500D03*
X125095000Y-98361500D03*
D13*
X122555000Y-98361500D03*
D14*
X163263580Y-59885580D03*
X163263580Y-56710580D03*
D15*
X114965480Y-49367180D03*
X114965480Y-50287180D03*
G36*
G01*
X129507000Y-58537000D02*
X130832000Y-58537000D01*
G75*
G02*
X130907000Y-58612000I0J-75000D01*
G01*
X130907000Y-58762000D01*
G75*
G02*
X130832000Y-58837000I-75000J0D01*
G01*
X129507000Y-58837000D01*
G75*
G02*
X129432000Y-58762000I0J75000D01*
G01*
X129432000Y-58612000D01*
G75*
G02*
X129507000Y-58537000I75000J0D01*
G01*
G37*
G36*
G01*
X129507000Y-59037000D02*
X130832000Y-59037000D01*
G75*
G02*
X130907000Y-59112000I0J-75000D01*
G01*
X130907000Y-59262000D01*
G75*
G02*
X130832000Y-59337000I-75000J0D01*
G01*
X129507000Y-59337000D01*
G75*
G02*
X129432000Y-59262000I0J75000D01*
G01*
X129432000Y-59112000D01*
G75*
G02*
X129507000Y-59037000I75000J0D01*
G01*
G37*
G36*
G01*
X129507000Y-59537000D02*
X130832000Y-59537000D01*
G75*
G02*
X130907000Y-59612000I0J-75000D01*
G01*
X130907000Y-59762000D01*
G75*
G02*
X130832000Y-59837000I-75000J0D01*
G01*
X129507000Y-59837000D01*
G75*
G02*
X129432000Y-59762000I0J75000D01*
G01*
X129432000Y-59612000D01*
G75*
G02*
X129507000Y-59537000I75000J0D01*
G01*
G37*
G36*
G01*
X129507000Y-60037000D02*
X130832000Y-60037000D01*
G75*
G02*
X130907000Y-60112000I0J-75000D01*
G01*
X130907000Y-60262000D01*
G75*
G02*
X130832000Y-60337000I-75000J0D01*
G01*
X129507000Y-60337000D01*
G75*
G02*
X129432000Y-60262000I0J75000D01*
G01*
X129432000Y-60112000D01*
G75*
G02*
X129507000Y-60037000I75000J0D01*
G01*
G37*
G36*
G01*
X129507000Y-60537000D02*
X130832000Y-60537000D01*
G75*
G02*
X130907000Y-60612000I0J-75000D01*
G01*
X130907000Y-60762000D01*
G75*
G02*
X130832000Y-60837000I-75000J0D01*
G01*
X129507000Y-60837000D01*
G75*
G02*
X129432000Y-60762000I0J75000D01*
G01*
X129432000Y-60612000D01*
G75*
G02*
X129507000Y-60537000I75000J0D01*
G01*
G37*
G36*
G01*
X129507000Y-61037000D02*
X130832000Y-61037000D01*
G75*
G02*
X130907000Y-61112000I0J-75000D01*
G01*
X130907000Y-61262000D01*
G75*
G02*
X130832000Y-61337000I-75000J0D01*
G01*
X129507000Y-61337000D01*
G75*
G02*
X129432000Y-61262000I0J75000D01*
G01*
X129432000Y-61112000D01*
G75*
G02*
X129507000Y-61037000I75000J0D01*
G01*
G37*
G36*
G01*
X129507000Y-61537000D02*
X130832000Y-61537000D01*
G75*
G02*
X130907000Y-61612000I0J-75000D01*
G01*
X130907000Y-61762000D01*
G75*
G02*
X130832000Y-61837000I-75000J0D01*
G01*
X129507000Y-61837000D01*
G75*
G02*
X129432000Y-61762000I0J75000D01*
G01*
X129432000Y-61612000D01*
G75*
G02*
X129507000Y-61537000I75000J0D01*
G01*
G37*
G36*
G01*
X129507000Y-62037000D02*
X130832000Y-62037000D01*
G75*
G02*
X130907000Y-62112000I0J-75000D01*
G01*
X130907000Y-62262000D01*
G75*
G02*
X130832000Y-62337000I-75000J0D01*
G01*
X129507000Y-62337000D01*
G75*
G02*
X129432000Y-62262000I0J75000D01*
G01*
X129432000Y-62112000D01*
G75*
G02*
X129507000Y-62037000I75000J0D01*
G01*
G37*
G36*
G01*
X129507000Y-62537000D02*
X130832000Y-62537000D01*
G75*
G02*
X130907000Y-62612000I0J-75000D01*
G01*
X130907000Y-62762000D01*
G75*
G02*
X130832000Y-62837000I-75000J0D01*
G01*
X129507000Y-62837000D01*
G75*
G02*
X129432000Y-62762000I0J75000D01*
G01*
X129432000Y-62612000D01*
G75*
G02*
X129507000Y-62537000I75000J0D01*
G01*
G37*
G36*
G01*
X129507000Y-63037000D02*
X130832000Y-63037000D01*
G75*
G02*
X130907000Y-63112000I0J-75000D01*
G01*
X130907000Y-63262000D01*
G75*
G02*
X130832000Y-63337000I-75000J0D01*
G01*
X129507000Y-63337000D01*
G75*
G02*
X129432000Y-63262000I0J75000D01*
G01*
X129432000Y-63112000D01*
G75*
G02*
X129507000Y-63037000I75000J0D01*
G01*
G37*
G36*
G01*
X129507000Y-63537000D02*
X130832000Y-63537000D01*
G75*
G02*
X130907000Y-63612000I0J-75000D01*
G01*
X130907000Y-63762000D01*
G75*
G02*
X130832000Y-63837000I-75000J0D01*
G01*
X129507000Y-63837000D01*
G75*
G02*
X129432000Y-63762000I0J75000D01*
G01*
X129432000Y-63612000D01*
G75*
G02*
X129507000Y-63537000I75000J0D01*
G01*
G37*
G36*
G01*
X129507000Y-64037000D02*
X130832000Y-64037000D01*
G75*
G02*
X130907000Y-64112000I0J-75000D01*
G01*
X130907000Y-64262000D01*
G75*
G02*
X130832000Y-64337000I-75000J0D01*
G01*
X129507000Y-64337000D01*
G75*
G02*
X129432000Y-64262000I0J75000D01*
G01*
X129432000Y-64112000D01*
G75*
G02*
X129507000Y-64037000I75000J0D01*
G01*
G37*
G36*
G01*
X129507000Y-64537000D02*
X130832000Y-64537000D01*
G75*
G02*
X130907000Y-64612000I0J-75000D01*
G01*
X130907000Y-64762000D01*
G75*
G02*
X130832000Y-64837000I-75000J0D01*
G01*
X129507000Y-64837000D01*
G75*
G02*
X129432000Y-64762000I0J75000D01*
G01*
X129432000Y-64612000D01*
G75*
G02*
X129507000Y-64537000I75000J0D01*
G01*
G37*
G36*
G01*
X129507000Y-65037000D02*
X130832000Y-65037000D01*
G75*
G02*
X130907000Y-65112000I0J-75000D01*
G01*
X130907000Y-65262000D01*
G75*
G02*
X130832000Y-65337000I-75000J0D01*
G01*
X129507000Y-65337000D01*
G75*
G02*
X129432000Y-65262000I0J75000D01*
G01*
X129432000Y-65112000D01*
G75*
G02*
X129507000Y-65037000I75000J0D01*
G01*
G37*
G36*
G01*
X129507000Y-65537000D02*
X130832000Y-65537000D01*
G75*
G02*
X130907000Y-65612000I0J-75000D01*
G01*
X130907000Y-65762000D01*
G75*
G02*
X130832000Y-65837000I-75000J0D01*
G01*
X129507000Y-65837000D01*
G75*
G02*
X129432000Y-65762000I0J75000D01*
G01*
X129432000Y-65612000D01*
G75*
G02*
X129507000Y-65537000I75000J0D01*
G01*
G37*
G36*
G01*
X129507000Y-66037000D02*
X130832000Y-66037000D01*
G75*
G02*
X130907000Y-66112000I0J-75000D01*
G01*
X130907000Y-66262000D01*
G75*
G02*
X130832000Y-66337000I-75000J0D01*
G01*
X129507000Y-66337000D01*
G75*
G02*
X129432000Y-66262000I0J75000D01*
G01*
X129432000Y-66112000D01*
G75*
G02*
X129507000Y-66037000I75000J0D01*
G01*
G37*
G36*
G01*
X129507000Y-66537000D02*
X130832000Y-66537000D01*
G75*
G02*
X130907000Y-66612000I0J-75000D01*
G01*
X130907000Y-66762000D01*
G75*
G02*
X130832000Y-66837000I-75000J0D01*
G01*
X129507000Y-66837000D01*
G75*
G02*
X129432000Y-66762000I0J75000D01*
G01*
X129432000Y-66612000D01*
G75*
G02*
X129507000Y-66537000I75000J0D01*
G01*
G37*
G36*
G01*
X129507000Y-67037000D02*
X130832000Y-67037000D01*
G75*
G02*
X130907000Y-67112000I0J-75000D01*
G01*
X130907000Y-67262000D01*
G75*
G02*
X130832000Y-67337000I-75000J0D01*
G01*
X129507000Y-67337000D01*
G75*
G02*
X129432000Y-67262000I0J75000D01*
G01*
X129432000Y-67112000D01*
G75*
G02*
X129507000Y-67037000I75000J0D01*
G01*
G37*
G36*
G01*
X129507000Y-67537000D02*
X130832000Y-67537000D01*
G75*
G02*
X130907000Y-67612000I0J-75000D01*
G01*
X130907000Y-67762000D01*
G75*
G02*
X130832000Y-67837000I-75000J0D01*
G01*
X129507000Y-67837000D01*
G75*
G02*
X129432000Y-67762000I0J75000D01*
G01*
X129432000Y-67612000D01*
G75*
G02*
X129507000Y-67537000I75000J0D01*
G01*
G37*
G36*
G01*
X129507000Y-68037000D02*
X130832000Y-68037000D01*
G75*
G02*
X130907000Y-68112000I0J-75000D01*
G01*
X130907000Y-68262000D01*
G75*
G02*
X130832000Y-68337000I-75000J0D01*
G01*
X129507000Y-68337000D01*
G75*
G02*
X129432000Y-68262000I0J75000D01*
G01*
X129432000Y-68112000D01*
G75*
G02*
X129507000Y-68037000I75000J0D01*
G01*
G37*
G36*
G01*
X129507000Y-68537000D02*
X130832000Y-68537000D01*
G75*
G02*
X130907000Y-68612000I0J-75000D01*
G01*
X130907000Y-68762000D01*
G75*
G02*
X130832000Y-68837000I-75000J0D01*
G01*
X129507000Y-68837000D01*
G75*
G02*
X129432000Y-68762000I0J75000D01*
G01*
X129432000Y-68612000D01*
G75*
G02*
X129507000Y-68537000I75000J0D01*
G01*
G37*
G36*
G01*
X129507000Y-69037000D02*
X130832000Y-69037000D01*
G75*
G02*
X130907000Y-69112000I0J-75000D01*
G01*
X130907000Y-69262000D01*
G75*
G02*
X130832000Y-69337000I-75000J0D01*
G01*
X129507000Y-69337000D01*
G75*
G02*
X129432000Y-69262000I0J75000D01*
G01*
X129432000Y-69112000D01*
G75*
G02*
X129507000Y-69037000I75000J0D01*
G01*
G37*
G36*
G01*
X129507000Y-69537000D02*
X130832000Y-69537000D01*
G75*
G02*
X130907000Y-69612000I0J-75000D01*
G01*
X130907000Y-69762000D01*
G75*
G02*
X130832000Y-69837000I-75000J0D01*
G01*
X129507000Y-69837000D01*
G75*
G02*
X129432000Y-69762000I0J75000D01*
G01*
X129432000Y-69612000D01*
G75*
G02*
X129507000Y-69537000I75000J0D01*
G01*
G37*
G36*
G01*
X129507000Y-70037000D02*
X130832000Y-70037000D01*
G75*
G02*
X130907000Y-70112000I0J-75000D01*
G01*
X130907000Y-70262000D01*
G75*
G02*
X130832000Y-70337000I-75000J0D01*
G01*
X129507000Y-70337000D01*
G75*
G02*
X129432000Y-70262000I0J75000D01*
G01*
X129432000Y-70112000D01*
G75*
G02*
X129507000Y-70037000I75000J0D01*
G01*
G37*
G36*
G01*
X129507000Y-70537000D02*
X130832000Y-70537000D01*
G75*
G02*
X130907000Y-70612000I0J-75000D01*
G01*
X130907000Y-70762000D01*
G75*
G02*
X130832000Y-70837000I-75000J0D01*
G01*
X129507000Y-70837000D01*
G75*
G02*
X129432000Y-70762000I0J75000D01*
G01*
X129432000Y-70612000D01*
G75*
G02*
X129507000Y-70537000I75000J0D01*
G01*
G37*
G36*
G01*
X129507000Y-71037000D02*
X130832000Y-71037000D01*
G75*
G02*
X130907000Y-71112000I0J-75000D01*
G01*
X130907000Y-71262000D01*
G75*
G02*
X130832000Y-71337000I-75000J0D01*
G01*
X129507000Y-71337000D01*
G75*
G02*
X129432000Y-71262000I0J75000D01*
G01*
X129432000Y-71112000D01*
G75*
G02*
X129507000Y-71037000I75000J0D01*
G01*
G37*
G36*
G01*
X129507000Y-71537000D02*
X130832000Y-71537000D01*
G75*
G02*
X130907000Y-71612000I0J-75000D01*
G01*
X130907000Y-71762000D01*
G75*
G02*
X130832000Y-71837000I-75000J0D01*
G01*
X129507000Y-71837000D01*
G75*
G02*
X129432000Y-71762000I0J75000D01*
G01*
X129432000Y-71612000D01*
G75*
G02*
X129507000Y-71537000I75000J0D01*
G01*
G37*
G36*
G01*
X129507000Y-72037000D02*
X130832000Y-72037000D01*
G75*
G02*
X130907000Y-72112000I0J-75000D01*
G01*
X130907000Y-72262000D01*
G75*
G02*
X130832000Y-72337000I-75000J0D01*
G01*
X129507000Y-72337000D01*
G75*
G02*
X129432000Y-72262000I0J75000D01*
G01*
X129432000Y-72112000D01*
G75*
G02*
X129507000Y-72037000I75000J0D01*
G01*
G37*
G36*
G01*
X129507000Y-72537000D02*
X130832000Y-72537000D01*
G75*
G02*
X130907000Y-72612000I0J-75000D01*
G01*
X130907000Y-72762000D01*
G75*
G02*
X130832000Y-72837000I-75000J0D01*
G01*
X129507000Y-72837000D01*
G75*
G02*
X129432000Y-72762000I0J75000D01*
G01*
X129432000Y-72612000D01*
G75*
G02*
X129507000Y-72537000I75000J0D01*
G01*
G37*
G36*
G01*
X129507000Y-73037000D02*
X130832000Y-73037000D01*
G75*
G02*
X130907000Y-73112000I0J-75000D01*
G01*
X130907000Y-73262000D01*
G75*
G02*
X130832000Y-73337000I-75000J0D01*
G01*
X129507000Y-73337000D01*
G75*
G02*
X129432000Y-73262000I0J75000D01*
G01*
X129432000Y-73112000D01*
G75*
G02*
X129507000Y-73037000I75000J0D01*
G01*
G37*
G36*
G01*
X129507000Y-73537000D02*
X130832000Y-73537000D01*
G75*
G02*
X130907000Y-73612000I0J-75000D01*
G01*
X130907000Y-73762000D01*
G75*
G02*
X130832000Y-73837000I-75000J0D01*
G01*
X129507000Y-73837000D01*
G75*
G02*
X129432000Y-73762000I0J75000D01*
G01*
X129432000Y-73612000D01*
G75*
G02*
X129507000Y-73537000I75000J0D01*
G01*
G37*
G36*
G01*
X129507000Y-74037000D02*
X130832000Y-74037000D01*
G75*
G02*
X130907000Y-74112000I0J-75000D01*
G01*
X130907000Y-74262000D01*
G75*
G02*
X130832000Y-74337000I-75000J0D01*
G01*
X129507000Y-74337000D01*
G75*
G02*
X129432000Y-74262000I0J75000D01*
G01*
X129432000Y-74112000D01*
G75*
G02*
X129507000Y-74037000I75000J0D01*
G01*
G37*
G36*
G01*
X129507000Y-74537000D02*
X130832000Y-74537000D01*
G75*
G02*
X130907000Y-74612000I0J-75000D01*
G01*
X130907000Y-74762000D01*
G75*
G02*
X130832000Y-74837000I-75000J0D01*
G01*
X129507000Y-74837000D01*
G75*
G02*
X129432000Y-74762000I0J75000D01*
G01*
X129432000Y-74612000D01*
G75*
G02*
X129507000Y-74537000I75000J0D01*
G01*
G37*
G36*
G01*
X129507000Y-75037000D02*
X130832000Y-75037000D01*
G75*
G02*
X130907000Y-75112000I0J-75000D01*
G01*
X130907000Y-75262000D01*
G75*
G02*
X130832000Y-75337000I-75000J0D01*
G01*
X129507000Y-75337000D01*
G75*
G02*
X129432000Y-75262000I0J75000D01*
G01*
X129432000Y-75112000D01*
G75*
G02*
X129507000Y-75037000I75000J0D01*
G01*
G37*
G36*
G01*
X129507000Y-75537000D02*
X130832000Y-75537000D01*
G75*
G02*
X130907000Y-75612000I0J-75000D01*
G01*
X130907000Y-75762000D01*
G75*
G02*
X130832000Y-75837000I-75000J0D01*
G01*
X129507000Y-75837000D01*
G75*
G02*
X129432000Y-75762000I0J75000D01*
G01*
X129432000Y-75612000D01*
G75*
G02*
X129507000Y-75537000I75000J0D01*
G01*
G37*
G36*
G01*
X129507000Y-76037000D02*
X130832000Y-76037000D01*
G75*
G02*
X130907000Y-76112000I0J-75000D01*
G01*
X130907000Y-76262000D01*
G75*
G02*
X130832000Y-76337000I-75000J0D01*
G01*
X129507000Y-76337000D01*
G75*
G02*
X129432000Y-76262000I0J75000D01*
G01*
X129432000Y-76112000D01*
G75*
G02*
X129507000Y-76037000I75000J0D01*
G01*
G37*
G36*
G01*
X128182000Y-77362000D02*
X128332000Y-77362000D01*
G75*
G02*
X128407000Y-77437000I0J-75000D01*
G01*
X128407000Y-78762000D01*
G75*
G02*
X128332000Y-78837000I-75000J0D01*
G01*
X128182000Y-78837000D01*
G75*
G02*
X128107000Y-78762000I0J75000D01*
G01*
X128107000Y-77437000D01*
G75*
G02*
X128182000Y-77362000I75000J0D01*
G01*
G37*
G36*
G01*
X127682000Y-77362000D02*
X127832000Y-77362000D01*
G75*
G02*
X127907000Y-77437000I0J-75000D01*
G01*
X127907000Y-78762000D01*
G75*
G02*
X127832000Y-78837000I-75000J0D01*
G01*
X127682000Y-78837000D01*
G75*
G02*
X127607000Y-78762000I0J75000D01*
G01*
X127607000Y-77437000D01*
G75*
G02*
X127682000Y-77362000I75000J0D01*
G01*
G37*
G36*
G01*
X127182000Y-77362000D02*
X127332000Y-77362000D01*
G75*
G02*
X127407000Y-77437000I0J-75000D01*
G01*
X127407000Y-78762000D01*
G75*
G02*
X127332000Y-78837000I-75000J0D01*
G01*
X127182000Y-78837000D01*
G75*
G02*
X127107000Y-78762000I0J75000D01*
G01*
X127107000Y-77437000D01*
G75*
G02*
X127182000Y-77362000I75000J0D01*
G01*
G37*
G36*
G01*
X126682000Y-77362000D02*
X126832000Y-77362000D01*
G75*
G02*
X126907000Y-77437000I0J-75000D01*
G01*
X126907000Y-78762000D01*
G75*
G02*
X126832000Y-78837000I-75000J0D01*
G01*
X126682000Y-78837000D01*
G75*
G02*
X126607000Y-78762000I0J75000D01*
G01*
X126607000Y-77437000D01*
G75*
G02*
X126682000Y-77362000I75000J0D01*
G01*
G37*
G36*
G01*
X126182000Y-77362000D02*
X126332000Y-77362000D01*
G75*
G02*
X126407000Y-77437000I0J-75000D01*
G01*
X126407000Y-78762000D01*
G75*
G02*
X126332000Y-78837000I-75000J0D01*
G01*
X126182000Y-78837000D01*
G75*
G02*
X126107000Y-78762000I0J75000D01*
G01*
X126107000Y-77437000D01*
G75*
G02*
X126182000Y-77362000I75000J0D01*
G01*
G37*
G36*
G01*
X125682000Y-77362000D02*
X125832000Y-77362000D01*
G75*
G02*
X125907000Y-77437000I0J-75000D01*
G01*
X125907000Y-78762000D01*
G75*
G02*
X125832000Y-78837000I-75000J0D01*
G01*
X125682000Y-78837000D01*
G75*
G02*
X125607000Y-78762000I0J75000D01*
G01*
X125607000Y-77437000D01*
G75*
G02*
X125682000Y-77362000I75000J0D01*
G01*
G37*
G36*
G01*
X125182000Y-77362000D02*
X125332000Y-77362000D01*
G75*
G02*
X125407000Y-77437000I0J-75000D01*
G01*
X125407000Y-78762000D01*
G75*
G02*
X125332000Y-78837000I-75000J0D01*
G01*
X125182000Y-78837000D01*
G75*
G02*
X125107000Y-78762000I0J75000D01*
G01*
X125107000Y-77437000D01*
G75*
G02*
X125182000Y-77362000I75000J0D01*
G01*
G37*
G36*
G01*
X124682000Y-77362000D02*
X124832000Y-77362000D01*
G75*
G02*
X124907000Y-77437000I0J-75000D01*
G01*
X124907000Y-78762000D01*
G75*
G02*
X124832000Y-78837000I-75000J0D01*
G01*
X124682000Y-78837000D01*
G75*
G02*
X124607000Y-78762000I0J75000D01*
G01*
X124607000Y-77437000D01*
G75*
G02*
X124682000Y-77362000I75000J0D01*
G01*
G37*
G36*
G01*
X124182000Y-77362000D02*
X124332000Y-77362000D01*
G75*
G02*
X124407000Y-77437000I0J-75000D01*
G01*
X124407000Y-78762000D01*
G75*
G02*
X124332000Y-78837000I-75000J0D01*
G01*
X124182000Y-78837000D01*
G75*
G02*
X124107000Y-78762000I0J75000D01*
G01*
X124107000Y-77437000D01*
G75*
G02*
X124182000Y-77362000I75000J0D01*
G01*
G37*
G36*
G01*
X123682000Y-77362000D02*
X123832000Y-77362000D01*
G75*
G02*
X123907000Y-77437000I0J-75000D01*
G01*
X123907000Y-78762000D01*
G75*
G02*
X123832000Y-78837000I-75000J0D01*
G01*
X123682000Y-78837000D01*
G75*
G02*
X123607000Y-78762000I0J75000D01*
G01*
X123607000Y-77437000D01*
G75*
G02*
X123682000Y-77362000I75000J0D01*
G01*
G37*
G36*
G01*
X123182000Y-77362000D02*
X123332000Y-77362000D01*
G75*
G02*
X123407000Y-77437000I0J-75000D01*
G01*
X123407000Y-78762000D01*
G75*
G02*
X123332000Y-78837000I-75000J0D01*
G01*
X123182000Y-78837000D01*
G75*
G02*
X123107000Y-78762000I0J75000D01*
G01*
X123107000Y-77437000D01*
G75*
G02*
X123182000Y-77362000I75000J0D01*
G01*
G37*
G36*
G01*
X122682000Y-77362000D02*
X122832000Y-77362000D01*
G75*
G02*
X122907000Y-77437000I0J-75000D01*
G01*
X122907000Y-78762000D01*
G75*
G02*
X122832000Y-78837000I-75000J0D01*
G01*
X122682000Y-78837000D01*
G75*
G02*
X122607000Y-78762000I0J75000D01*
G01*
X122607000Y-77437000D01*
G75*
G02*
X122682000Y-77362000I75000J0D01*
G01*
G37*
G36*
G01*
X122182000Y-77362000D02*
X122332000Y-77362000D01*
G75*
G02*
X122407000Y-77437000I0J-75000D01*
G01*
X122407000Y-78762000D01*
G75*
G02*
X122332000Y-78837000I-75000J0D01*
G01*
X122182000Y-78837000D01*
G75*
G02*
X122107000Y-78762000I0J75000D01*
G01*
X122107000Y-77437000D01*
G75*
G02*
X122182000Y-77362000I75000J0D01*
G01*
G37*
G36*
G01*
X121682000Y-77362000D02*
X121832000Y-77362000D01*
G75*
G02*
X121907000Y-77437000I0J-75000D01*
G01*
X121907000Y-78762000D01*
G75*
G02*
X121832000Y-78837000I-75000J0D01*
G01*
X121682000Y-78837000D01*
G75*
G02*
X121607000Y-78762000I0J75000D01*
G01*
X121607000Y-77437000D01*
G75*
G02*
X121682000Y-77362000I75000J0D01*
G01*
G37*
G36*
G01*
X121182000Y-77362000D02*
X121332000Y-77362000D01*
G75*
G02*
X121407000Y-77437000I0J-75000D01*
G01*
X121407000Y-78762000D01*
G75*
G02*
X121332000Y-78837000I-75000J0D01*
G01*
X121182000Y-78837000D01*
G75*
G02*
X121107000Y-78762000I0J75000D01*
G01*
X121107000Y-77437000D01*
G75*
G02*
X121182000Y-77362000I75000J0D01*
G01*
G37*
G36*
G01*
X120682000Y-77362000D02*
X120832000Y-77362000D01*
G75*
G02*
X120907000Y-77437000I0J-75000D01*
G01*
X120907000Y-78762000D01*
G75*
G02*
X120832000Y-78837000I-75000J0D01*
G01*
X120682000Y-78837000D01*
G75*
G02*
X120607000Y-78762000I0J75000D01*
G01*
X120607000Y-77437000D01*
G75*
G02*
X120682000Y-77362000I75000J0D01*
G01*
G37*
G36*
G01*
X120182000Y-77362000D02*
X120332000Y-77362000D01*
G75*
G02*
X120407000Y-77437000I0J-75000D01*
G01*
X120407000Y-78762000D01*
G75*
G02*
X120332000Y-78837000I-75000J0D01*
G01*
X120182000Y-78837000D01*
G75*
G02*
X120107000Y-78762000I0J75000D01*
G01*
X120107000Y-77437000D01*
G75*
G02*
X120182000Y-77362000I75000J0D01*
G01*
G37*
G36*
G01*
X119682000Y-77362000D02*
X119832000Y-77362000D01*
G75*
G02*
X119907000Y-77437000I0J-75000D01*
G01*
X119907000Y-78762000D01*
G75*
G02*
X119832000Y-78837000I-75000J0D01*
G01*
X119682000Y-78837000D01*
G75*
G02*
X119607000Y-78762000I0J75000D01*
G01*
X119607000Y-77437000D01*
G75*
G02*
X119682000Y-77362000I75000J0D01*
G01*
G37*
G36*
G01*
X119182000Y-77362000D02*
X119332000Y-77362000D01*
G75*
G02*
X119407000Y-77437000I0J-75000D01*
G01*
X119407000Y-78762000D01*
G75*
G02*
X119332000Y-78837000I-75000J0D01*
G01*
X119182000Y-78837000D01*
G75*
G02*
X119107000Y-78762000I0J75000D01*
G01*
X119107000Y-77437000D01*
G75*
G02*
X119182000Y-77362000I75000J0D01*
G01*
G37*
G36*
G01*
X118682000Y-77362000D02*
X118832000Y-77362000D01*
G75*
G02*
X118907000Y-77437000I0J-75000D01*
G01*
X118907000Y-78762000D01*
G75*
G02*
X118832000Y-78837000I-75000J0D01*
G01*
X118682000Y-78837000D01*
G75*
G02*
X118607000Y-78762000I0J75000D01*
G01*
X118607000Y-77437000D01*
G75*
G02*
X118682000Y-77362000I75000J0D01*
G01*
G37*
G36*
G01*
X118182000Y-77362000D02*
X118332000Y-77362000D01*
G75*
G02*
X118407000Y-77437000I0J-75000D01*
G01*
X118407000Y-78762000D01*
G75*
G02*
X118332000Y-78837000I-75000J0D01*
G01*
X118182000Y-78837000D01*
G75*
G02*
X118107000Y-78762000I0J75000D01*
G01*
X118107000Y-77437000D01*
G75*
G02*
X118182000Y-77362000I75000J0D01*
G01*
G37*
G36*
G01*
X117682000Y-77362000D02*
X117832000Y-77362000D01*
G75*
G02*
X117907000Y-77437000I0J-75000D01*
G01*
X117907000Y-78762000D01*
G75*
G02*
X117832000Y-78837000I-75000J0D01*
G01*
X117682000Y-78837000D01*
G75*
G02*
X117607000Y-78762000I0J75000D01*
G01*
X117607000Y-77437000D01*
G75*
G02*
X117682000Y-77362000I75000J0D01*
G01*
G37*
G36*
G01*
X117182000Y-77362000D02*
X117332000Y-77362000D01*
G75*
G02*
X117407000Y-77437000I0J-75000D01*
G01*
X117407000Y-78762000D01*
G75*
G02*
X117332000Y-78837000I-75000J0D01*
G01*
X117182000Y-78837000D01*
G75*
G02*
X117107000Y-78762000I0J75000D01*
G01*
X117107000Y-77437000D01*
G75*
G02*
X117182000Y-77362000I75000J0D01*
G01*
G37*
G36*
G01*
X116682000Y-77362000D02*
X116832000Y-77362000D01*
G75*
G02*
X116907000Y-77437000I0J-75000D01*
G01*
X116907000Y-78762000D01*
G75*
G02*
X116832000Y-78837000I-75000J0D01*
G01*
X116682000Y-78837000D01*
G75*
G02*
X116607000Y-78762000I0J75000D01*
G01*
X116607000Y-77437000D01*
G75*
G02*
X116682000Y-77362000I75000J0D01*
G01*
G37*
G36*
G01*
X116182000Y-77362000D02*
X116332000Y-77362000D01*
G75*
G02*
X116407000Y-77437000I0J-75000D01*
G01*
X116407000Y-78762000D01*
G75*
G02*
X116332000Y-78837000I-75000J0D01*
G01*
X116182000Y-78837000D01*
G75*
G02*
X116107000Y-78762000I0J75000D01*
G01*
X116107000Y-77437000D01*
G75*
G02*
X116182000Y-77362000I75000J0D01*
G01*
G37*
G36*
G01*
X115682000Y-77362000D02*
X115832000Y-77362000D01*
G75*
G02*
X115907000Y-77437000I0J-75000D01*
G01*
X115907000Y-78762000D01*
G75*
G02*
X115832000Y-78837000I-75000J0D01*
G01*
X115682000Y-78837000D01*
G75*
G02*
X115607000Y-78762000I0J75000D01*
G01*
X115607000Y-77437000D01*
G75*
G02*
X115682000Y-77362000I75000J0D01*
G01*
G37*
G36*
G01*
X115182000Y-77362000D02*
X115332000Y-77362000D01*
G75*
G02*
X115407000Y-77437000I0J-75000D01*
G01*
X115407000Y-78762000D01*
G75*
G02*
X115332000Y-78837000I-75000J0D01*
G01*
X115182000Y-78837000D01*
G75*
G02*
X115107000Y-78762000I0J75000D01*
G01*
X115107000Y-77437000D01*
G75*
G02*
X115182000Y-77362000I75000J0D01*
G01*
G37*
G36*
G01*
X114682000Y-77362000D02*
X114832000Y-77362000D01*
G75*
G02*
X114907000Y-77437000I0J-75000D01*
G01*
X114907000Y-78762000D01*
G75*
G02*
X114832000Y-78837000I-75000J0D01*
G01*
X114682000Y-78837000D01*
G75*
G02*
X114607000Y-78762000I0J75000D01*
G01*
X114607000Y-77437000D01*
G75*
G02*
X114682000Y-77362000I75000J0D01*
G01*
G37*
G36*
G01*
X114182000Y-77362000D02*
X114332000Y-77362000D01*
G75*
G02*
X114407000Y-77437000I0J-75000D01*
G01*
X114407000Y-78762000D01*
G75*
G02*
X114332000Y-78837000I-75000J0D01*
G01*
X114182000Y-78837000D01*
G75*
G02*
X114107000Y-78762000I0J75000D01*
G01*
X114107000Y-77437000D01*
G75*
G02*
X114182000Y-77362000I75000J0D01*
G01*
G37*
G36*
G01*
X113682000Y-77362000D02*
X113832000Y-77362000D01*
G75*
G02*
X113907000Y-77437000I0J-75000D01*
G01*
X113907000Y-78762000D01*
G75*
G02*
X113832000Y-78837000I-75000J0D01*
G01*
X113682000Y-78837000D01*
G75*
G02*
X113607000Y-78762000I0J75000D01*
G01*
X113607000Y-77437000D01*
G75*
G02*
X113682000Y-77362000I75000J0D01*
G01*
G37*
G36*
G01*
X113182000Y-77362000D02*
X113332000Y-77362000D01*
G75*
G02*
X113407000Y-77437000I0J-75000D01*
G01*
X113407000Y-78762000D01*
G75*
G02*
X113332000Y-78837000I-75000J0D01*
G01*
X113182000Y-78837000D01*
G75*
G02*
X113107000Y-78762000I0J75000D01*
G01*
X113107000Y-77437000D01*
G75*
G02*
X113182000Y-77362000I75000J0D01*
G01*
G37*
G36*
G01*
X112682000Y-77362000D02*
X112832000Y-77362000D01*
G75*
G02*
X112907000Y-77437000I0J-75000D01*
G01*
X112907000Y-78762000D01*
G75*
G02*
X112832000Y-78837000I-75000J0D01*
G01*
X112682000Y-78837000D01*
G75*
G02*
X112607000Y-78762000I0J75000D01*
G01*
X112607000Y-77437000D01*
G75*
G02*
X112682000Y-77362000I75000J0D01*
G01*
G37*
G36*
G01*
X112182000Y-77362000D02*
X112332000Y-77362000D01*
G75*
G02*
X112407000Y-77437000I0J-75000D01*
G01*
X112407000Y-78762000D01*
G75*
G02*
X112332000Y-78837000I-75000J0D01*
G01*
X112182000Y-78837000D01*
G75*
G02*
X112107000Y-78762000I0J75000D01*
G01*
X112107000Y-77437000D01*
G75*
G02*
X112182000Y-77362000I75000J0D01*
G01*
G37*
G36*
G01*
X111682000Y-77362000D02*
X111832000Y-77362000D01*
G75*
G02*
X111907000Y-77437000I0J-75000D01*
G01*
X111907000Y-78762000D01*
G75*
G02*
X111832000Y-78837000I-75000J0D01*
G01*
X111682000Y-78837000D01*
G75*
G02*
X111607000Y-78762000I0J75000D01*
G01*
X111607000Y-77437000D01*
G75*
G02*
X111682000Y-77362000I75000J0D01*
G01*
G37*
G36*
G01*
X111182000Y-77362000D02*
X111332000Y-77362000D01*
G75*
G02*
X111407000Y-77437000I0J-75000D01*
G01*
X111407000Y-78762000D01*
G75*
G02*
X111332000Y-78837000I-75000J0D01*
G01*
X111182000Y-78837000D01*
G75*
G02*
X111107000Y-78762000I0J75000D01*
G01*
X111107000Y-77437000D01*
G75*
G02*
X111182000Y-77362000I75000J0D01*
G01*
G37*
G36*
G01*
X110682000Y-77362000D02*
X110832000Y-77362000D01*
G75*
G02*
X110907000Y-77437000I0J-75000D01*
G01*
X110907000Y-78762000D01*
G75*
G02*
X110832000Y-78837000I-75000J0D01*
G01*
X110682000Y-78837000D01*
G75*
G02*
X110607000Y-78762000I0J75000D01*
G01*
X110607000Y-77437000D01*
G75*
G02*
X110682000Y-77362000I75000J0D01*
G01*
G37*
G36*
G01*
X108182000Y-76037000D02*
X109507000Y-76037000D01*
G75*
G02*
X109582000Y-76112000I0J-75000D01*
G01*
X109582000Y-76262000D01*
G75*
G02*
X109507000Y-76337000I-75000J0D01*
G01*
X108182000Y-76337000D01*
G75*
G02*
X108107000Y-76262000I0J75000D01*
G01*
X108107000Y-76112000D01*
G75*
G02*
X108182000Y-76037000I75000J0D01*
G01*
G37*
G36*
G01*
X108182000Y-75537000D02*
X109507000Y-75537000D01*
G75*
G02*
X109582000Y-75612000I0J-75000D01*
G01*
X109582000Y-75762000D01*
G75*
G02*
X109507000Y-75837000I-75000J0D01*
G01*
X108182000Y-75837000D01*
G75*
G02*
X108107000Y-75762000I0J75000D01*
G01*
X108107000Y-75612000D01*
G75*
G02*
X108182000Y-75537000I75000J0D01*
G01*
G37*
G36*
G01*
X108182000Y-75037000D02*
X109507000Y-75037000D01*
G75*
G02*
X109582000Y-75112000I0J-75000D01*
G01*
X109582000Y-75262000D01*
G75*
G02*
X109507000Y-75337000I-75000J0D01*
G01*
X108182000Y-75337000D01*
G75*
G02*
X108107000Y-75262000I0J75000D01*
G01*
X108107000Y-75112000D01*
G75*
G02*
X108182000Y-75037000I75000J0D01*
G01*
G37*
G36*
G01*
X108182000Y-74537000D02*
X109507000Y-74537000D01*
G75*
G02*
X109582000Y-74612000I0J-75000D01*
G01*
X109582000Y-74762000D01*
G75*
G02*
X109507000Y-74837000I-75000J0D01*
G01*
X108182000Y-74837000D01*
G75*
G02*
X108107000Y-74762000I0J75000D01*
G01*
X108107000Y-74612000D01*
G75*
G02*
X108182000Y-74537000I75000J0D01*
G01*
G37*
G36*
G01*
X108182000Y-74037000D02*
X109507000Y-74037000D01*
G75*
G02*
X109582000Y-74112000I0J-75000D01*
G01*
X109582000Y-74262000D01*
G75*
G02*
X109507000Y-74337000I-75000J0D01*
G01*
X108182000Y-74337000D01*
G75*
G02*
X108107000Y-74262000I0J75000D01*
G01*
X108107000Y-74112000D01*
G75*
G02*
X108182000Y-74037000I75000J0D01*
G01*
G37*
G36*
G01*
X108182000Y-73537000D02*
X109507000Y-73537000D01*
G75*
G02*
X109582000Y-73612000I0J-75000D01*
G01*
X109582000Y-73762000D01*
G75*
G02*
X109507000Y-73837000I-75000J0D01*
G01*
X108182000Y-73837000D01*
G75*
G02*
X108107000Y-73762000I0J75000D01*
G01*
X108107000Y-73612000D01*
G75*
G02*
X108182000Y-73537000I75000J0D01*
G01*
G37*
G36*
G01*
X108182000Y-73037000D02*
X109507000Y-73037000D01*
G75*
G02*
X109582000Y-73112000I0J-75000D01*
G01*
X109582000Y-73262000D01*
G75*
G02*
X109507000Y-73337000I-75000J0D01*
G01*
X108182000Y-73337000D01*
G75*
G02*
X108107000Y-73262000I0J75000D01*
G01*
X108107000Y-73112000D01*
G75*
G02*
X108182000Y-73037000I75000J0D01*
G01*
G37*
G36*
G01*
X108182000Y-72537000D02*
X109507000Y-72537000D01*
G75*
G02*
X109582000Y-72612000I0J-75000D01*
G01*
X109582000Y-72762000D01*
G75*
G02*
X109507000Y-72837000I-75000J0D01*
G01*
X108182000Y-72837000D01*
G75*
G02*
X108107000Y-72762000I0J75000D01*
G01*
X108107000Y-72612000D01*
G75*
G02*
X108182000Y-72537000I75000J0D01*
G01*
G37*
G36*
G01*
X108182000Y-72037000D02*
X109507000Y-72037000D01*
G75*
G02*
X109582000Y-72112000I0J-75000D01*
G01*
X109582000Y-72262000D01*
G75*
G02*
X109507000Y-72337000I-75000J0D01*
G01*
X108182000Y-72337000D01*
G75*
G02*
X108107000Y-72262000I0J75000D01*
G01*
X108107000Y-72112000D01*
G75*
G02*
X108182000Y-72037000I75000J0D01*
G01*
G37*
G36*
G01*
X108182000Y-71537000D02*
X109507000Y-71537000D01*
G75*
G02*
X109582000Y-71612000I0J-75000D01*
G01*
X109582000Y-71762000D01*
G75*
G02*
X109507000Y-71837000I-75000J0D01*
G01*
X108182000Y-71837000D01*
G75*
G02*
X108107000Y-71762000I0J75000D01*
G01*
X108107000Y-71612000D01*
G75*
G02*
X108182000Y-71537000I75000J0D01*
G01*
G37*
G36*
G01*
X108182000Y-71037000D02*
X109507000Y-71037000D01*
G75*
G02*
X109582000Y-71112000I0J-75000D01*
G01*
X109582000Y-71262000D01*
G75*
G02*
X109507000Y-71337000I-75000J0D01*
G01*
X108182000Y-71337000D01*
G75*
G02*
X108107000Y-71262000I0J75000D01*
G01*
X108107000Y-71112000D01*
G75*
G02*
X108182000Y-71037000I75000J0D01*
G01*
G37*
G36*
G01*
X108182000Y-70537000D02*
X109507000Y-70537000D01*
G75*
G02*
X109582000Y-70612000I0J-75000D01*
G01*
X109582000Y-70762000D01*
G75*
G02*
X109507000Y-70837000I-75000J0D01*
G01*
X108182000Y-70837000D01*
G75*
G02*
X108107000Y-70762000I0J75000D01*
G01*
X108107000Y-70612000D01*
G75*
G02*
X108182000Y-70537000I75000J0D01*
G01*
G37*
G36*
G01*
X108182000Y-70037000D02*
X109507000Y-70037000D01*
G75*
G02*
X109582000Y-70112000I0J-75000D01*
G01*
X109582000Y-70262000D01*
G75*
G02*
X109507000Y-70337000I-75000J0D01*
G01*
X108182000Y-70337000D01*
G75*
G02*
X108107000Y-70262000I0J75000D01*
G01*
X108107000Y-70112000D01*
G75*
G02*
X108182000Y-70037000I75000J0D01*
G01*
G37*
G36*
G01*
X108182000Y-69537000D02*
X109507000Y-69537000D01*
G75*
G02*
X109582000Y-69612000I0J-75000D01*
G01*
X109582000Y-69762000D01*
G75*
G02*
X109507000Y-69837000I-75000J0D01*
G01*
X108182000Y-69837000D01*
G75*
G02*
X108107000Y-69762000I0J75000D01*
G01*
X108107000Y-69612000D01*
G75*
G02*
X108182000Y-69537000I75000J0D01*
G01*
G37*
G36*
G01*
X108182000Y-69037000D02*
X109507000Y-69037000D01*
G75*
G02*
X109582000Y-69112000I0J-75000D01*
G01*
X109582000Y-69262000D01*
G75*
G02*
X109507000Y-69337000I-75000J0D01*
G01*
X108182000Y-69337000D01*
G75*
G02*
X108107000Y-69262000I0J75000D01*
G01*
X108107000Y-69112000D01*
G75*
G02*
X108182000Y-69037000I75000J0D01*
G01*
G37*
G36*
G01*
X108182000Y-68537000D02*
X109507000Y-68537000D01*
G75*
G02*
X109582000Y-68612000I0J-75000D01*
G01*
X109582000Y-68762000D01*
G75*
G02*
X109507000Y-68837000I-75000J0D01*
G01*
X108182000Y-68837000D01*
G75*
G02*
X108107000Y-68762000I0J75000D01*
G01*
X108107000Y-68612000D01*
G75*
G02*
X108182000Y-68537000I75000J0D01*
G01*
G37*
G36*
G01*
X108182000Y-68037000D02*
X109507000Y-68037000D01*
G75*
G02*
X109582000Y-68112000I0J-75000D01*
G01*
X109582000Y-68262000D01*
G75*
G02*
X109507000Y-68337000I-75000J0D01*
G01*
X108182000Y-68337000D01*
G75*
G02*
X108107000Y-68262000I0J75000D01*
G01*
X108107000Y-68112000D01*
G75*
G02*
X108182000Y-68037000I75000J0D01*
G01*
G37*
G36*
G01*
X108182000Y-67537000D02*
X109507000Y-67537000D01*
G75*
G02*
X109582000Y-67612000I0J-75000D01*
G01*
X109582000Y-67762000D01*
G75*
G02*
X109507000Y-67837000I-75000J0D01*
G01*
X108182000Y-67837000D01*
G75*
G02*
X108107000Y-67762000I0J75000D01*
G01*
X108107000Y-67612000D01*
G75*
G02*
X108182000Y-67537000I75000J0D01*
G01*
G37*
G36*
G01*
X108182000Y-67037000D02*
X109507000Y-67037000D01*
G75*
G02*
X109582000Y-67112000I0J-75000D01*
G01*
X109582000Y-67262000D01*
G75*
G02*
X109507000Y-67337000I-75000J0D01*
G01*
X108182000Y-67337000D01*
G75*
G02*
X108107000Y-67262000I0J75000D01*
G01*
X108107000Y-67112000D01*
G75*
G02*
X108182000Y-67037000I75000J0D01*
G01*
G37*
G36*
G01*
X108182000Y-66537000D02*
X109507000Y-66537000D01*
G75*
G02*
X109582000Y-66612000I0J-75000D01*
G01*
X109582000Y-66762000D01*
G75*
G02*
X109507000Y-66837000I-75000J0D01*
G01*
X108182000Y-66837000D01*
G75*
G02*
X108107000Y-66762000I0J75000D01*
G01*
X108107000Y-66612000D01*
G75*
G02*
X108182000Y-66537000I75000J0D01*
G01*
G37*
G36*
G01*
X108182000Y-66037000D02*
X109507000Y-66037000D01*
G75*
G02*
X109582000Y-66112000I0J-75000D01*
G01*
X109582000Y-66262000D01*
G75*
G02*
X109507000Y-66337000I-75000J0D01*
G01*
X108182000Y-66337000D01*
G75*
G02*
X108107000Y-66262000I0J75000D01*
G01*
X108107000Y-66112000D01*
G75*
G02*
X108182000Y-66037000I75000J0D01*
G01*
G37*
G36*
G01*
X108182000Y-65537000D02*
X109507000Y-65537000D01*
G75*
G02*
X109582000Y-65612000I0J-75000D01*
G01*
X109582000Y-65762000D01*
G75*
G02*
X109507000Y-65837000I-75000J0D01*
G01*
X108182000Y-65837000D01*
G75*
G02*
X108107000Y-65762000I0J75000D01*
G01*
X108107000Y-65612000D01*
G75*
G02*
X108182000Y-65537000I75000J0D01*
G01*
G37*
G36*
G01*
X108182000Y-65037000D02*
X109507000Y-65037000D01*
G75*
G02*
X109582000Y-65112000I0J-75000D01*
G01*
X109582000Y-65262000D01*
G75*
G02*
X109507000Y-65337000I-75000J0D01*
G01*
X108182000Y-65337000D01*
G75*
G02*
X108107000Y-65262000I0J75000D01*
G01*
X108107000Y-65112000D01*
G75*
G02*
X108182000Y-65037000I75000J0D01*
G01*
G37*
G36*
G01*
X108182000Y-64537000D02*
X109507000Y-64537000D01*
G75*
G02*
X109582000Y-64612000I0J-75000D01*
G01*
X109582000Y-64762000D01*
G75*
G02*
X109507000Y-64837000I-75000J0D01*
G01*
X108182000Y-64837000D01*
G75*
G02*
X108107000Y-64762000I0J75000D01*
G01*
X108107000Y-64612000D01*
G75*
G02*
X108182000Y-64537000I75000J0D01*
G01*
G37*
G36*
G01*
X108182000Y-64037000D02*
X109507000Y-64037000D01*
G75*
G02*
X109582000Y-64112000I0J-75000D01*
G01*
X109582000Y-64262000D01*
G75*
G02*
X109507000Y-64337000I-75000J0D01*
G01*
X108182000Y-64337000D01*
G75*
G02*
X108107000Y-64262000I0J75000D01*
G01*
X108107000Y-64112000D01*
G75*
G02*
X108182000Y-64037000I75000J0D01*
G01*
G37*
G36*
G01*
X108182000Y-63537000D02*
X109507000Y-63537000D01*
G75*
G02*
X109582000Y-63612000I0J-75000D01*
G01*
X109582000Y-63762000D01*
G75*
G02*
X109507000Y-63837000I-75000J0D01*
G01*
X108182000Y-63837000D01*
G75*
G02*
X108107000Y-63762000I0J75000D01*
G01*
X108107000Y-63612000D01*
G75*
G02*
X108182000Y-63537000I75000J0D01*
G01*
G37*
G36*
G01*
X108182000Y-63037000D02*
X109507000Y-63037000D01*
G75*
G02*
X109582000Y-63112000I0J-75000D01*
G01*
X109582000Y-63262000D01*
G75*
G02*
X109507000Y-63337000I-75000J0D01*
G01*
X108182000Y-63337000D01*
G75*
G02*
X108107000Y-63262000I0J75000D01*
G01*
X108107000Y-63112000D01*
G75*
G02*
X108182000Y-63037000I75000J0D01*
G01*
G37*
G36*
G01*
X108182000Y-62537000D02*
X109507000Y-62537000D01*
G75*
G02*
X109582000Y-62612000I0J-75000D01*
G01*
X109582000Y-62762000D01*
G75*
G02*
X109507000Y-62837000I-75000J0D01*
G01*
X108182000Y-62837000D01*
G75*
G02*
X108107000Y-62762000I0J75000D01*
G01*
X108107000Y-62612000D01*
G75*
G02*
X108182000Y-62537000I75000J0D01*
G01*
G37*
G36*
G01*
X108182000Y-62037000D02*
X109507000Y-62037000D01*
G75*
G02*
X109582000Y-62112000I0J-75000D01*
G01*
X109582000Y-62262000D01*
G75*
G02*
X109507000Y-62337000I-75000J0D01*
G01*
X108182000Y-62337000D01*
G75*
G02*
X108107000Y-62262000I0J75000D01*
G01*
X108107000Y-62112000D01*
G75*
G02*
X108182000Y-62037000I75000J0D01*
G01*
G37*
G36*
G01*
X108182000Y-61537000D02*
X109507000Y-61537000D01*
G75*
G02*
X109582000Y-61612000I0J-75000D01*
G01*
X109582000Y-61762000D01*
G75*
G02*
X109507000Y-61837000I-75000J0D01*
G01*
X108182000Y-61837000D01*
G75*
G02*
X108107000Y-61762000I0J75000D01*
G01*
X108107000Y-61612000D01*
G75*
G02*
X108182000Y-61537000I75000J0D01*
G01*
G37*
G36*
G01*
X108182000Y-61037000D02*
X109507000Y-61037000D01*
G75*
G02*
X109582000Y-61112000I0J-75000D01*
G01*
X109582000Y-61262000D01*
G75*
G02*
X109507000Y-61337000I-75000J0D01*
G01*
X108182000Y-61337000D01*
G75*
G02*
X108107000Y-61262000I0J75000D01*
G01*
X108107000Y-61112000D01*
G75*
G02*
X108182000Y-61037000I75000J0D01*
G01*
G37*
G36*
G01*
X108182000Y-60537000D02*
X109507000Y-60537000D01*
G75*
G02*
X109582000Y-60612000I0J-75000D01*
G01*
X109582000Y-60762000D01*
G75*
G02*
X109507000Y-60837000I-75000J0D01*
G01*
X108182000Y-60837000D01*
G75*
G02*
X108107000Y-60762000I0J75000D01*
G01*
X108107000Y-60612000D01*
G75*
G02*
X108182000Y-60537000I75000J0D01*
G01*
G37*
G36*
G01*
X108182000Y-60037000D02*
X109507000Y-60037000D01*
G75*
G02*
X109582000Y-60112000I0J-75000D01*
G01*
X109582000Y-60262000D01*
G75*
G02*
X109507000Y-60337000I-75000J0D01*
G01*
X108182000Y-60337000D01*
G75*
G02*
X108107000Y-60262000I0J75000D01*
G01*
X108107000Y-60112000D01*
G75*
G02*
X108182000Y-60037000I75000J0D01*
G01*
G37*
G36*
G01*
X108182000Y-59537000D02*
X109507000Y-59537000D01*
G75*
G02*
X109582000Y-59612000I0J-75000D01*
G01*
X109582000Y-59762000D01*
G75*
G02*
X109507000Y-59837000I-75000J0D01*
G01*
X108182000Y-59837000D01*
G75*
G02*
X108107000Y-59762000I0J75000D01*
G01*
X108107000Y-59612000D01*
G75*
G02*
X108182000Y-59537000I75000J0D01*
G01*
G37*
G36*
G01*
X108182000Y-59037000D02*
X109507000Y-59037000D01*
G75*
G02*
X109582000Y-59112000I0J-75000D01*
G01*
X109582000Y-59262000D01*
G75*
G02*
X109507000Y-59337000I-75000J0D01*
G01*
X108182000Y-59337000D01*
G75*
G02*
X108107000Y-59262000I0J75000D01*
G01*
X108107000Y-59112000D01*
G75*
G02*
X108182000Y-59037000I75000J0D01*
G01*
G37*
G36*
G01*
X108182000Y-58537000D02*
X109507000Y-58537000D01*
G75*
G02*
X109582000Y-58612000I0J-75000D01*
G01*
X109582000Y-58762000D01*
G75*
G02*
X109507000Y-58837000I-75000J0D01*
G01*
X108182000Y-58837000D01*
G75*
G02*
X108107000Y-58762000I0J75000D01*
G01*
X108107000Y-58612000D01*
G75*
G02*
X108182000Y-58537000I75000J0D01*
G01*
G37*
G36*
G01*
X110682000Y-56037000D02*
X110832000Y-56037000D01*
G75*
G02*
X110907000Y-56112000I0J-75000D01*
G01*
X110907000Y-57437000D01*
G75*
G02*
X110832000Y-57512000I-75000J0D01*
G01*
X110682000Y-57512000D01*
G75*
G02*
X110607000Y-57437000I0J75000D01*
G01*
X110607000Y-56112000D01*
G75*
G02*
X110682000Y-56037000I75000J0D01*
G01*
G37*
G36*
G01*
X111182000Y-56037000D02*
X111332000Y-56037000D01*
G75*
G02*
X111407000Y-56112000I0J-75000D01*
G01*
X111407000Y-57437000D01*
G75*
G02*
X111332000Y-57512000I-75000J0D01*
G01*
X111182000Y-57512000D01*
G75*
G02*
X111107000Y-57437000I0J75000D01*
G01*
X111107000Y-56112000D01*
G75*
G02*
X111182000Y-56037000I75000J0D01*
G01*
G37*
G36*
G01*
X111682000Y-56037000D02*
X111832000Y-56037000D01*
G75*
G02*
X111907000Y-56112000I0J-75000D01*
G01*
X111907000Y-57437000D01*
G75*
G02*
X111832000Y-57512000I-75000J0D01*
G01*
X111682000Y-57512000D01*
G75*
G02*
X111607000Y-57437000I0J75000D01*
G01*
X111607000Y-56112000D01*
G75*
G02*
X111682000Y-56037000I75000J0D01*
G01*
G37*
G36*
G01*
X112182000Y-56037000D02*
X112332000Y-56037000D01*
G75*
G02*
X112407000Y-56112000I0J-75000D01*
G01*
X112407000Y-57437000D01*
G75*
G02*
X112332000Y-57512000I-75000J0D01*
G01*
X112182000Y-57512000D01*
G75*
G02*
X112107000Y-57437000I0J75000D01*
G01*
X112107000Y-56112000D01*
G75*
G02*
X112182000Y-56037000I75000J0D01*
G01*
G37*
G36*
G01*
X112682000Y-56037000D02*
X112832000Y-56037000D01*
G75*
G02*
X112907000Y-56112000I0J-75000D01*
G01*
X112907000Y-57437000D01*
G75*
G02*
X112832000Y-57512000I-75000J0D01*
G01*
X112682000Y-57512000D01*
G75*
G02*
X112607000Y-57437000I0J75000D01*
G01*
X112607000Y-56112000D01*
G75*
G02*
X112682000Y-56037000I75000J0D01*
G01*
G37*
G36*
G01*
X113182000Y-56037000D02*
X113332000Y-56037000D01*
G75*
G02*
X113407000Y-56112000I0J-75000D01*
G01*
X113407000Y-57437000D01*
G75*
G02*
X113332000Y-57512000I-75000J0D01*
G01*
X113182000Y-57512000D01*
G75*
G02*
X113107000Y-57437000I0J75000D01*
G01*
X113107000Y-56112000D01*
G75*
G02*
X113182000Y-56037000I75000J0D01*
G01*
G37*
G36*
G01*
X113682000Y-56037000D02*
X113832000Y-56037000D01*
G75*
G02*
X113907000Y-56112000I0J-75000D01*
G01*
X113907000Y-57437000D01*
G75*
G02*
X113832000Y-57512000I-75000J0D01*
G01*
X113682000Y-57512000D01*
G75*
G02*
X113607000Y-57437000I0J75000D01*
G01*
X113607000Y-56112000D01*
G75*
G02*
X113682000Y-56037000I75000J0D01*
G01*
G37*
G36*
G01*
X114182000Y-56037000D02*
X114332000Y-56037000D01*
G75*
G02*
X114407000Y-56112000I0J-75000D01*
G01*
X114407000Y-57437000D01*
G75*
G02*
X114332000Y-57512000I-75000J0D01*
G01*
X114182000Y-57512000D01*
G75*
G02*
X114107000Y-57437000I0J75000D01*
G01*
X114107000Y-56112000D01*
G75*
G02*
X114182000Y-56037000I75000J0D01*
G01*
G37*
G36*
G01*
X114682000Y-56037000D02*
X114832000Y-56037000D01*
G75*
G02*
X114907000Y-56112000I0J-75000D01*
G01*
X114907000Y-57437000D01*
G75*
G02*
X114832000Y-57512000I-75000J0D01*
G01*
X114682000Y-57512000D01*
G75*
G02*
X114607000Y-57437000I0J75000D01*
G01*
X114607000Y-56112000D01*
G75*
G02*
X114682000Y-56037000I75000J0D01*
G01*
G37*
G36*
G01*
X115182000Y-56037000D02*
X115332000Y-56037000D01*
G75*
G02*
X115407000Y-56112000I0J-75000D01*
G01*
X115407000Y-57437000D01*
G75*
G02*
X115332000Y-57512000I-75000J0D01*
G01*
X115182000Y-57512000D01*
G75*
G02*
X115107000Y-57437000I0J75000D01*
G01*
X115107000Y-56112000D01*
G75*
G02*
X115182000Y-56037000I75000J0D01*
G01*
G37*
G36*
G01*
X115682000Y-56037000D02*
X115832000Y-56037000D01*
G75*
G02*
X115907000Y-56112000I0J-75000D01*
G01*
X115907000Y-57437000D01*
G75*
G02*
X115832000Y-57512000I-75000J0D01*
G01*
X115682000Y-57512000D01*
G75*
G02*
X115607000Y-57437000I0J75000D01*
G01*
X115607000Y-56112000D01*
G75*
G02*
X115682000Y-56037000I75000J0D01*
G01*
G37*
G36*
G01*
X116182000Y-56037000D02*
X116332000Y-56037000D01*
G75*
G02*
X116407000Y-56112000I0J-75000D01*
G01*
X116407000Y-57437000D01*
G75*
G02*
X116332000Y-57512000I-75000J0D01*
G01*
X116182000Y-57512000D01*
G75*
G02*
X116107000Y-57437000I0J75000D01*
G01*
X116107000Y-56112000D01*
G75*
G02*
X116182000Y-56037000I75000J0D01*
G01*
G37*
G36*
G01*
X116682000Y-56037000D02*
X116832000Y-56037000D01*
G75*
G02*
X116907000Y-56112000I0J-75000D01*
G01*
X116907000Y-57437000D01*
G75*
G02*
X116832000Y-57512000I-75000J0D01*
G01*
X116682000Y-57512000D01*
G75*
G02*
X116607000Y-57437000I0J75000D01*
G01*
X116607000Y-56112000D01*
G75*
G02*
X116682000Y-56037000I75000J0D01*
G01*
G37*
G36*
G01*
X117182000Y-56037000D02*
X117332000Y-56037000D01*
G75*
G02*
X117407000Y-56112000I0J-75000D01*
G01*
X117407000Y-57437000D01*
G75*
G02*
X117332000Y-57512000I-75000J0D01*
G01*
X117182000Y-57512000D01*
G75*
G02*
X117107000Y-57437000I0J75000D01*
G01*
X117107000Y-56112000D01*
G75*
G02*
X117182000Y-56037000I75000J0D01*
G01*
G37*
G36*
G01*
X117682000Y-56037000D02*
X117832000Y-56037000D01*
G75*
G02*
X117907000Y-56112000I0J-75000D01*
G01*
X117907000Y-57437000D01*
G75*
G02*
X117832000Y-57512000I-75000J0D01*
G01*
X117682000Y-57512000D01*
G75*
G02*
X117607000Y-57437000I0J75000D01*
G01*
X117607000Y-56112000D01*
G75*
G02*
X117682000Y-56037000I75000J0D01*
G01*
G37*
G36*
G01*
X118182000Y-56037000D02*
X118332000Y-56037000D01*
G75*
G02*
X118407000Y-56112000I0J-75000D01*
G01*
X118407000Y-57437000D01*
G75*
G02*
X118332000Y-57512000I-75000J0D01*
G01*
X118182000Y-57512000D01*
G75*
G02*
X118107000Y-57437000I0J75000D01*
G01*
X118107000Y-56112000D01*
G75*
G02*
X118182000Y-56037000I75000J0D01*
G01*
G37*
G36*
G01*
X118682000Y-56037000D02*
X118832000Y-56037000D01*
G75*
G02*
X118907000Y-56112000I0J-75000D01*
G01*
X118907000Y-57437000D01*
G75*
G02*
X118832000Y-57512000I-75000J0D01*
G01*
X118682000Y-57512000D01*
G75*
G02*
X118607000Y-57437000I0J75000D01*
G01*
X118607000Y-56112000D01*
G75*
G02*
X118682000Y-56037000I75000J0D01*
G01*
G37*
G36*
G01*
X119182000Y-56037000D02*
X119332000Y-56037000D01*
G75*
G02*
X119407000Y-56112000I0J-75000D01*
G01*
X119407000Y-57437000D01*
G75*
G02*
X119332000Y-57512000I-75000J0D01*
G01*
X119182000Y-57512000D01*
G75*
G02*
X119107000Y-57437000I0J75000D01*
G01*
X119107000Y-56112000D01*
G75*
G02*
X119182000Y-56037000I75000J0D01*
G01*
G37*
G36*
G01*
X119682000Y-56037000D02*
X119832000Y-56037000D01*
G75*
G02*
X119907000Y-56112000I0J-75000D01*
G01*
X119907000Y-57437000D01*
G75*
G02*
X119832000Y-57512000I-75000J0D01*
G01*
X119682000Y-57512000D01*
G75*
G02*
X119607000Y-57437000I0J75000D01*
G01*
X119607000Y-56112000D01*
G75*
G02*
X119682000Y-56037000I75000J0D01*
G01*
G37*
G36*
G01*
X120182000Y-56037000D02*
X120332000Y-56037000D01*
G75*
G02*
X120407000Y-56112000I0J-75000D01*
G01*
X120407000Y-57437000D01*
G75*
G02*
X120332000Y-57512000I-75000J0D01*
G01*
X120182000Y-57512000D01*
G75*
G02*
X120107000Y-57437000I0J75000D01*
G01*
X120107000Y-56112000D01*
G75*
G02*
X120182000Y-56037000I75000J0D01*
G01*
G37*
G36*
G01*
X120682000Y-56037000D02*
X120832000Y-56037000D01*
G75*
G02*
X120907000Y-56112000I0J-75000D01*
G01*
X120907000Y-57437000D01*
G75*
G02*
X120832000Y-57512000I-75000J0D01*
G01*
X120682000Y-57512000D01*
G75*
G02*
X120607000Y-57437000I0J75000D01*
G01*
X120607000Y-56112000D01*
G75*
G02*
X120682000Y-56037000I75000J0D01*
G01*
G37*
G36*
G01*
X121182000Y-56037000D02*
X121332000Y-56037000D01*
G75*
G02*
X121407000Y-56112000I0J-75000D01*
G01*
X121407000Y-57437000D01*
G75*
G02*
X121332000Y-57512000I-75000J0D01*
G01*
X121182000Y-57512000D01*
G75*
G02*
X121107000Y-57437000I0J75000D01*
G01*
X121107000Y-56112000D01*
G75*
G02*
X121182000Y-56037000I75000J0D01*
G01*
G37*
G36*
G01*
X121682000Y-56037000D02*
X121832000Y-56037000D01*
G75*
G02*
X121907000Y-56112000I0J-75000D01*
G01*
X121907000Y-57437000D01*
G75*
G02*
X121832000Y-57512000I-75000J0D01*
G01*
X121682000Y-57512000D01*
G75*
G02*
X121607000Y-57437000I0J75000D01*
G01*
X121607000Y-56112000D01*
G75*
G02*
X121682000Y-56037000I75000J0D01*
G01*
G37*
G36*
G01*
X122182000Y-56037000D02*
X122332000Y-56037000D01*
G75*
G02*
X122407000Y-56112000I0J-75000D01*
G01*
X122407000Y-57437000D01*
G75*
G02*
X122332000Y-57512000I-75000J0D01*
G01*
X122182000Y-57512000D01*
G75*
G02*
X122107000Y-57437000I0J75000D01*
G01*
X122107000Y-56112000D01*
G75*
G02*
X122182000Y-56037000I75000J0D01*
G01*
G37*
G36*
G01*
X122682000Y-56037000D02*
X122832000Y-56037000D01*
G75*
G02*
X122907000Y-56112000I0J-75000D01*
G01*
X122907000Y-57437000D01*
G75*
G02*
X122832000Y-57512000I-75000J0D01*
G01*
X122682000Y-57512000D01*
G75*
G02*
X122607000Y-57437000I0J75000D01*
G01*
X122607000Y-56112000D01*
G75*
G02*
X122682000Y-56037000I75000J0D01*
G01*
G37*
G36*
G01*
X123182000Y-56037000D02*
X123332000Y-56037000D01*
G75*
G02*
X123407000Y-56112000I0J-75000D01*
G01*
X123407000Y-57437000D01*
G75*
G02*
X123332000Y-57512000I-75000J0D01*
G01*
X123182000Y-57512000D01*
G75*
G02*
X123107000Y-57437000I0J75000D01*
G01*
X123107000Y-56112000D01*
G75*
G02*
X123182000Y-56037000I75000J0D01*
G01*
G37*
G36*
G01*
X123682000Y-56037000D02*
X123832000Y-56037000D01*
G75*
G02*
X123907000Y-56112000I0J-75000D01*
G01*
X123907000Y-57437000D01*
G75*
G02*
X123832000Y-57512000I-75000J0D01*
G01*
X123682000Y-57512000D01*
G75*
G02*
X123607000Y-57437000I0J75000D01*
G01*
X123607000Y-56112000D01*
G75*
G02*
X123682000Y-56037000I75000J0D01*
G01*
G37*
G36*
G01*
X124182000Y-56037000D02*
X124332000Y-56037000D01*
G75*
G02*
X124407000Y-56112000I0J-75000D01*
G01*
X124407000Y-57437000D01*
G75*
G02*
X124332000Y-57512000I-75000J0D01*
G01*
X124182000Y-57512000D01*
G75*
G02*
X124107000Y-57437000I0J75000D01*
G01*
X124107000Y-56112000D01*
G75*
G02*
X124182000Y-56037000I75000J0D01*
G01*
G37*
G36*
G01*
X124682000Y-56037000D02*
X124832000Y-56037000D01*
G75*
G02*
X124907000Y-56112000I0J-75000D01*
G01*
X124907000Y-57437000D01*
G75*
G02*
X124832000Y-57512000I-75000J0D01*
G01*
X124682000Y-57512000D01*
G75*
G02*
X124607000Y-57437000I0J75000D01*
G01*
X124607000Y-56112000D01*
G75*
G02*
X124682000Y-56037000I75000J0D01*
G01*
G37*
G36*
G01*
X125182000Y-56037000D02*
X125332000Y-56037000D01*
G75*
G02*
X125407000Y-56112000I0J-75000D01*
G01*
X125407000Y-57437000D01*
G75*
G02*
X125332000Y-57512000I-75000J0D01*
G01*
X125182000Y-57512000D01*
G75*
G02*
X125107000Y-57437000I0J75000D01*
G01*
X125107000Y-56112000D01*
G75*
G02*
X125182000Y-56037000I75000J0D01*
G01*
G37*
G36*
G01*
X125682000Y-56037000D02*
X125832000Y-56037000D01*
G75*
G02*
X125907000Y-56112000I0J-75000D01*
G01*
X125907000Y-57437000D01*
G75*
G02*
X125832000Y-57512000I-75000J0D01*
G01*
X125682000Y-57512000D01*
G75*
G02*
X125607000Y-57437000I0J75000D01*
G01*
X125607000Y-56112000D01*
G75*
G02*
X125682000Y-56037000I75000J0D01*
G01*
G37*
G36*
G01*
X126182000Y-56037000D02*
X126332000Y-56037000D01*
G75*
G02*
X126407000Y-56112000I0J-75000D01*
G01*
X126407000Y-57437000D01*
G75*
G02*
X126332000Y-57512000I-75000J0D01*
G01*
X126182000Y-57512000D01*
G75*
G02*
X126107000Y-57437000I0J75000D01*
G01*
X126107000Y-56112000D01*
G75*
G02*
X126182000Y-56037000I75000J0D01*
G01*
G37*
G36*
G01*
X126682000Y-56037000D02*
X126832000Y-56037000D01*
G75*
G02*
X126907000Y-56112000I0J-75000D01*
G01*
X126907000Y-57437000D01*
G75*
G02*
X126832000Y-57512000I-75000J0D01*
G01*
X126682000Y-57512000D01*
G75*
G02*
X126607000Y-57437000I0J75000D01*
G01*
X126607000Y-56112000D01*
G75*
G02*
X126682000Y-56037000I75000J0D01*
G01*
G37*
G36*
G01*
X127182000Y-56037000D02*
X127332000Y-56037000D01*
G75*
G02*
X127407000Y-56112000I0J-75000D01*
G01*
X127407000Y-57437000D01*
G75*
G02*
X127332000Y-57512000I-75000J0D01*
G01*
X127182000Y-57512000D01*
G75*
G02*
X127107000Y-57437000I0J75000D01*
G01*
X127107000Y-56112000D01*
G75*
G02*
X127182000Y-56037000I75000J0D01*
G01*
G37*
G36*
G01*
X127682000Y-56037000D02*
X127832000Y-56037000D01*
G75*
G02*
X127907000Y-56112000I0J-75000D01*
G01*
X127907000Y-57437000D01*
G75*
G02*
X127832000Y-57512000I-75000J0D01*
G01*
X127682000Y-57512000D01*
G75*
G02*
X127607000Y-57437000I0J75000D01*
G01*
X127607000Y-56112000D01*
G75*
G02*
X127682000Y-56037000I75000J0D01*
G01*
G37*
G36*
G01*
X128182000Y-56037000D02*
X128332000Y-56037000D01*
G75*
G02*
X128407000Y-56112000I0J-75000D01*
G01*
X128407000Y-57437000D01*
G75*
G02*
X128332000Y-57512000I-75000J0D01*
G01*
X128182000Y-57512000D01*
G75*
G02*
X128107000Y-57437000I0J75000D01*
G01*
X128107000Y-56112000D01*
G75*
G02*
X128182000Y-56037000I75000J0D01*
G01*
G37*
D16*
X105333800Y-44805600D03*
X98983800Y-44805600D03*
D17*
X118408000Y-36195000D03*
X118408000Y-37465000D03*
X118408000Y-38735000D03*
X118408000Y-40005000D03*
X112986000Y-40005000D03*
X112986000Y-38735000D03*
X112986000Y-37465000D03*
X112986000Y-36195000D03*
D18*
X148209000Y-32481000D03*
D19*
X148209000Y-38481000D03*
D20*
X141990880Y-64982180D03*
X138790880Y-64982180D03*
X138790880Y-70232180D03*
X141990880Y-70232180D03*
D21*
X144861280Y-66598380D03*
X144861280Y-64958380D03*
D22*
X120029400Y-42062400D03*
X118389400Y-42062400D03*
D21*
X106959400Y-40416320D03*
X106959400Y-38776320D03*
D23*
X158940500Y-46456600D03*
D24*
X158940500Y-48456600D03*
D25*
X90888820Y-95651320D03*
D26*
X94113820Y-95651320D03*
X93169239Y-97931739D03*
X90888820Y-98876320D03*
X88608401Y-97931739D03*
X87663820Y-95651320D03*
X88608401Y-93370901D03*
X90888820Y-92426320D03*
X93169239Y-93370901D03*
X164202879Y-93495361D03*
X161922460Y-92550780D03*
X159642041Y-93495361D03*
X158697460Y-95775780D03*
X159642041Y-98056199D03*
X161922460Y-99000780D03*
X164202879Y-98056199D03*
X165147460Y-95775780D03*
D25*
X161922460Y-95775780D03*
X90761820Y-29583380D03*
D26*
X93986820Y-29583380D03*
X93042239Y-31863799D03*
X90761820Y-32808380D03*
X88481401Y-31863799D03*
X87536820Y-29583380D03*
X88481401Y-27302961D03*
X90761820Y-26358380D03*
X93042239Y-27302961D03*
X164075879Y-27302961D03*
X161795460Y-26358380D03*
X159515041Y-27302961D03*
X158570460Y-29583380D03*
X159515041Y-31863799D03*
X161795460Y-32808380D03*
X164075879Y-31863799D03*
X165020460Y-29583380D03*
D25*
X161795460Y-29583380D03*
D27*
X113164880Y-52951380D03*
X112244880Y-52951380D03*
D28*
X108943240Y-38709600D03*
X110543240Y-38709600D03*
D21*
X121945400Y-38668540D03*
X121945400Y-37028540D03*
D29*
X121290080Y-27881580D03*
X128879600Y-27914600D03*
D21*
X102143560Y-62729960D03*
X102143560Y-61089960D03*
D22*
X110379080Y-85915500D03*
X112019080Y-85915500D03*
D30*
X148638699Y-46207199D03*
D31*
X146338699Y-53057199D03*
D30*
X144038699Y-46207199D03*
D11*
X88143080Y-47058580D03*
D10*
X88143080Y-49598580D03*
X88143080Y-52138580D03*
X88143080Y-54678580D03*
X88143080Y-57218580D03*
X88143080Y-59758580D03*
X88143080Y-62298580D03*
X88143080Y-64838580D03*
X88143080Y-67378580D03*
D32*
X162181080Y-80947580D03*
X161781080Y-82047580D03*
X162181080Y-83147580D03*
X162381080Y-84247580D03*
X162181080Y-85347580D03*
X162381080Y-86447580D03*
X162181080Y-87547580D03*
X162181080Y-88647580D03*
D33*
X151321080Y-87837580D03*
D34*
X151096080Y-86447580D03*
D33*
X151321080Y-82137580D03*
D35*
X164471080Y-89437580D03*
X165471080Y-76287580D03*
D36*
X106576280Y-87452700D03*
X106576280Y-88086700D03*
X106576280Y-88722700D03*
X106576280Y-89356700D03*
X106576280Y-89992700D03*
X106576280Y-90626700D03*
X106576280Y-91262700D03*
X106576280Y-91896700D03*
X112026280Y-91896700D03*
X112026280Y-91262700D03*
X112026280Y-90626700D03*
X112026280Y-89992700D03*
X112026280Y-89356700D03*
X112026280Y-88722700D03*
X112026280Y-88086700D03*
X112026280Y-87452700D03*
D37*
X109301280Y-89674700D03*
D22*
X111950080Y-93586300D03*
X110310080Y-93586300D03*
D21*
X94564200Y-60518460D03*
X94564200Y-62158460D03*
D38*
X98358960Y-60284360D03*
D39*
X100580960Y-63009360D03*
X99946960Y-63009360D03*
X99310960Y-63009360D03*
X98676960Y-63009360D03*
X98040960Y-63009360D03*
X97406960Y-63009360D03*
X96770960Y-63009360D03*
X96136960Y-63009360D03*
X96136960Y-57559360D03*
X96770960Y-57559360D03*
X97406960Y-57559360D03*
X98040960Y-57559360D03*
X98676960Y-57559360D03*
X99310960Y-57559360D03*
X99946960Y-57559360D03*
X100580960Y-57559360D03*
D40*
X105481080Y-93510100D03*
X107381080Y-93510100D03*
D41*
X94513400Y-58150800D03*
X94513400Y-56250800D03*
D11*
X154114500Y-98298000D03*
D10*
X151574500Y-98298000D03*
D42*
X104762800Y-38811200D03*
X100062800Y-38811200D03*
D43*
X100457000Y-34757500D03*
X100457000Y-28107500D03*
D10*
X118935500Y-98298000D03*
X116395500Y-98298000D03*
X113855500Y-98298000D03*
X111315500Y-98298000D03*
X108775500Y-98298000D03*
X106235500Y-98298000D03*
X103695500Y-98298000D03*
X101155500Y-98298000D03*
D11*
X98615500Y-98298000D03*
X88143080Y-71442580D03*
D10*
X88143080Y-73982580D03*
X88143080Y-76522580D03*
X88143080Y-79062580D03*
X88143080Y-81602580D03*
X88143080Y-84142580D03*
X88143080Y-86682580D03*
X88143080Y-89222580D03*
D11*
X113035080Y-26738580D03*
D10*
X110495080Y-26738580D03*
X107955080Y-26738580D03*
D44*
X123284280Y-42130980D03*
X128084280Y-42130980D03*
D45*
X159517080Y-58372580D03*
X159517080Y-56572580D03*
D46*
X159390080Y-61280580D03*
X159390080Y-67380580D03*
D47*
X163327080Y-62499580D03*
X163327080Y-65399580D03*
D28*
X141140080Y-36263580D03*
X139540080Y-36263580D03*
D48*
X115575080Y-33020000D03*
D49*
X115575080Y-31020000D03*
D50*
X104907080Y-61217580D03*
X104907080Y-62617580D03*
X111830080Y-83380580D03*
X110430080Y-83380580D03*
X154360880Y-50450980D03*
X154360880Y-49050980D03*
D27*
X139880080Y-37787580D03*
X140800080Y-37787580D03*
D51*
X112247080Y-53916580D03*
X112807080Y-53916580D03*
D15*
X117861080Y-50312580D03*
X117861080Y-49392580D03*
D52*
X109961680Y-50741580D03*
X112247680Y-50741580D03*
D53*
X147627680Y-64889380D03*
X150527680Y-64889380D03*
D54*
X117785080Y-52935580D03*
X116159080Y-52935580D03*
X116159080Y-54135580D03*
X117785080Y-54135580D03*
D11*
X164414200Y-38989000D03*
D10*
X164414200Y-36449000D03*
D45*
X128270000Y-50535000D03*
X128270000Y-52335000D03*
D55*
X128295400Y-47066200D03*
X134395400Y-47066200D03*
D11*
X136474200Y-82143600D03*
D10*
X136474200Y-79603600D03*
X139014200Y-82143600D03*
X139014200Y-79603600D03*
X141554200Y-82143600D03*
X141554200Y-79603600D03*
X144094200Y-82143600D03*
X144094200Y-79603600D03*
X146634200Y-82143600D03*
X146634200Y-79603600D03*
M02*
