G04 #@! TF.GenerationSoftware,KiCad,Pcbnew,(5.1.10)-1*
G04 #@! TF.CreationDate,2021-10-20T16:57:21-04:00*
G04 #@! TF.ProjectId,Main_Board,4d61696e-5f42-46f6-9172-642e6b696361,rev?*
G04 #@! TF.SameCoordinates,Original*
G04 #@! TF.FileFunction,Copper,L4,Bot*
G04 #@! TF.FilePolarity,Positive*
%FSLAX46Y46*%
G04 Gerber Fmt 4.6, Leading zero omitted, Abs format (unit mm)*
G04 Created by KiCad (PCBNEW (5.1.10)-1) date 2021-10-20 16:57:21*
%MOMM*%
%LPD*%
G01*
G04 APERTURE LIST*
G04 #@! TA.AperFunction,ComponentPad*
%ADD10O,1.700000X1.700000*%
G04 #@! TD*
G04 #@! TA.AperFunction,ComponentPad*
%ADD11R,1.700000X1.700000*%
G04 #@! TD*
G04 #@! TA.AperFunction,ComponentPad*
%ADD12C,1.650000*%
G04 #@! TD*
G04 #@! TA.AperFunction,ComponentPad*
%ADD13R,1.650000X1.650000*%
G04 #@! TD*
G04 #@! TA.AperFunction,ComponentPad*
%ADD14C,4.740000*%
G04 #@! TD*
G04 #@! TA.AperFunction,ComponentPad*
%ADD15C,5.460000*%
G04 #@! TD*
G04 #@! TA.AperFunction,SMDPad,CuDef*
%ADD16R,1.390000X0.910000*%
G04 #@! TD*
G04 #@! TA.AperFunction,ComponentPad*
%ADD17R,1.100000X1.100000*%
G04 #@! TD*
G04 #@! TA.AperFunction,ComponentPad*
%ADD18C,1.100000*%
G04 #@! TD*
G04 #@! TA.AperFunction,ComponentPad*
%ADD19C,8.600000*%
G04 #@! TD*
G04 #@! TA.AperFunction,ComponentPad*
%ADD20C,0.900000*%
G04 #@! TD*
G04 #@! TA.AperFunction,SMDPad,CuDef*
%ADD21R,0.910000X1.390000*%
G04 #@! TD*
G04 #@! TA.AperFunction,ComponentPad*
%ADD22C,5.000000*%
G04 #@! TD*
G04 #@! TA.AperFunction,ComponentPad*
%ADD23R,1.150000X1.150000*%
G04 #@! TD*
G04 #@! TA.AperFunction,ComponentPad*
%ADD24C,1.150000*%
G04 #@! TD*
G04 #@! TA.AperFunction,ViaPad*
%ADD25C,1.270000*%
G04 #@! TD*
G04 #@! TA.AperFunction,ViaPad*
%ADD26C,1.016000*%
G04 #@! TD*
G04 #@! TA.AperFunction,ViaPad*
%ADD27C,0.800000*%
G04 #@! TD*
G04 #@! TA.AperFunction,ViaPad*
%ADD28C,1.524000*%
G04 #@! TD*
G04 #@! TA.AperFunction,Conductor*
%ADD29C,0.381000*%
G04 #@! TD*
G04 #@! TA.AperFunction,Conductor*
%ADD30C,0.635000*%
G04 #@! TD*
G04 #@! TA.AperFunction,Conductor*
%ADD31C,3.500000*%
G04 #@! TD*
G04 #@! TA.AperFunction,Conductor*
%ADD32C,1.270000*%
G04 #@! TD*
G04 #@! TA.AperFunction,Conductor*
%ADD33C,0.250000*%
G04 #@! TD*
G04 #@! TA.AperFunction,Conductor*
%ADD34C,0.254000*%
G04 #@! TD*
G04 #@! TA.AperFunction,Conductor*
%ADD35C,0.100000*%
G04 #@! TD*
G04 APERTURE END LIST*
D10*
X88265000Y-39306500D03*
D11*
X88265000Y-41846500D03*
D12*
X147955000Y-98361500D03*
X145415000Y-98361500D03*
X142875000Y-98361500D03*
X140335000Y-98361500D03*
X137795000Y-98361500D03*
X135255000Y-98361500D03*
X132715000Y-98361500D03*
X130175000Y-98361500D03*
X127635000Y-98361500D03*
X125095000Y-98361500D03*
D13*
X122555000Y-98361500D03*
D14*
X148209000Y-32481000D03*
D15*
X148209000Y-38481000D03*
D16*
X111874300Y-60586200D03*
X111874300Y-58946200D03*
D17*
X158940500Y-46456600D03*
D18*
X158940500Y-48456600D03*
D19*
X90888820Y-95651320D03*
D20*
X94113820Y-95651320D03*
X93169239Y-97931739D03*
X90888820Y-98876320D03*
X88608401Y-97931739D03*
X87663820Y-95651320D03*
X88608401Y-93370901D03*
X90888820Y-92426320D03*
X93169239Y-93370901D03*
X164202879Y-93495361D03*
X161922460Y-92550780D03*
X159642041Y-93495361D03*
X158697460Y-95775780D03*
X159642041Y-98056199D03*
X161922460Y-99000780D03*
X164202879Y-98056199D03*
X165147460Y-95775780D03*
D19*
X161922460Y-95775780D03*
X90761820Y-29583380D03*
D20*
X93986820Y-29583380D03*
X93042239Y-31863799D03*
X90761820Y-32808380D03*
X88481401Y-31863799D03*
X87536820Y-29583380D03*
X88481401Y-27302961D03*
X90761820Y-26358380D03*
X93042239Y-27302961D03*
X164075879Y-27302961D03*
X161795460Y-26358380D03*
X159515041Y-27302961D03*
X158570460Y-29583380D03*
X159515041Y-31863799D03*
X161795460Y-32808380D03*
X164075879Y-31863799D03*
X165020460Y-29583380D03*
D19*
X161795460Y-29583380D03*
D16*
X112229900Y-76207200D03*
X112229900Y-74567200D03*
D21*
X114991300Y-75234800D03*
X116631300Y-75234800D03*
X122270100Y-75184000D03*
X120630100Y-75184000D03*
X125760900Y-75107800D03*
X127400900Y-75107800D03*
D16*
X127088900Y-69766600D03*
X127088900Y-71406600D03*
X126606300Y-66359200D03*
X126606300Y-64719200D03*
X127215900Y-60408400D03*
X127215900Y-58768400D03*
D21*
X119715700Y-59893200D03*
X121355700Y-59893200D03*
D16*
X112026700Y-70223800D03*
X112026700Y-71863800D03*
X112026700Y-64915200D03*
X112026700Y-66555200D03*
D22*
X121290080Y-27881580D03*
X128879600Y-27914600D03*
D11*
X88143080Y-47058580D03*
D10*
X88143080Y-49598580D03*
X88143080Y-52138580D03*
X88143080Y-54678580D03*
X88143080Y-57218580D03*
X88143080Y-59758580D03*
X88143080Y-62298580D03*
X88143080Y-64838580D03*
X88143080Y-67378580D03*
D11*
X154114500Y-98298000D03*
D10*
X151574500Y-98298000D03*
X118935500Y-98298000D03*
X116395500Y-98298000D03*
X113855500Y-98298000D03*
X111315500Y-98298000D03*
X108775500Y-98298000D03*
X106235500Y-98298000D03*
X103695500Y-98298000D03*
X101155500Y-98298000D03*
D11*
X98615500Y-98298000D03*
X88143080Y-71442580D03*
D10*
X88143080Y-73982580D03*
X88143080Y-76522580D03*
X88143080Y-79062580D03*
X88143080Y-81602580D03*
X88143080Y-84142580D03*
X88143080Y-86682580D03*
X88143080Y-89222580D03*
D11*
X113035080Y-26738580D03*
D10*
X110495080Y-26738580D03*
X107955080Y-26738580D03*
D23*
X115575080Y-33020000D03*
D24*
X115575080Y-31020000D03*
D11*
X164414200Y-38989000D03*
D10*
X164414200Y-36449000D03*
D11*
X136474200Y-82143600D03*
D10*
X136474200Y-79603600D03*
X139014200Y-82143600D03*
X139014200Y-79603600D03*
X141554200Y-82143600D03*
X141554200Y-79603600D03*
X144094200Y-82143600D03*
X144094200Y-79603600D03*
X146634200Y-82143600D03*
X146634200Y-79603600D03*
D25*
X144830800Y-69215000D03*
X164647880Y-67810380D03*
X101762560Y-59242960D03*
D26*
X128435100Y-71450200D03*
X110502700Y-64922400D03*
X121424700Y-58597800D03*
X128562100Y-60401200D03*
X110401100Y-70180200D03*
X120764300Y-76530200D03*
X127977900Y-66344800D03*
D27*
X164266880Y-86479380D03*
D25*
X108412280Y-86174580D03*
D27*
X131680660Y-61687000D03*
D25*
X129621280Y-42130980D03*
D27*
X114965480Y-48303180D03*
X117861080Y-48328580D03*
D26*
X138155680Y-36263580D03*
X138155680Y-37787580D03*
X106888280Y-41622980D03*
D25*
X144805400Y-70688200D03*
X162438080Y-67810380D03*
X158907480Y-44213780D03*
X154335480Y-46982380D03*
D26*
X110774480Y-74795380D03*
X114965480Y-76573380D03*
X110350300Y-58826400D03*
D27*
X113131600Y-54851300D03*
D26*
X121945400Y-35737800D03*
D25*
X136017000Y-47040800D03*
D26*
X114706400Y-41452800D03*
X125768100Y-76555600D03*
D25*
X116179600Y-51612800D03*
X119108780Y-54135580D03*
D27*
X103568500Y-28130500D03*
X124464238Y-51444845D03*
X123632412Y-51999886D03*
X121467290Y-53642032D03*
X121188480Y-54602380D03*
D28*
X163314380Y-44010580D03*
D27*
X134498080Y-66743580D03*
X132847080Y-67378580D03*
X135387080Y-67632580D03*
X135895080Y-68648580D03*
X134117080Y-69410580D03*
X132085080Y-69918580D03*
X133100902Y-70393539D03*
X133943379Y-71118529D03*
X133344717Y-71951637D03*
X134498080Y-71950580D03*
X134498080Y-72966580D03*
X114559080Y-82491580D03*
X113797080Y-81602580D03*
X106151387Y-76496887D03*
X105034080Y-76522580D03*
X105165733Y-75384233D03*
X104145080Y-75379580D03*
X121774898Y-52690517D03*
X122636280Y-52087780D03*
X125464077Y-51426769D03*
X151193500Y-56197500D03*
X156273500Y-56197500D03*
X153733500Y-56197500D03*
X153733500Y-53657500D03*
X156273500Y-53657500D03*
X151193500Y-53657500D03*
D26*
X110426500Y-71856600D03*
X110451900Y-66446400D03*
X128536700Y-58445400D03*
X116624100Y-76555600D03*
X122288300Y-76581000D03*
X128435100Y-69697600D03*
X128054100Y-64668400D03*
X119951500Y-58572400D03*
D27*
X164292280Y-84269580D03*
D26*
X106431080Y-62679580D03*
D27*
X152811480Y-64940180D03*
D26*
X111638080Y-82237580D03*
X109301280Y-48404780D03*
D25*
X159542480Y-54856380D03*
D26*
X110850680Y-76192380D03*
X110350300Y-60401200D03*
D27*
X135953500Y-50736500D03*
X138493500Y-50736500D03*
X141033500Y-50736500D03*
X135953500Y-53276500D03*
X138493500Y-53276500D03*
X141033500Y-53276500D03*
X135953500Y-55816500D03*
X138493500Y-55816500D03*
X141033500Y-55816500D03*
X135953500Y-58356500D03*
X138493500Y-58356500D03*
X141033500Y-58356500D03*
X135953500Y-60896500D03*
X138493500Y-60896500D03*
X141033500Y-60896500D03*
X143573500Y-58356500D03*
X146113500Y-58356500D03*
X148653500Y-58356500D03*
X151193500Y-58356500D03*
X153733500Y-58356500D03*
X156273500Y-58356500D03*
X143573500Y-60896500D03*
X146113500Y-60896500D03*
X148653500Y-60896500D03*
X151193500Y-60896500D03*
X153733500Y-60896500D03*
X156273500Y-60896500D03*
D26*
X128511300Y-76428600D03*
D27*
X128376680Y-62603380D03*
X136403080Y-64965580D03*
X132694680Y-65752980D03*
X99954080Y-67886580D03*
X100558600Y-55745380D03*
X109143800Y-55549800D03*
X110375700Y-55173880D03*
X111372340Y-55061332D03*
X150571200Y-75057000D03*
X158318200Y-87553800D03*
X101605080Y-67378580D03*
X102611444Y-67876944D03*
X102361959Y-69431614D03*
X103738581Y-69385081D03*
X105183500Y-69560000D03*
X104018080Y-71823580D03*
X105415080Y-71823580D03*
X106685080Y-71823580D03*
D29*
X121399300Y-59936800D02*
X121355700Y-59893200D01*
X111950500Y-70096800D02*
X112026700Y-70173000D01*
X120764300Y-76530200D02*
X120789700Y-75409800D01*
X127030900Y-71348600D02*
X127088900Y-71406600D01*
X127132500Y-71450200D02*
X127088900Y-71406600D01*
X128435100Y-71450200D02*
X127132500Y-71450200D01*
X127963500Y-66359200D02*
X126606300Y-66359200D01*
X127977900Y-66344800D02*
X127963500Y-66359200D01*
X111772700Y-59105800D02*
X111721900Y-58826400D01*
X111823500Y-58826400D02*
X111772700Y-59105800D01*
X112026700Y-64897000D02*
X112001300Y-65024000D01*
X110502700Y-64922400D02*
X112001300Y-64922400D01*
X111699300Y-70180200D02*
X112026700Y-70507600D01*
X110401100Y-70180200D02*
X111699300Y-70180200D01*
X112247680Y-74592180D02*
X112374680Y-74439780D01*
X110774480Y-74795380D02*
X112247680Y-74592180D01*
X110350300Y-58826400D02*
X111823500Y-58826400D01*
X114991300Y-76547560D02*
X114965480Y-76573380D01*
X114991300Y-75234800D02*
X114991300Y-76547560D01*
X127254000Y-60401200D02*
X128562100Y-60401200D01*
X121424700Y-59824200D02*
X121355700Y-59893200D01*
X121424700Y-58597800D02*
X121424700Y-59824200D01*
X127223100Y-60401200D02*
X127215900Y-60408400D01*
X128562100Y-60401200D02*
X127223100Y-60401200D01*
X125760900Y-75107800D02*
X125760900Y-76548400D01*
X125760900Y-76548400D02*
X125768100Y-76555600D01*
D30*
X163314380Y-44010580D02*
X158978600Y-39319200D01*
D31*
X148209000Y-38481000D02*
X160782000Y-38481000D01*
D32*
X163906200Y-38481000D02*
X164414200Y-38989000D01*
X160782000Y-38481000D02*
X163906200Y-38481000D01*
D29*
X110470100Y-71813000D02*
X110426500Y-71856600D01*
X116598700Y-76530200D02*
X116624100Y-76555600D01*
X122288300Y-76581000D02*
X122288300Y-74930000D01*
X128366100Y-69766600D02*
X128435100Y-69697600D01*
X127088900Y-69766600D02*
X128366100Y-69766600D01*
X127266700Y-64643000D02*
X128054100Y-64668400D01*
X126631700Y-64643000D02*
X127266700Y-64643000D01*
X126250700Y-64668400D02*
X126631700Y-64643000D01*
X111620300Y-60378600D02*
X111597700Y-60401200D01*
X110451900Y-66446400D02*
X111950500Y-66446400D01*
X112026700Y-71813000D02*
X110426500Y-71856600D01*
X112110100Y-71729600D02*
X112026700Y-71813000D01*
X110850680Y-76192380D02*
X112273080Y-76090780D01*
X112273080Y-76090780D02*
X112349280Y-76116180D01*
X111597700Y-60401200D02*
X110350300Y-60401200D01*
X116631300Y-76548400D02*
X116624100Y-76555600D01*
X116631300Y-75234800D02*
X116631300Y-76548400D01*
X127558800Y-58648600D02*
X127203200Y-58699400D01*
X128536700Y-58445400D02*
X127558800Y-58648600D01*
X119951500Y-59657400D02*
X119715700Y-59893200D01*
X119951500Y-58572400D02*
X119951500Y-59657400D01*
X127538900Y-58445400D02*
X127215900Y-58768400D01*
X128536700Y-58445400D02*
X127538900Y-58445400D01*
X127400900Y-75318200D02*
X128511300Y-76428600D01*
X127400900Y-75107800D02*
X127400900Y-75318200D01*
D33*
X130618082Y-62603380D02*
X128376680Y-62603380D01*
X136403080Y-64965580D02*
X130618082Y-62603380D01*
X136403080Y-64965580D02*
X146944080Y-79697580D01*
X148526500Y-81495900D02*
X146634200Y-79603600D01*
X122555000Y-97286500D02*
X135132500Y-84709000D01*
X122555000Y-98361500D02*
X122555000Y-97286500D01*
X135132500Y-84709000D02*
X146748500Y-84709000D01*
X146748500Y-84709000D02*
X148526500Y-82931000D01*
X148526500Y-82931000D02*
X148526500Y-81495900D01*
X132694680Y-65752980D02*
X141864080Y-79697580D01*
X88427560Y-67904360D02*
X88122760Y-67599560D01*
X88120220Y-57861200D02*
X88044020Y-57785000D01*
X88196420Y-57937400D02*
X88044020Y-57785000D01*
X99954080Y-67886580D02*
X100558600Y-55745380D01*
X108115100Y-53962346D02*
X107955080Y-26738580D01*
X108115100Y-54521100D02*
X109143800Y-55549800D01*
X108115100Y-53962346D02*
X108115100Y-54521100D01*
X110495080Y-26738580D02*
X110655100Y-26619200D01*
X110375700Y-55173880D02*
X110495080Y-26738580D01*
X113035080Y-26738580D02*
X113195100Y-26619200D01*
X111830101Y-54603571D02*
X113035080Y-26738580D01*
X111372340Y-55061332D02*
X111830101Y-54603571D01*
X156946600Y-87553800D02*
X158318200Y-87553800D01*
X153720800Y-81584800D02*
X156946600Y-87553800D01*
X150571200Y-75057000D02*
X153720800Y-81584800D01*
X97740622Y-71442580D02*
X88143080Y-71442580D01*
X101605080Y-67378580D02*
X97740622Y-71442580D01*
X96144080Y-73855580D02*
X88143080Y-73982580D01*
X102611444Y-67876944D02*
X96144080Y-73855580D01*
X95001080Y-76395580D02*
X88143080Y-76522580D01*
X102361959Y-69431614D02*
X95001080Y-76395580D01*
X93367403Y-79062580D02*
X88143080Y-79062580D01*
X101935082Y-71188580D02*
X101241403Y-71823580D01*
X103738581Y-69385081D02*
X101935082Y-71188580D01*
X101241403Y-71823580D02*
X93367403Y-79062580D01*
X91663690Y-81602580D02*
X88143080Y-81602580D01*
X105183500Y-69560000D02*
X91663690Y-81602580D01*
X90533264Y-84142580D02*
X88143080Y-84142580D01*
X104018080Y-71823580D02*
X90533264Y-84142580D01*
X89401671Y-86682580D02*
X88143080Y-86682580D01*
X105415080Y-71823580D02*
X89401671Y-86682580D01*
X106685080Y-71823580D02*
X88143080Y-89222580D01*
D34*
X156616400Y-61874400D02*
X134645668Y-61874400D01*
X134670533Y-50075920D01*
X152425580Y-50050700D01*
X152426521Y-50050695D01*
X156616400Y-50013725D01*
X156616400Y-61874400D01*
G04 #@! TA.AperFunction,Conductor*
D35*
G36*
X156616400Y-61874400D02*
G01*
X134645668Y-61874400D01*
X134670533Y-50075920D01*
X152425580Y-50050700D01*
X152426521Y-50050695D01*
X156616400Y-50013725D01*
X156616400Y-61874400D01*
G37*
G04 #@! TD.AperFunction*
M02*
