G04 #@! TF.GenerationSoftware,KiCad,Pcbnew,(5.1.10)-1*
G04 #@! TF.CreationDate,2021-09-29T00:11:52-04:00*
G04 #@! TF.ProjectId,led_sensor,6c65645f-7365-46e7-936f-722e6b696361,rev?*
G04 #@! TF.SameCoordinates,Original*
G04 #@! TF.FileFunction,Copper,L4,Bot*
G04 #@! TF.FilePolarity,Positive*
%FSLAX46Y46*%
G04 Gerber Fmt 4.6, Leading zero omitted, Abs format (unit mm)*
G04 Created by KiCad (PCBNEW (5.1.10)-1) date 2021-09-29 00:11:52*
%MOMM*%
%LPD*%
G01*
G04 APERTURE LIST*
G04 #@! TA.AperFunction,ComponentPad*
%ADD10C,5.000000*%
G04 #@! TD*
G04 #@! TA.AperFunction,ViaPad*
%ADD11C,1.016000*%
G04 #@! TD*
G04 #@! TA.AperFunction,Conductor*
%ADD12C,0.381000*%
G04 #@! TD*
G04 APERTURE END LIST*
D10*
X161671000Y-140970000D03*
X205359000Y-140970000D03*
X205359000Y-121158000D03*
X226441000Y-140970000D03*
X215900000Y-140970000D03*
X236982000Y-140970000D03*
X85344000Y-140970000D03*
X74803000Y-140970000D03*
X64262000Y-140970000D03*
X95885000Y-140970000D03*
X122936000Y-121158000D03*
X139446000Y-121158000D03*
X150622000Y-121158000D03*
X150622000Y-140970000D03*
X226441000Y-121158000D03*
X236982000Y-121158000D03*
X215900000Y-121158000D03*
X95885000Y-121158000D03*
X85344000Y-121158000D03*
X74803000Y-121158000D03*
X64262000Y-121158000D03*
X172466000Y-121158000D03*
X161925000Y-121158000D03*
X183007000Y-121031000D03*
D11*
X149860000Y-136779000D03*
X34036000Y-128397000D03*
X183007000Y-132842000D03*
X146939000Y-131572000D03*
X265049000Y-128397000D03*
X147066000Y-133985000D03*
X132969000Y-128397000D03*
X147320000Y-135509000D03*
X100076000Y-127762000D03*
X148463000Y-136525000D03*
X67056000Y-128270000D03*
X151384000Y-136652000D03*
X145923000Y-130429000D03*
X232156000Y-128778000D03*
X145923000Y-128905000D03*
X199136000Y-128778000D03*
X147193000Y-128143000D03*
X166116000Y-128905000D03*
D12*
X34036000Y-128397000D02*
X34036000Y-128397000D01*
X34925000Y-127508000D02*
X34036000Y-128397000D01*
X42164000Y-127508000D02*
X34925000Y-127508000D01*
X51971501Y-137315501D02*
X42164000Y-127508000D01*
X149225000Y-137541000D02*
X51971501Y-137315501D01*
X149860000Y-136779000D02*
X149225000Y-137541000D01*
X183007000Y-120142000D02*
X183007000Y-132842000D01*
X265049000Y-128397000D02*
X265049000Y-128397000D01*
X153162000Y-131572000D02*
X146939000Y-131572000D01*
X158877000Y-137287000D02*
X153162000Y-131572000D01*
X253492000Y-137287000D02*
X158877000Y-137287000D01*
X262636000Y-128143000D02*
X253492000Y-137287000D01*
X264795000Y-128143000D02*
X262636000Y-128143000D01*
X265049000Y-128397000D02*
X264795000Y-128143000D01*
X147066000Y-133985000D02*
X145415000Y-133985000D01*
X145415000Y-133985000D02*
X139319000Y-127889000D01*
X139319000Y-127889000D02*
X133477000Y-127889000D01*
X133477000Y-127889000D02*
X132969000Y-128397000D01*
X132969000Y-128397000D02*
X132969000Y-128397000D01*
X147320000Y-135509000D02*
X114046000Y-135509000D01*
X114046000Y-135509000D02*
X106172000Y-127635000D01*
X106172000Y-127635000D02*
X100203000Y-127635000D01*
X100203000Y-127635000D02*
X100076000Y-127762000D01*
X100076000Y-127762000D02*
X100076000Y-127762000D01*
X148463000Y-136525000D02*
X80137000Y-136525000D01*
X80137000Y-136525000D02*
X71501000Y-127889000D01*
X71501000Y-127889000D02*
X67437000Y-127889000D01*
X67437000Y-127889000D02*
X67056000Y-128270000D01*
X67056000Y-128270000D02*
X67056000Y-128270000D01*
X145923000Y-130429000D02*
X152981010Y-130429000D01*
X152981010Y-130429000D02*
X159077010Y-136525000D01*
X159077010Y-136525000D02*
X221488000Y-136525000D01*
X221488000Y-136525000D02*
X229870000Y-128143000D01*
X229870000Y-128143000D02*
X231521000Y-128143000D01*
X231521000Y-128143000D02*
X232156000Y-128778000D01*
X232156000Y-128778000D02*
X232156000Y-128778000D01*
X146865990Y-129847990D02*
X153596990Y-129847990D01*
X145923000Y-128905000D02*
X146865990Y-129847990D01*
X153596990Y-129847990D02*
X159512000Y-135763000D01*
X159512000Y-135763000D02*
X189230000Y-135763000D01*
X189230000Y-135763000D02*
X196723000Y-128270000D01*
X196723000Y-128270000D02*
X198628000Y-128270000D01*
X198628000Y-128270000D02*
X199136000Y-128778000D01*
X199136000Y-128778000D02*
X199136000Y-128778000D01*
X147193000Y-128143000D02*
X153289000Y-128143000D01*
X153289000Y-128143000D02*
X160020000Y-134874000D01*
X160020000Y-134874000D02*
X161036000Y-134874000D01*
X161036000Y-134874000D02*
X163449000Y-132461000D01*
X163449000Y-132461000D02*
X163576000Y-132334000D01*
X163576000Y-132334000D02*
X163576000Y-129413000D01*
X163576000Y-129413000D02*
X164719000Y-128270000D01*
X164719000Y-128270000D02*
X165481000Y-128270000D01*
X165481000Y-128270000D02*
X165989000Y-128778000D01*
X165989000Y-128778000D02*
X166116000Y-128905000D01*
X166116000Y-128905000D02*
X166116000Y-128905000D01*
M02*
