G04 #@! TF.GenerationSoftware,KiCad,Pcbnew,(5.1.10)-1*
G04 #@! TF.CreationDate,2021-09-29T00:11:51-04:00*
G04 #@! TF.ProjectId,led_sensor,6c65645f-7365-46e7-936f-722e6b696361,rev?*
G04 #@! TF.SameCoordinates,Original*
G04 #@! TF.FileFunction,Copper,L2,Inr*
G04 #@! TF.FilePolarity,Positive*
%FSLAX46Y46*%
G04 Gerber Fmt 4.6, Leading zero omitted, Abs format (unit mm)*
G04 Created by KiCad (PCBNEW (5.1.10)-1) date 2021-09-29 00:11:51*
%MOMM*%
%LPD*%
G01*
G04 APERTURE LIST*
G04 #@! TA.AperFunction,ComponentPad*
%ADD10C,5.000000*%
G04 #@! TD*
G04 #@! TA.AperFunction,ViaPad*
%ADD11C,1.016000*%
G04 #@! TD*
G04 #@! TA.AperFunction,Conductor*
%ADD12C,0.381000*%
G04 #@! TD*
G04 APERTURE END LIST*
D10*
X161671000Y-140970000D03*
X205359000Y-140970000D03*
X205359000Y-121158000D03*
X226441000Y-140970000D03*
X215900000Y-140970000D03*
X236982000Y-140970000D03*
X85344000Y-140970000D03*
X74803000Y-140970000D03*
X64262000Y-140970000D03*
X95885000Y-140970000D03*
X122936000Y-121158000D03*
X139446000Y-121158000D03*
X150622000Y-121158000D03*
X150622000Y-140970000D03*
X226441000Y-121158000D03*
X236982000Y-121158000D03*
X215900000Y-121158000D03*
X95885000Y-121158000D03*
X85344000Y-121158000D03*
X74803000Y-121158000D03*
X64262000Y-121158000D03*
X172466000Y-121158000D03*
X161925000Y-121158000D03*
X183007000Y-121031000D03*
D11*
X149860000Y-136779000D03*
X34036000Y-128397000D03*
X101981000Y-128651000D03*
X134112000Y-129032000D03*
X200914000Y-128143000D03*
X266192000Y-128905000D03*
X233934000Y-128143000D03*
X167894000Y-128143000D03*
X69088000Y-126238000D03*
X37592000Y-126238000D03*
X67945000Y-133731000D03*
X133985000Y-133858000D03*
X266065000Y-133477000D03*
X233045000Y-133858000D03*
X200025000Y-133858000D03*
X167005000Y-132029200D03*
X34925000Y-134747000D03*
X100965000Y-133223000D03*
X146939000Y-131572000D03*
X265049000Y-128397000D03*
X147066000Y-133985000D03*
X132969000Y-128397000D03*
X147320000Y-135509000D03*
X100076000Y-127762000D03*
X148463000Y-136525000D03*
X67056000Y-128270000D03*
X151384000Y-136652000D03*
X145923000Y-130429000D03*
X232156000Y-128778000D03*
X145923000Y-128905000D03*
X199136000Y-128778000D03*
X147193000Y-128143000D03*
X166116000Y-128905000D03*
D12*
X64262000Y-121158000D02*
X64262000Y-140970000D01*
X74803000Y-121158000D02*
X74803000Y-140970000D01*
X85344000Y-121158000D02*
X85344000Y-140970000D01*
X95885000Y-121158000D02*
X95885000Y-140970000D01*
X205359000Y-121158000D02*
X205359000Y-140970000D01*
X215900000Y-121158000D02*
X215900000Y-140970000D01*
X226441000Y-121158000D02*
X226441000Y-140970000D01*
X236982000Y-121158000D02*
X236982000Y-140970000D01*
M02*
