M48
; DRILL file {KiCad (5.1.10)-1} date 10/20/21 16:50:00
; FORMAT={-:-/ absolute / inch / decimal}
; #@! TF.CreationDate,2021-10-20T16:50:00-04:00
; #@! TF.GenerationSoftware,Kicad,Pcbnew,(5.1.10)-1
FMAT,2
INCH
T1C0.0200
T2C0.1000
T3C0.0866
%
G90
G05
T1
X1.337Y-4.948
X1.375Y-5.305
X1.41Y-4.948
X2.64Y-4.986
X2.675Y-5.265
X2.712Y-4.95
X3.938Y-4.992
X3.975Y-5.245
X4.008Y-4.952
X5.247Y-4.995
X5.275Y-5.27
X5.311Y-4.994
X5.699Y-5.092
X5.745Y-5.075
X5.745Y-5.135
X5.785Y-5.18
X5.79Y-5.275
X5.795Y-5.045
X5.8Y-5.335
X5.845Y-5.375
X5.9Y-5.385
X5.96Y-5.38
X6.539Y-5.018
X6.579Y-5.248
X6.613Y-4.974
X7.205Y-5.23
X7.773Y-5.064
X7.875Y-5.27
X7.909Y-4.976
X9.081Y-5.05
X9.175Y-5.27
X9.21Y-4.976
X10.371Y-5.064
X10.475Y-5.255
X10.511Y-5.006
T2
X2.53Y-4.77
X2.53Y-5.55
X2.945Y-4.77
X2.945Y-5.55
X3.36Y-4.77
X3.36Y-5.55
X3.775Y-4.77
X3.775Y-5.55
X4.84Y-4.77
X5.49Y-4.77
X5.93Y-4.77
X5.93Y-5.55
X6.345Y-5.55
X6.375Y-4.77
X6.79Y-4.77
X7.205Y-4.77
X8.085Y-5.55
X8.09Y-4.77
X8.5Y-5.55
X8.505Y-4.77
X8.915Y-5.55
X8.92Y-4.77
X9.33Y-5.55
X9.335Y-4.77
T3
X0.835Y-4.765
X0.835Y-5.555
X11.025Y-4.765
X11.025Y-5.555
T0
M30
