G04 #@! TF.GenerationSoftware,KiCad,Pcbnew,(5.1.10)-1*
G04 #@! TF.CreationDate,2021-09-29T00:11:51-04:00*
G04 #@! TF.ProjectId,led_sensor,6c65645f-7365-46e7-936f-722e6b696361,rev?*
G04 #@! TF.SameCoordinates,Original*
G04 #@! TF.FileFunction,Copper,L1,Top*
G04 #@! TF.FilePolarity,Positive*
%FSLAX46Y46*%
G04 Gerber Fmt 4.6, Leading zero omitted, Abs format (unit mm)*
G04 Created by KiCad (PCBNEW (5.1.10)-1) date 2021-09-29 00:11:51*
%MOMM*%
%LPD*%
G01*
G04 APERTURE LIST*
G04 #@! TA.AperFunction,ComponentPad*
%ADD10C,5.000000*%
G04 #@! TD*
G04 #@! TA.AperFunction,SMDPad,CuDef*
%ADD11R,0.450000X0.650000*%
G04 #@! TD*
G04 #@! TA.AperFunction,SMDPad,CuDef*
%ADD12R,0.700000X0.400000*%
G04 #@! TD*
G04 #@! TA.AperFunction,SMDPad,CuDef*
%ADD13R,0.450000X1.475000*%
G04 #@! TD*
G04 #@! TA.AperFunction,ViaPad*
%ADD14C,1.016000*%
G04 #@! TD*
G04 #@! TA.AperFunction,Conductor*
%ADD15C,0.381000*%
G04 #@! TD*
G04 #@! TA.AperFunction,Conductor*
%ADD16C,0.250000*%
G04 #@! TD*
G04 APERTURE END LIST*
D10*
X161671000Y-140970000D03*
X205359000Y-140970000D03*
X205359000Y-121158000D03*
X226441000Y-140970000D03*
X215900000Y-140970000D03*
X236982000Y-140970000D03*
X85344000Y-140970000D03*
X74803000Y-140970000D03*
X64262000Y-140970000D03*
X95885000Y-140970000D03*
X122936000Y-121158000D03*
X139446000Y-121158000D03*
X150622000Y-121158000D03*
X150622000Y-140970000D03*
X226441000Y-121158000D03*
X236982000Y-121158000D03*
X215900000Y-121158000D03*
X95885000Y-121158000D03*
X85344000Y-121158000D03*
X74803000Y-121158000D03*
X64262000Y-121158000D03*
X172466000Y-121158000D03*
X161925000Y-121158000D03*
X183007000Y-121031000D03*
D11*
X266065000Y-132029200D03*
X267004800Y-130175000D03*
X265176000Y-130175000D03*
D12*
X269240000Y-130149600D03*
X269240000Y-131445000D03*
X236143800Y-130149600D03*
X236143800Y-131445000D03*
D11*
X233045000Y-132029200D03*
X233984800Y-130175000D03*
X232156000Y-130175000D03*
D12*
X203123800Y-130149600D03*
X203123800Y-131445000D03*
D11*
X200025000Y-132029200D03*
X200964800Y-130175000D03*
X199136000Y-130175000D03*
D12*
X170180000Y-130276600D03*
X170180000Y-131572000D03*
D11*
X167005000Y-132029200D03*
X167944800Y-130175000D03*
X166116000Y-130175000D03*
D12*
X137083800Y-130149600D03*
X137083800Y-131445000D03*
D11*
X133985000Y-132029200D03*
X134924800Y-130175000D03*
X133096000Y-130175000D03*
D12*
X104140000Y-130276600D03*
X104140000Y-131572000D03*
D11*
X100965000Y-132029200D03*
X101904800Y-130175000D03*
X100076000Y-130175000D03*
D12*
X71120000Y-130276600D03*
X71120000Y-131572000D03*
D11*
X67945000Y-132029200D03*
X68884800Y-130175000D03*
X67056000Y-130175000D03*
X34925000Y-132029200D03*
X35864800Y-130175000D03*
X34036000Y-130175000D03*
D12*
X38023800Y-130403600D03*
X38023800Y-131699000D03*
D13*
X148347000Y-133875000D03*
X148997000Y-133875000D03*
X149647000Y-133875000D03*
X150297000Y-133875000D03*
X150947000Y-133875000D03*
X151597000Y-133875000D03*
X152247000Y-133875000D03*
X152897000Y-133875000D03*
X152897000Y-127999000D03*
X152247000Y-127999000D03*
X151597000Y-127999000D03*
X150947000Y-127999000D03*
X150297000Y-127999000D03*
X149647000Y-127999000D03*
X148997000Y-127999000D03*
X148347000Y-127999000D03*
D14*
X149860000Y-136779000D03*
X34036000Y-128397000D03*
X101981000Y-128651000D03*
X134112000Y-129032000D03*
X200914000Y-128143000D03*
X266192000Y-128905000D03*
X233934000Y-128143000D03*
X167894000Y-128143000D03*
X69088000Y-126238000D03*
X37592000Y-126238000D03*
X67945000Y-133731000D03*
X133985000Y-133858000D03*
X266065000Y-133477000D03*
X233045000Y-133858000D03*
X200025000Y-133858000D03*
X167005000Y-132029200D03*
X34925000Y-134747000D03*
X100965000Y-133223000D03*
X146939000Y-131572000D03*
X265049000Y-128397000D03*
X147066000Y-133985000D03*
X132969000Y-128397000D03*
X147320000Y-135509000D03*
X100076000Y-127762000D03*
X148463000Y-136525000D03*
X67056000Y-128270000D03*
X151384000Y-136652000D03*
X145923000Y-130429000D03*
X232156000Y-128778000D03*
X145923000Y-128905000D03*
X199136000Y-128778000D03*
X147193000Y-128143000D03*
X166116000Y-128905000D03*
D15*
X150297000Y-136342000D02*
X149860000Y-136779000D01*
X150297000Y-133875000D02*
X150297000Y-136342000D01*
X34036000Y-128397000D02*
X34036000Y-130175000D01*
D16*
X167894000Y-130124200D02*
X167944800Y-130175000D01*
D15*
X35941000Y-130098800D02*
X35864800Y-130175000D01*
X134874000Y-130124200D02*
X134924800Y-130175000D01*
X267081000Y-130098800D02*
X267004800Y-130175000D01*
X233934000Y-130124200D02*
X233984800Y-130175000D01*
X139446000Y-121158000D02*
X143764000Y-121158000D01*
X148347000Y-125741000D02*
X148347000Y-127999000D01*
X143764000Y-121158000D02*
X148347000Y-125741000D01*
X101981000Y-130098800D02*
X101904800Y-130175000D01*
X101981000Y-128651000D02*
X101981000Y-130098800D01*
X134112000Y-129362200D02*
X134924800Y-130175000D01*
X134112000Y-129032000D02*
X134112000Y-129362200D01*
X200914000Y-130124200D02*
X200964800Y-130175000D01*
X200914000Y-128143000D02*
X200914000Y-130124200D01*
X266192000Y-129362200D02*
X267004800Y-130175000D01*
X266192000Y-128905000D02*
X266192000Y-129362200D01*
X233984800Y-128193800D02*
X233934000Y-128143000D01*
X233984800Y-130175000D02*
X233984800Y-128193800D01*
X167944800Y-128193800D02*
X167894000Y-128143000D01*
X167944800Y-130175000D02*
X167944800Y-128193800D01*
X68834000Y-127889000D02*
X68834000Y-130124200D01*
X69088000Y-126238000D02*
X68834000Y-127889000D01*
X68834000Y-130124200D02*
X68884800Y-130175000D01*
X35814000Y-130124200D02*
X35864800Y-130175000D01*
X37592000Y-126238000D02*
X35814000Y-128651000D01*
X35814000Y-128651000D02*
X35814000Y-130124200D01*
X152544000Y-133875000D02*
X152544000Y-131809000D01*
X152247000Y-133875000D02*
X152544000Y-133875000D01*
X152544000Y-133875000D02*
X152897000Y-133875000D01*
X179062490Y-124975510D02*
X183007000Y-121031000D01*
X159377490Y-124975510D02*
X179062490Y-124975510D01*
X152544000Y-131809000D02*
X159377490Y-124975510D01*
X67945000Y-132029200D02*
X67945000Y-133731000D01*
X133985000Y-132029200D02*
X133985000Y-133858000D01*
X266065000Y-132029200D02*
X266065000Y-133477000D01*
X233045000Y-133858000D02*
X233045000Y-132029200D01*
X200025000Y-133858000D02*
X200025000Y-132029200D01*
X34925000Y-132029200D02*
X34925000Y-134747000D01*
X100965000Y-133223000D02*
X100965000Y-132029200D01*
X148904418Y-131572000D02*
X146939000Y-131572000D01*
X150947000Y-129529418D02*
X148904418Y-131572000D01*
X150947000Y-127999000D02*
X150947000Y-129529418D01*
X265049000Y-130048000D02*
X265176000Y-130175000D01*
X265049000Y-128397000D02*
X265049000Y-130048000D01*
X147176000Y-133875000D02*
X147066000Y-133985000D01*
X148347000Y-133875000D02*
X147176000Y-133875000D01*
X132969000Y-130048000D02*
X133096000Y-130175000D01*
X132969000Y-128397000D02*
X132969000Y-130048000D01*
X148378402Y-135509000D02*
X147320000Y-135509000D01*
X148997000Y-134890402D02*
X148378402Y-135509000D01*
X148997000Y-133875000D02*
X148997000Y-134890402D01*
X100076000Y-127762000D02*
X100076000Y-130175000D01*
D16*
X66929000Y-130302000D02*
X67056000Y-130175000D01*
D15*
X149647000Y-135341000D02*
X148463000Y-136525000D01*
X149647000Y-133875000D02*
X149647000Y-135341000D01*
X67056000Y-128270000D02*
X67056000Y-130175000D01*
X150947000Y-133875000D02*
X150947000Y-136215000D01*
X150947000Y-136215000D02*
X151384000Y-136652000D01*
X151384000Y-136652000D02*
X151384000Y-136652000D01*
D16*
X172466000Y-121158000D02*
X169164000Y-124460000D01*
X156436000Y-124460000D02*
X152897000Y-127999000D01*
X169164000Y-124460000D02*
X156436000Y-124460000D01*
X152247000Y-127026000D02*
X152247000Y-127999000D01*
X158115000Y-121158000D02*
X152247000Y-127026000D01*
X161925000Y-121158000D02*
X158115000Y-121158000D01*
X151597000Y-122133000D02*
X151597000Y-127999000D01*
X150622000Y-121158000D02*
X151597000Y-122133000D01*
D15*
X149225746Y-130429000D02*
X145923000Y-130429000D01*
X150297000Y-129357746D02*
X149225746Y-130429000D01*
X150297000Y-127999000D02*
X150297000Y-129357746D01*
X232156000Y-128778000D02*
X232156000Y-130175000D01*
X146726010Y-129708010D02*
X145923000Y-128905000D01*
X149125064Y-129708010D02*
X146726010Y-129708010D01*
X149578010Y-129255064D02*
X149125064Y-129708010D01*
X149578010Y-128932990D02*
X149578010Y-129255064D01*
X149647000Y-128864000D02*
X149578010Y-128932990D01*
X149647000Y-127999000D02*
X149647000Y-128864000D01*
X199136000Y-128778000D02*
X199136000Y-130175000D01*
X147193000Y-128708685D02*
X147193000Y-128143000D01*
X147611316Y-129127001D02*
X147193000Y-128708685D01*
X148884401Y-129127001D02*
X147611316Y-129127001D01*
X148997000Y-129014402D02*
X148884401Y-129127001D01*
X148997000Y-127999000D02*
X148997000Y-129014402D01*
X166116000Y-128905000D02*
X166116000Y-130175000D01*
D16*
X37973000Y-130352800D02*
X38023800Y-130403600D01*
D15*
X47269400Y-121158000D02*
X38023800Y-130403600D01*
X64262000Y-121158000D02*
X47269400Y-121158000D01*
X38023800Y-131699000D02*
X38023800Y-132638800D01*
X38023800Y-132638800D02*
X40388001Y-135003001D01*
X141097000Y-131445000D02*
X144843500Y-135191500D01*
X137083800Y-131445000D02*
X141097000Y-131445000D01*
X144843500Y-135191500D02*
X150622000Y-140970000D01*
X144655001Y-135003001D02*
X144843500Y-135191500D01*
X104902000Y-131572000D02*
X108333001Y-135003001D01*
X104140000Y-131572000D02*
X104902000Y-131572000D01*
X108333001Y-135003001D02*
X144655001Y-135003001D01*
X71755000Y-131572000D02*
X75186001Y-135003001D01*
X75186001Y-135003001D02*
X108333001Y-135003001D01*
X71120000Y-131572000D02*
X71755000Y-131572000D01*
X40388001Y-135003001D02*
X75186001Y-135003001D01*
X156718000Y-134874000D02*
X150622000Y-140970000D01*
X170180000Y-131572000D02*
X170180000Y-133985000D01*
X169291000Y-134874000D02*
X168910000Y-134874000D01*
X170180000Y-133985000D02*
X169291000Y-134874000D01*
X168910000Y-134874000D02*
X156718000Y-134874000D01*
X203123800Y-131445000D02*
X203123800Y-133807200D01*
X202057000Y-134874000D02*
X168910000Y-134874000D01*
X203123800Y-133807200D02*
X202057000Y-134874000D01*
X236143800Y-131445000D02*
X236143800Y-133807200D01*
X235077000Y-134874000D02*
X202057000Y-134874000D01*
X236143800Y-133807200D02*
X235077000Y-134874000D01*
X269240000Y-133096000D02*
X269240000Y-131445000D01*
X267462000Y-134874000D02*
X269240000Y-133096000D01*
X235077000Y-134874000D02*
X267462000Y-134874000D01*
X150622000Y-140970000D02*
X161671000Y-140970000D01*
X74803000Y-126593600D02*
X71120000Y-130276600D01*
X74803000Y-121158000D02*
X74803000Y-126593600D01*
X104140000Y-129032000D02*
X104140000Y-130276600D01*
X101346000Y-126238000D02*
X104140000Y-129032000D01*
X90424000Y-126238000D02*
X101346000Y-126238000D01*
X85344000Y-121158000D02*
X90424000Y-126238000D01*
D16*
X137083800Y-129699600D02*
X137083800Y-130149600D01*
D15*
X133807200Y-126873000D02*
X137083800Y-130149600D01*
X116840000Y-126873000D02*
X133807200Y-126873000D01*
X111125000Y-121158000D02*
X116840000Y-126873000D01*
X95885000Y-121158000D02*
X111125000Y-121158000D01*
X205359000Y-121158000D02*
X195707000Y-121158000D01*
X195707000Y-121158000D02*
X186563000Y-130302000D01*
X186537600Y-130276600D02*
X170180000Y-130276600D01*
X186563000Y-130302000D02*
X186537600Y-130276600D01*
X212115400Y-121158000D02*
X203123800Y-130149600D01*
X215900000Y-121158000D02*
X212115400Y-121158000D01*
X226441000Y-121158000D02*
X230632000Y-121158000D01*
X230632000Y-121158000D02*
X234950000Y-125476000D01*
X234950000Y-125476000D02*
X236220000Y-126746000D01*
X236220000Y-130073400D02*
X236143800Y-130149600D01*
X236220000Y-126746000D02*
X236220000Y-130073400D01*
D16*
X269240000Y-129958158D02*
X269240000Y-130149600D01*
D15*
X260248400Y-121158000D02*
X269240000Y-130149600D01*
X236982000Y-121158000D02*
X260248400Y-121158000D01*
X138597058Y-124587000D02*
X126492000Y-124587000D01*
X146598058Y-132588000D02*
X138597058Y-124587000D01*
X151325402Y-132588000D02*
X146598058Y-132588000D01*
X126492000Y-124587000D02*
X122936000Y-121031000D01*
X151597000Y-132859598D02*
X151325402Y-132588000D01*
X151597000Y-133875000D02*
X151597000Y-132859598D01*
M02*
