G04 #@! TF.GenerationSoftware,KiCad,Pcbnew,(5.1.10)-1*
G04 #@! TF.CreationDate,2021-10-20T16:50:17-04:00*
G04 #@! TF.ProjectId,led_sensor,6c65645f-7365-46e7-936f-722e6b696361,rev?*
G04 #@! TF.SameCoordinates,Original*
G04 #@! TF.FileFunction,Paste,Top*
G04 #@! TF.FilePolarity,Positive*
%FSLAX46Y46*%
G04 Gerber Fmt 4.6, Leading zero omitted, Abs format (unit mm)*
G04 Created by KiCad (PCBNEW (5.1.10)-1) date 2021-10-20 16:50:17*
%MOMM*%
%LPD*%
G01*
G04 APERTURE LIST*
%ADD10R,2.000000X2.000000*%
%ADD11R,0.450000X0.650000*%
%ADD12R,0.450000X1.475000*%
%ADD13R,0.620000X0.600000*%
%ADD14R,0.800000X1.000000*%
G04 APERTURE END LIST*
D10*
X270230600Y-129616200D03*
X270230600Y-132791200D03*
X237032800Y-129463800D03*
X237032800Y-132638800D03*
X203885800Y-129540000D03*
X203885800Y-132715000D03*
X170967400Y-129463800D03*
X170967400Y-132638800D03*
X137553700Y-129641600D03*
X137553700Y-132816600D03*
X104622600Y-129489200D03*
X104622600Y-132664200D03*
X72567800Y-129514600D03*
X72567800Y-132689600D03*
D11*
X266065000Y-132029200D03*
X267004800Y-130175000D03*
X265176000Y-130175000D03*
X233045000Y-132029200D03*
X233984800Y-130175000D03*
X232156000Y-130175000D03*
X200025000Y-132029200D03*
X200964800Y-130175000D03*
X199136000Y-130175000D03*
X167005000Y-132029200D03*
X167944800Y-130175000D03*
X166116000Y-130175000D03*
X133985000Y-132029200D03*
X134924800Y-130175000D03*
X133096000Y-130175000D03*
X100965000Y-132029200D03*
X101904800Y-130175000D03*
X100076000Y-130175000D03*
X67945000Y-132029200D03*
X68884800Y-130175000D03*
X67056000Y-130175000D03*
X34925000Y-132029200D03*
X35864800Y-130175000D03*
X34036000Y-130175000D03*
D12*
X148347000Y-133875000D03*
X148997000Y-133875000D03*
X149647000Y-133875000D03*
X150297000Y-133875000D03*
X150947000Y-133875000D03*
X151597000Y-133875000D03*
X152247000Y-133875000D03*
X152897000Y-133875000D03*
X152897000Y-127999000D03*
X152247000Y-127999000D03*
X151597000Y-127999000D03*
X150947000Y-127999000D03*
X150297000Y-127999000D03*
X149647000Y-127999000D03*
X148997000Y-127999000D03*
X148347000Y-127999000D03*
D13*
X143941800Y-127248400D03*
X143941800Y-128168400D03*
D14*
X33998800Y-127863600D03*
X35698800Y-127863600D03*
X68820400Y-128422400D03*
X67120400Y-128422400D03*
X100165800Y-128574800D03*
X101865800Y-128574800D03*
X134860400Y-128371600D03*
X133160400Y-128371600D03*
X166205800Y-128854200D03*
X167905800Y-128854200D03*
X200875000Y-128676400D03*
X199175000Y-128676400D03*
X232245800Y-128270000D03*
X233945800Y-128270000D03*
X266915000Y-128574800D03*
X265215000Y-128574800D03*
D10*
X38912800Y-132689600D03*
X38912800Y-129514600D03*
M02*
