G04 #@! TF.GenerationSoftware,KiCad,Pcbnew,(5.1.10)-1*
G04 #@! TF.CreationDate,2021-09-29T00:11:52-04:00*
G04 #@! TF.ProjectId,led_sensor,6c65645f-7365-46e7-936f-722e6b696361,rev?*
G04 #@! TF.SameCoordinates,Original*
G04 #@! TF.FileFunction,Soldermask,Top*
G04 #@! TF.FilePolarity,Negative*
%FSLAX46Y46*%
G04 Gerber Fmt 4.6, Leading zero omitted, Abs format (unit mm)*
G04 Created by KiCad (PCBNEW (5.1.10)-1) date 2021-09-29 00:11:52*
%MOMM*%
%LPD*%
G01*
G04 APERTURE LIST*
%ADD10C,5.102000*%
%ADD11C,0.100000*%
G04 APERTURE END LIST*
D10*
X161671000Y-140970000D03*
X205359000Y-140970000D03*
X205359000Y-121158000D03*
X226441000Y-140970000D03*
X215900000Y-140970000D03*
X236982000Y-140970000D03*
X85344000Y-140970000D03*
X74803000Y-140970000D03*
X64262000Y-140970000D03*
X95885000Y-140970000D03*
X122936000Y-121158000D03*
X139446000Y-121158000D03*
X150622000Y-121158000D03*
X150622000Y-140970000D03*
X226441000Y-121158000D03*
X236982000Y-121158000D03*
X215900000Y-121158000D03*
X95885000Y-121158000D03*
X85344000Y-121158000D03*
X74803000Y-121158000D03*
X64262000Y-121158000D03*
X172466000Y-121158000D03*
X161925000Y-121158000D03*
X183007000Y-121031000D03*
G36*
G01*
X266290000Y-132405200D02*
X265840000Y-132405200D01*
G75*
G02*
X265789000Y-132354200I0J51000D01*
G01*
X265789000Y-131704200D01*
G75*
G02*
X265840000Y-131653200I51000J0D01*
G01*
X266290000Y-131653200D01*
G75*
G02*
X266341000Y-131704200I0J-51000D01*
G01*
X266341000Y-132354200D01*
G75*
G02*
X266290000Y-132405200I-51000J0D01*
G01*
G37*
G36*
G01*
X267229800Y-130551000D02*
X266779800Y-130551000D01*
G75*
G02*
X266728800Y-130500000I0J51000D01*
G01*
X266728800Y-129850000D01*
G75*
G02*
X266779800Y-129799000I51000J0D01*
G01*
X267229800Y-129799000D01*
G75*
G02*
X267280800Y-129850000I0J-51000D01*
G01*
X267280800Y-130500000D01*
G75*
G02*
X267229800Y-130551000I-51000J0D01*
G01*
G37*
G36*
G01*
X265401000Y-130551000D02*
X264951000Y-130551000D01*
G75*
G02*
X264900000Y-130500000I0J51000D01*
G01*
X264900000Y-129850000D01*
G75*
G02*
X264951000Y-129799000I51000J0D01*
G01*
X265401000Y-129799000D01*
G75*
G02*
X265452000Y-129850000I0J-51000D01*
G01*
X265452000Y-130500000D01*
G75*
G02*
X265401000Y-130551000I-51000J0D01*
G01*
G37*
G36*
G01*
X269590000Y-130400600D02*
X268890000Y-130400600D01*
G75*
G02*
X268839000Y-130349600I0J51000D01*
G01*
X268839000Y-129949600D01*
G75*
G02*
X268890000Y-129898600I51000J0D01*
G01*
X269590000Y-129898600D01*
G75*
G02*
X269641000Y-129949600I0J-51000D01*
G01*
X269641000Y-130349600D01*
G75*
G02*
X269590000Y-130400600I-51000J0D01*
G01*
G37*
G36*
G01*
X268890000Y-131194000D02*
X269590000Y-131194000D01*
G75*
G02*
X269641000Y-131245000I0J-51000D01*
G01*
X269641000Y-131645000D01*
G75*
G02*
X269590000Y-131696000I-51000J0D01*
G01*
X268890000Y-131696000D01*
G75*
G02*
X268839000Y-131645000I0J51000D01*
G01*
X268839000Y-131245000D01*
G75*
G02*
X268890000Y-131194000I51000J0D01*
G01*
G37*
G36*
G01*
X236493800Y-130400600D02*
X235793800Y-130400600D01*
G75*
G02*
X235742800Y-130349600I0J51000D01*
G01*
X235742800Y-129949600D01*
G75*
G02*
X235793800Y-129898600I51000J0D01*
G01*
X236493800Y-129898600D01*
G75*
G02*
X236544800Y-129949600I0J-51000D01*
G01*
X236544800Y-130349600D01*
G75*
G02*
X236493800Y-130400600I-51000J0D01*
G01*
G37*
G36*
G01*
X235793800Y-131194000D02*
X236493800Y-131194000D01*
G75*
G02*
X236544800Y-131245000I0J-51000D01*
G01*
X236544800Y-131645000D01*
G75*
G02*
X236493800Y-131696000I-51000J0D01*
G01*
X235793800Y-131696000D01*
G75*
G02*
X235742800Y-131645000I0J51000D01*
G01*
X235742800Y-131245000D01*
G75*
G02*
X235793800Y-131194000I51000J0D01*
G01*
G37*
G36*
G01*
X233270000Y-132405200D02*
X232820000Y-132405200D01*
G75*
G02*
X232769000Y-132354200I0J51000D01*
G01*
X232769000Y-131704200D01*
G75*
G02*
X232820000Y-131653200I51000J0D01*
G01*
X233270000Y-131653200D01*
G75*
G02*
X233321000Y-131704200I0J-51000D01*
G01*
X233321000Y-132354200D01*
G75*
G02*
X233270000Y-132405200I-51000J0D01*
G01*
G37*
G36*
G01*
X234209800Y-130551000D02*
X233759800Y-130551000D01*
G75*
G02*
X233708800Y-130500000I0J51000D01*
G01*
X233708800Y-129850000D01*
G75*
G02*
X233759800Y-129799000I51000J0D01*
G01*
X234209800Y-129799000D01*
G75*
G02*
X234260800Y-129850000I0J-51000D01*
G01*
X234260800Y-130500000D01*
G75*
G02*
X234209800Y-130551000I-51000J0D01*
G01*
G37*
G36*
G01*
X232381000Y-130551000D02*
X231931000Y-130551000D01*
G75*
G02*
X231880000Y-130500000I0J51000D01*
G01*
X231880000Y-129850000D01*
G75*
G02*
X231931000Y-129799000I51000J0D01*
G01*
X232381000Y-129799000D01*
G75*
G02*
X232432000Y-129850000I0J-51000D01*
G01*
X232432000Y-130500000D01*
G75*
G02*
X232381000Y-130551000I-51000J0D01*
G01*
G37*
G36*
G01*
X203473800Y-130400600D02*
X202773800Y-130400600D01*
G75*
G02*
X202722800Y-130349600I0J51000D01*
G01*
X202722800Y-129949600D01*
G75*
G02*
X202773800Y-129898600I51000J0D01*
G01*
X203473800Y-129898600D01*
G75*
G02*
X203524800Y-129949600I0J-51000D01*
G01*
X203524800Y-130349600D01*
G75*
G02*
X203473800Y-130400600I-51000J0D01*
G01*
G37*
G36*
G01*
X202773800Y-131194000D02*
X203473800Y-131194000D01*
G75*
G02*
X203524800Y-131245000I0J-51000D01*
G01*
X203524800Y-131645000D01*
G75*
G02*
X203473800Y-131696000I-51000J0D01*
G01*
X202773800Y-131696000D01*
G75*
G02*
X202722800Y-131645000I0J51000D01*
G01*
X202722800Y-131245000D01*
G75*
G02*
X202773800Y-131194000I51000J0D01*
G01*
G37*
G36*
G01*
X200250000Y-132405200D02*
X199800000Y-132405200D01*
G75*
G02*
X199749000Y-132354200I0J51000D01*
G01*
X199749000Y-131704200D01*
G75*
G02*
X199800000Y-131653200I51000J0D01*
G01*
X200250000Y-131653200D01*
G75*
G02*
X200301000Y-131704200I0J-51000D01*
G01*
X200301000Y-132354200D01*
G75*
G02*
X200250000Y-132405200I-51000J0D01*
G01*
G37*
G36*
G01*
X201189800Y-130551000D02*
X200739800Y-130551000D01*
G75*
G02*
X200688800Y-130500000I0J51000D01*
G01*
X200688800Y-129850000D01*
G75*
G02*
X200739800Y-129799000I51000J0D01*
G01*
X201189800Y-129799000D01*
G75*
G02*
X201240800Y-129850000I0J-51000D01*
G01*
X201240800Y-130500000D01*
G75*
G02*
X201189800Y-130551000I-51000J0D01*
G01*
G37*
G36*
G01*
X199361000Y-130551000D02*
X198911000Y-130551000D01*
G75*
G02*
X198860000Y-130500000I0J51000D01*
G01*
X198860000Y-129850000D01*
G75*
G02*
X198911000Y-129799000I51000J0D01*
G01*
X199361000Y-129799000D01*
G75*
G02*
X199412000Y-129850000I0J-51000D01*
G01*
X199412000Y-130500000D01*
G75*
G02*
X199361000Y-130551000I-51000J0D01*
G01*
G37*
G36*
G01*
X170530000Y-130527600D02*
X169830000Y-130527600D01*
G75*
G02*
X169779000Y-130476600I0J51000D01*
G01*
X169779000Y-130076600D01*
G75*
G02*
X169830000Y-130025600I51000J0D01*
G01*
X170530000Y-130025600D01*
G75*
G02*
X170581000Y-130076600I0J-51000D01*
G01*
X170581000Y-130476600D01*
G75*
G02*
X170530000Y-130527600I-51000J0D01*
G01*
G37*
G36*
G01*
X169830000Y-131321000D02*
X170530000Y-131321000D01*
G75*
G02*
X170581000Y-131372000I0J-51000D01*
G01*
X170581000Y-131772000D01*
G75*
G02*
X170530000Y-131823000I-51000J0D01*
G01*
X169830000Y-131823000D01*
G75*
G02*
X169779000Y-131772000I0J51000D01*
G01*
X169779000Y-131372000D01*
G75*
G02*
X169830000Y-131321000I51000J0D01*
G01*
G37*
G36*
G01*
X167230000Y-132405200D02*
X166780000Y-132405200D01*
G75*
G02*
X166729000Y-132354200I0J51000D01*
G01*
X166729000Y-131704200D01*
G75*
G02*
X166780000Y-131653200I51000J0D01*
G01*
X167230000Y-131653200D01*
G75*
G02*
X167281000Y-131704200I0J-51000D01*
G01*
X167281000Y-132354200D01*
G75*
G02*
X167230000Y-132405200I-51000J0D01*
G01*
G37*
G36*
G01*
X168169800Y-130551000D02*
X167719800Y-130551000D01*
G75*
G02*
X167668800Y-130500000I0J51000D01*
G01*
X167668800Y-129850000D01*
G75*
G02*
X167719800Y-129799000I51000J0D01*
G01*
X168169800Y-129799000D01*
G75*
G02*
X168220800Y-129850000I0J-51000D01*
G01*
X168220800Y-130500000D01*
G75*
G02*
X168169800Y-130551000I-51000J0D01*
G01*
G37*
G36*
G01*
X166341000Y-130551000D02*
X165891000Y-130551000D01*
G75*
G02*
X165840000Y-130500000I0J51000D01*
G01*
X165840000Y-129850000D01*
G75*
G02*
X165891000Y-129799000I51000J0D01*
G01*
X166341000Y-129799000D01*
G75*
G02*
X166392000Y-129850000I0J-51000D01*
G01*
X166392000Y-130500000D01*
G75*
G02*
X166341000Y-130551000I-51000J0D01*
G01*
G37*
G36*
G01*
X137433800Y-130400600D02*
X136733800Y-130400600D01*
G75*
G02*
X136682800Y-130349600I0J51000D01*
G01*
X136682800Y-129949600D01*
G75*
G02*
X136733800Y-129898600I51000J0D01*
G01*
X137433800Y-129898600D01*
G75*
G02*
X137484800Y-129949600I0J-51000D01*
G01*
X137484800Y-130349600D01*
G75*
G02*
X137433800Y-130400600I-51000J0D01*
G01*
G37*
G36*
G01*
X136733800Y-131194000D02*
X137433800Y-131194000D01*
G75*
G02*
X137484800Y-131245000I0J-51000D01*
G01*
X137484800Y-131645000D01*
G75*
G02*
X137433800Y-131696000I-51000J0D01*
G01*
X136733800Y-131696000D01*
G75*
G02*
X136682800Y-131645000I0J51000D01*
G01*
X136682800Y-131245000D01*
G75*
G02*
X136733800Y-131194000I51000J0D01*
G01*
G37*
G36*
G01*
X134210000Y-132405200D02*
X133760000Y-132405200D01*
G75*
G02*
X133709000Y-132354200I0J51000D01*
G01*
X133709000Y-131704200D01*
G75*
G02*
X133760000Y-131653200I51000J0D01*
G01*
X134210000Y-131653200D01*
G75*
G02*
X134261000Y-131704200I0J-51000D01*
G01*
X134261000Y-132354200D01*
G75*
G02*
X134210000Y-132405200I-51000J0D01*
G01*
G37*
G36*
G01*
X135149800Y-130551000D02*
X134699800Y-130551000D01*
G75*
G02*
X134648800Y-130500000I0J51000D01*
G01*
X134648800Y-129850000D01*
G75*
G02*
X134699800Y-129799000I51000J0D01*
G01*
X135149800Y-129799000D01*
G75*
G02*
X135200800Y-129850000I0J-51000D01*
G01*
X135200800Y-130500000D01*
G75*
G02*
X135149800Y-130551000I-51000J0D01*
G01*
G37*
G36*
G01*
X133321000Y-130551000D02*
X132871000Y-130551000D01*
G75*
G02*
X132820000Y-130500000I0J51000D01*
G01*
X132820000Y-129850000D01*
G75*
G02*
X132871000Y-129799000I51000J0D01*
G01*
X133321000Y-129799000D01*
G75*
G02*
X133372000Y-129850000I0J-51000D01*
G01*
X133372000Y-130500000D01*
G75*
G02*
X133321000Y-130551000I-51000J0D01*
G01*
G37*
G36*
G01*
X104490000Y-130527600D02*
X103790000Y-130527600D01*
G75*
G02*
X103739000Y-130476600I0J51000D01*
G01*
X103739000Y-130076600D01*
G75*
G02*
X103790000Y-130025600I51000J0D01*
G01*
X104490000Y-130025600D01*
G75*
G02*
X104541000Y-130076600I0J-51000D01*
G01*
X104541000Y-130476600D01*
G75*
G02*
X104490000Y-130527600I-51000J0D01*
G01*
G37*
G36*
G01*
X103790000Y-131321000D02*
X104490000Y-131321000D01*
G75*
G02*
X104541000Y-131372000I0J-51000D01*
G01*
X104541000Y-131772000D01*
G75*
G02*
X104490000Y-131823000I-51000J0D01*
G01*
X103790000Y-131823000D01*
G75*
G02*
X103739000Y-131772000I0J51000D01*
G01*
X103739000Y-131372000D01*
G75*
G02*
X103790000Y-131321000I51000J0D01*
G01*
G37*
G36*
G01*
X101190000Y-132405200D02*
X100740000Y-132405200D01*
G75*
G02*
X100689000Y-132354200I0J51000D01*
G01*
X100689000Y-131704200D01*
G75*
G02*
X100740000Y-131653200I51000J0D01*
G01*
X101190000Y-131653200D01*
G75*
G02*
X101241000Y-131704200I0J-51000D01*
G01*
X101241000Y-132354200D01*
G75*
G02*
X101190000Y-132405200I-51000J0D01*
G01*
G37*
G36*
G01*
X102129800Y-130551000D02*
X101679800Y-130551000D01*
G75*
G02*
X101628800Y-130500000I0J51000D01*
G01*
X101628800Y-129850000D01*
G75*
G02*
X101679800Y-129799000I51000J0D01*
G01*
X102129800Y-129799000D01*
G75*
G02*
X102180800Y-129850000I0J-51000D01*
G01*
X102180800Y-130500000D01*
G75*
G02*
X102129800Y-130551000I-51000J0D01*
G01*
G37*
G36*
G01*
X100301000Y-130551000D02*
X99851000Y-130551000D01*
G75*
G02*
X99800000Y-130500000I0J51000D01*
G01*
X99800000Y-129850000D01*
G75*
G02*
X99851000Y-129799000I51000J0D01*
G01*
X100301000Y-129799000D01*
G75*
G02*
X100352000Y-129850000I0J-51000D01*
G01*
X100352000Y-130500000D01*
G75*
G02*
X100301000Y-130551000I-51000J0D01*
G01*
G37*
G36*
G01*
X71470000Y-130527600D02*
X70770000Y-130527600D01*
G75*
G02*
X70719000Y-130476600I0J51000D01*
G01*
X70719000Y-130076600D01*
G75*
G02*
X70770000Y-130025600I51000J0D01*
G01*
X71470000Y-130025600D01*
G75*
G02*
X71521000Y-130076600I0J-51000D01*
G01*
X71521000Y-130476600D01*
G75*
G02*
X71470000Y-130527600I-51000J0D01*
G01*
G37*
G36*
G01*
X70770000Y-131321000D02*
X71470000Y-131321000D01*
G75*
G02*
X71521000Y-131372000I0J-51000D01*
G01*
X71521000Y-131772000D01*
G75*
G02*
X71470000Y-131823000I-51000J0D01*
G01*
X70770000Y-131823000D01*
G75*
G02*
X70719000Y-131772000I0J51000D01*
G01*
X70719000Y-131372000D01*
G75*
G02*
X70770000Y-131321000I51000J0D01*
G01*
G37*
G36*
G01*
X68170000Y-132405200D02*
X67720000Y-132405200D01*
G75*
G02*
X67669000Y-132354200I0J51000D01*
G01*
X67669000Y-131704200D01*
G75*
G02*
X67720000Y-131653200I51000J0D01*
G01*
X68170000Y-131653200D01*
G75*
G02*
X68221000Y-131704200I0J-51000D01*
G01*
X68221000Y-132354200D01*
G75*
G02*
X68170000Y-132405200I-51000J0D01*
G01*
G37*
G36*
G01*
X69109800Y-130551000D02*
X68659800Y-130551000D01*
G75*
G02*
X68608800Y-130500000I0J51000D01*
G01*
X68608800Y-129850000D01*
G75*
G02*
X68659800Y-129799000I51000J0D01*
G01*
X69109800Y-129799000D01*
G75*
G02*
X69160800Y-129850000I0J-51000D01*
G01*
X69160800Y-130500000D01*
G75*
G02*
X69109800Y-130551000I-51000J0D01*
G01*
G37*
G36*
G01*
X67281000Y-130551000D02*
X66831000Y-130551000D01*
G75*
G02*
X66780000Y-130500000I0J51000D01*
G01*
X66780000Y-129850000D01*
G75*
G02*
X66831000Y-129799000I51000J0D01*
G01*
X67281000Y-129799000D01*
G75*
G02*
X67332000Y-129850000I0J-51000D01*
G01*
X67332000Y-130500000D01*
G75*
G02*
X67281000Y-130551000I-51000J0D01*
G01*
G37*
G36*
G01*
X35150000Y-132405200D02*
X34700000Y-132405200D01*
G75*
G02*
X34649000Y-132354200I0J51000D01*
G01*
X34649000Y-131704200D01*
G75*
G02*
X34700000Y-131653200I51000J0D01*
G01*
X35150000Y-131653200D01*
G75*
G02*
X35201000Y-131704200I0J-51000D01*
G01*
X35201000Y-132354200D01*
G75*
G02*
X35150000Y-132405200I-51000J0D01*
G01*
G37*
G36*
G01*
X36089800Y-130551000D02*
X35639800Y-130551000D01*
G75*
G02*
X35588800Y-130500000I0J51000D01*
G01*
X35588800Y-129850000D01*
G75*
G02*
X35639800Y-129799000I51000J0D01*
G01*
X36089800Y-129799000D01*
G75*
G02*
X36140800Y-129850000I0J-51000D01*
G01*
X36140800Y-130500000D01*
G75*
G02*
X36089800Y-130551000I-51000J0D01*
G01*
G37*
G36*
G01*
X34261000Y-130551000D02*
X33811000Y-130551000D01*
G75*
G02*
X33760000Y-130500000I0J51000D01*
G01*
X33760000Y-129850000D01*
G75*
G02*
X33811000Y-129799000I51000J0D01*
G01*
X34261000Y-129799000D01*
G75*
G02*
X34312000Y-129850000I0J-51000D01*
G01*
X34312000Y-130500000D01*
G75*
G02*
X34261000Y-130551000I-51000J0D01*
G01*
G37*
G36*
G01*
X38373800Y-130654600D02*
X37673800Y-130654600D01*
G75*
G02*
X37622800Y-130603600I0J51000D01*
G01*
X37622800Y-130203600D01*
G75*
G02*
X37673800Y-130152600I51000J0D01*
G01*
X38373800Y-130152600D01*
G75*
G02*
X38424800Y-130203600I0J-51000D01*
G01*
X38424800Y-130603600D01*
G75*
G02*
X38373800Y-130654600I-51000J0D01*
G01*
G37*
G36*
G01*
X37673800Y-131448000D02*
X38373800Y-131448000D01*
G75*
G02*
X38424800Y-131499000I0J-51000D01*
G01*
X38424800Y-131899000D01*
G75*
G02*
X38373800Y-131950000I-51000J0D01*
G01*
X37673800Y-131950000D01*
G75*
G02*
X37622800Y-131899000I0J51000D01*
G01*
X37622800Y-131499000D01*
G75*
G02*
X37673800Y-131448000I51000J0D01*
G01*
G37*
G36*
G01*
X148623000Y-133137500D02*
X148623000Y-134612500D01*
G75*
G02*
X148572000Y-134663500I-51000J0D01*
G01*
X148122000Y-134663500D01*
G75*
G02*
X148071000Y-134612500I0J51000D01*
G01*
X148071000Y-133137500D01*
G75*
G02*
X148122000Y-133086500I51000J0D01*
G01*
X148572000Y-133086500D01*
G75*
G02*
X148623000Y-133137500I0J-51000D01*
G01*
G37*
G36*
G01*
X149273000Y-133137500D02*
X149273000Y-134612500D01*
G75*
G02*
X149222000Y-134663500I-51000J0D01*
G01*
X148772000Y-134663500D01*
G75*
G02*
X148721000Y-134612500I0J51000D01*
G01*
X148721000Y-133137500D01*
G75*
G02*
X148772000Y-133086500I51000J0D01*
G01*
X149222000Y-133086500D01*
G75*
G02*
X149273000Y-133137500I0J-51000D01*
G01*
G37*
G36*
G01*
X149923000Y-133137500D02*
X149923000Y-134612500D01*
G75*
G02*
X149872000Y-134663500I-51000J0D01*
G01*
X149422000Y-134663500D01*
G75*
G02*
X149371000Y-134612500I0J51000D01*
G01*
X149371000Y-133137500D01*
G75*
G02*
X149422000Y-133086500I51000J0D01*
G01*
X149872000Y-133086500D01*
G75*
G02*
X149923000Y-133137500I0J-51000D01*
G01*
G37*
G36*
G01*
X150573000Y-133137500D02*
X150573000Y-134612500D01*
G75*
G02*
X150522000Y-134663500I-51000J0D01*
G01*
X150072000Y-134663500D01*
G75*
G02*
X150021000Y-134612500I0J51000D01*
G01*
X150021000Y-133137500D01*
G75*
G02*
X150072000Y-133086500I51000J0D01*
G01*
X150522000Y-133086500D01*
G75*
G02*
X150573000Y-133137500I0J-51000D01*
G01*
G37*
G36*
G01*
X151223000Y-133137500D02*
X151223000Y-134612500D01*
G75*
G02*
X151172000Y-134663500I-51000J0D01*
G01*
X150722000Y-134663500D01*
G75*
G02*
X150671000Y-134612500I0J51000D01*
G01*
X150671000Y-133137500D01*
G75*
G02*
X150722000Y-133086500I51000J0D01*
G01*
X151172000Y-133086500D01*
G75*
G02*
X151223000Y-133137500I0J-51000D01*
G01*
G37*
G36*
G01*
X151873000Y-133137500D02*
X151873000Y-134612500D01*
G75*
G02*
X151822000Y-134663500I-51000J0D01*
G01*
X151372000Y-134663500D01*
G75*
G02*
X151321000Y-134612500I0J51000D01*
G01*
X151321000Y-133137500D01*
G75*
G02*
X151372000Y-133086500I51000J0D01*
G01*
X151822000Y-133086500D01*
G75*
G02*
X151873000Y-133137500I0J-51000D01*
G01*
G37*
G36*
G01*
X152523000Y-133137500D02*
X152523000Y-134612500D01*
G75*
G02*
X152472000Y-134663500I-51000J0D01*
G01*
X152022000Y-134663500D01*
G75*
G02*
X151971000Y-134612500I0J51000D01*
G01*
X151971000Y-133137500D01*
G75*
G02*
X152022000Y-133086500I51000J0D01*
G01*
X152472000Y-133086500D01*
G75*
G02*
X152523000Y-133137500I0J-51000D01*
G01*
G37*
G36*
G01*
X153173000Y-133137500D02*
X153173000Y-134612500D01*
G75*
G02*
X153122000Y-134663500I-51000J0D01*
G01*
X152672000Y-134663500D01*
G75*
G02*
X152621000Y-134612500I0J51000D01*
G01*
X152621000Y-133137500D01*
G75*
G02*
X152672000Y-133086500I51000J0D01*
G01*
X153122000Y-133086500D01*
G75*
G02*
X153173000Y-133137500I0J-51000D01*
G01*
G37*
G36*
G01*
X153173000Y-127261500D02*
X153173000Y-128736500D01*
G75*
G02*
X153122000Y-128787500I-51000J0D01*
G01*
X152672000Y-128787500D01*
G75*
G02*
X152621000Y-128736500I0J51000D01*
G01*
X152621000Y-127261500D01*
G75*
G02*
X152672000Y-127210500I51000J0D01*
G01*
X153122000Y-127210500D01*
G75*
G02*
X153173000Y-127261500I0J-51000D01*
G01*
G37*
G36*
G01*
X152523000Y-127261500D02*
X152523000Y-128736500D01*
G75*
G02*
X152472000Y-128787500I-51000J0D01*
G01*
X152022000Y-128787500D01*
G75*
G02*
X151971000Y-128736500I0J51000D01*
G01*
X151971000Y-127261500D01*
G75*
G02*
X152022000Y-127210500I51000J0D01*
G01*
X152472000Y-127210500D01*
G75*
G02*
X152523000Y-127261500I0J-51000D01*
G01*
G37*
G36*
G01*
X151873000Y-127261500D02*
X151873000Y-128736500D01*
G75*
G02*
X151822000Y-128787500I-51000J0D01*
G01*
X151372000Y-128787500D01*
G75*
G02*
X151321000Y-128736500I0J51000D01*
G01*
X151321000Y-127261500D01*
G75*
G02*
X151372000Y-127210500I51000J0D01*
G01*
X151822000Y-127210500D01*
G75*
G02*
X151873000Y-127261500I0J-51000D01*
G01*
G37*
G36*
G01*
X151223000Y-127261500D02*
X151223000Y-128736500D01*
G75*
G02*
X151172000Y-128787500I-51000J0D01*
G01*
X150722000Y-128787500D01*
G75*
G02*
X150671000Y-128736500I0J51000D01*
G01*
X150671000Y-127261500D01*
G75*
G02*
X150722000Y-127210500I51000J0D01*
G01*
X151172000Y-127210500D01*
G75*
G02*
X151223000Y-127261500I0J-51000D01*
G01*
G37*
G36*
G01*
X150573000Y-127261500D02*
X150573000Y-128736500D01*
G75*
G02*
X150522000Y-128787500I-51000J0D01*
G01*
X150072000Y-128787500D01*
G75*
G02*
X150021000Y-128736500I0J51000D01*
G01*
X150021000Y-127261500D01*
G75*
G02*
X150072000Y-127210500I51000J0D01*
G01*
X150522000Y-127210500D01*
G75*
G02*
X150573000Y-127261500I0J-51000D01*
G01*
G37*
G36*
G01*
X149923000Y-127261500D02*
X149923000Y-128736500D01*
G75*
G02*
X149872000Y-128787500I-51000J0D01*
G01*
X149422000Y-128787500D01*
G75*
G02*
X149371000Y-128736500I0J51000D01*
G01*
X149371000Y-127261500D01*
G75*
G02*
X149422000Y-127210500I51000J0D01*
G01*
X149872000Y-127210500D01*
G75*
G02*
X149923000Y-127261500I0J-51000D01*
G01*
G37*
G36*
G01*
X149273000Y-127261500D02*
X149273000Y-128736500D01*
G75*
G02*
X149222000Y-128787500I-51000J0D01*
G01*
X148772000Y-128787500D01*
G75*
G02*
X148721000Y-128736500I0J51000D01*
G01*
X148721000Y-127261500D01*
G75*
G02*
X148772000Y-127210500I51000J0D01*
G01*
X149222000Y-127210500D01*
G75*
G02*
X149273000Y-127261500I0J-51000D01*
G01*
G37*
G36*
G01*
X148623000Y-127261500D02*
X148623000Y-128736500D01*
G75*
G02*
X148572000Y-128787500I-51000J0D01*
G01*
X148122000Y-128787500D01*
G75*
G02*
X148071000Y-128736500I0J51000D01*
G01*
X148071000Y-127261500D01*
G75*
G02*
X148122000Y-127210500I51000J0D01*
G01*
X148572000Y-127210500D01*
G75*
G02*
X148623000Y-127261500I0J-51000D01*
G01*
G37*
D11*
G36*
X152622732Y-133085500D02*
G01*
X152623000Y-133086500D01*
X152623000Y-134663500D01*
X152622000Y-134665232D01*
X152621000Y-134665500D01*
X152523000Y-134665500D01*
X152521268Y-134664500D01*
X152521000Y-134663500D01*
X152521000Y-133086500D01*
X152522000Y-133084768D01*
X152523000Y-133084500D01*
X152621000Y-133084500D01*
X152622732Y-133085500D01*
G37*
G36*
X151972732Y-133085500D02*
G01*
X151973000Y-133086500D01*
X151973000Y-134663500D01*
X151972000Y-134665232D01*
X151971000Y-134665500D01*
X151873000Y-134665500D01*
X151871268Y-134664500D01*
X151871000Y-134663500D01*
X151871000Y-133086500D01*
X151872000Y-133084768D01*
X151873000Y-133084500D01*
X151971000Y-133084500D01*
X151972732Y-133085500D01*
G37*
G36*
X151322732Y-133085500D02*
G01*
X151323000Y-133086500D01*
X151323000Y-134663500D01*
X151322000Y-134665232D01*
X151321000Y-134665500D01*
X151223000Y-134665500D01*
X151221268Y-134664500D01*
X151221000Y-134663500D01*
X151221000Y-133086500D01*
X151222000Y-133084768D01*
X151223000Y-133084500D01*
X151321000Y-133084500D01*
X151322732Y-133085500D01*
G37*
G36*
X150672732Y-133085500D02*
G01*
X150673000Y-133086500D01*
X150673000Y-134663500D01*
X150672000Y-134665232D01*
X150671000Y-134665500D01*
X150573000Y-134665500D01*
X150571268Y-134664500D01*
X150571000Y-134663500D01*
X150571000Y-133086500D01*
X150572000Y-133084768D01*
X150573000Y-133084500D01*
X150671000Y-133084500D01*
X150672732Y-133085500D01*
G37*
G36*
X150022732Y-133085500D02*
G01*
X150023000Y-133086500D01*
X150023000Y-134663500D01*
X150022000Y-134665232D01*
X150021000Y-134665500D01*
X149923000Y-134665500D01*
X149921268Y-134664500D01*
X149921000Y-134663500D01*
X149921000Y-133086500D01*
X149922000Y-133084768D01*
X149923000Y-133084500D01*
X150021000Y-133084500D01*
X150022732Y-133085500D01*
G37*
G36*
X149372732Y-133085500D02*
G01*
X149373000Y-133086500D01*
X149373000Y-134663500D01*
X149372000Y-134665232D01*
X149371000Y-134665500D01*
X149273000Y-134665500D01*
X149271268Y-134664500D01*
X149271000Y-134663500D01*
X149271000Y-133086500D01*
X149272000Y-133084768D01*
X149273000Y-133084500D01*
X149371000Y-133084500D01*
X149372732Y-133085500D01*
G37*
G36*
X148722732Y-133085500D02*
G01*
X148723000Y-133086500D01*
X148723000Y-134663500D01*
X148722000Y-134665232D01*
X148721000Y-134665500D01*
X148623000Y-134665500D01*
X148621268Y-134664500D01*
X148621000Y-134663500D01*
X148621000Y-133086500D01*
X148622000Y-133084768D01*
X148623000Y-133084500D01*
X148721000Y-133084500D01*
X148722732Y-133085500D01*
G37*
G36*
X152622732Y-127209500D02*
G01*
X152623000Y-127210500D01*
X152623000Y-128787500D01*
X152622000Y-128789232D01*
X152621000Y-128789500D01*
X152523000Y-128789500D01*
X152521268Y-128788500D01*
X152521000Y-128787500D01*
X152521000Y-127210500D01*
X152522000Y-127208768D01*
X152523000Y-127208500D01*
X152621000Y-127208500D01*
X152622732Y-127209500D01*
G37*
G36*
X151972732Y-127209500D02*
G01*
X151973000Y-127210500D01*
X151973000Y-128787500D01*
X151972000Y-128789232D01*
X151971000Y-128789500D01*
X151873000Y-128789500D01*
X151871268Y-128788500D01*
X151871000Y-128787500D01*
X151871000Y-127210500D01*
X151872000Y-127208768D01*
X151873000Y-127208500D01*
X151971000Y-127208500D01*
X151972732Y-127209500D01*
G37*
G36*
X151322732Y-127209500D02*
G01*
X151323000Y-127210500D01*
X151323000Y-128787500D01*
X151322000Y-128789232D01*
X151321000Y-128789500D01*
X151223000Y-128789500D01*
X151221268Y-128788500D01*
X151221000Y-128787500D01*
X151221000Y-127210500D01*
X151222000Y-127208768D01*
X151223000Y-127208500D01*
X151321000Y-127208500D01*
X151322732Y-127209500D01*
G37*
G36*
X150672732Y-127209500D02*
G01*
X150673000Y-127210500D01*
X150673000Y-128787500D01*
X150672000Y-128789232D01*
X150671000Y-128789500D01*
X150573000Y-128789500D01*
X150571268Y-128788500D01*
X150571000Y-128787500D01*
X150571000Y-127210500D01*
X150572000Y-127208768D01*
X150573000Y-127208500D01*
X150671000Y-127208500D01*
X150672732Y-127209500D01*
G37*
G36*
X150022732Y-127209500D02*
G01*
X150023000Y-127210500D01*
X150023000Y-128787500D01*
X150022000Y-128789232D01*
X150021000Y-128789500D01*
X149923000Y-128789500D01*
X149921268Y-128788500D01*
X149921000Y-128787500D01*
X149921000Y-127210500D01*
X149922000Y-127208768D01*
X149923000Y-127208500D01*
X150021000Y-127208500D01*
X150022732Y-127209500D01*
G37*
G36*
X149372732Y-127209500D02*
G01*
X149373000Y-127210500D01*
X149373000Y-128787500D01*
X149372000Y-128789232D01*
X149371000Y-128789500D01*
X149273000Y-128789500D01*
X149271268Y-128788500D01*
X149271000Y-128787500D01*
X149271000Y-127210500D01*
X149272000Y-127208768D01*
X149273000Y-127208500D01*
X149371000Y-127208500D01*
X149372732Y-127209500D01*
G37*
G36*
X148722732Y-127209500D02*
G01*
X148723000Y-127210500D01*
X148723000Y-128787500D01*
X148722000Y-128789232D01*
X148721000Y-128789500D01*
X148623000Y-128789500D01*
X148621268Y-128788500D01*
X148621000Y-128787500D01*
X148621000Y-127210500D01*
X148622000Y-127208768D01*
X148623000Y-127208500D01*
X148721000Y-127208500D01*
X148722732Y-127209500D01*
G37*
M02*
