G04 #@! TF.GenerationSoftware,KiCad,Pcbnew,(5.1.10)-1*
G04 #@! TF.CreationDate,2021-10-20T16:59:38-04:00*
G04 #@! TF.ProjectId,7seg,37736567-2e6b-4696-9361-645f70636258,rev?*
G04 #@! TF.SameCoordinates,Original*
G04 #@! TF.FileFunction,Soldermask,Top*
G04 #@! TF.FilePolarity,Negative*
%FSLAX46Y46*%
G04 Gerber Fmt 4.6, Leading zero omitted, Abs format (unit mm)*
G04 Created by KiCad (PCBNEW (5.1.10)-1) date 2021-10-20 16:59:38*
%MOMM*%
%LPD*%
G01*
G04 APERTURE LIST*
%ADD10C,4.400000*%
%ADD11C,1.650000*%
%ADD12R,1.650000X1.650000*%
%ADD13C,1.200000*%
%ADD14R,1.200000X1.200000*%
G04 APERTURE END LIST*
D10*
X159537400Y-70053200D03*
X159537400Y-90119200D03*
X73583800Y-90144600D03*
X73583800Y-70027800D03*
D11*
X127320000Y-70000000D03*
X124780000Y-70000000D03*
X122240000Y-70000000D03*
X119700000Y-70000000D03*
X117160000Y-70000000D03*
X114620000Y-70000000D03*
X112080000Y-70000000D03*
X109540000Y-70000000D03*
D12*
X107000000Y-70000000D03*
D13*
X82620000Y-75000000D03*
X82620000Y-77540000D03*
X82620000Y-80080000D03*
X82620000Y-82620000D03*
X82620000Y-85160000D03*
X75000000Y-85160000D03*
X75000000Y-82620000D03*
X75000000Y-80080000D03*
X75000000Y-77540000D03*
D14*
X75000000Y-75000000D03*
D13*
X158120000Y-75000000D03*
X158120000Y-77540000D03*
X158120000Y-80080000D03*
X158120000Y-82620000D03*
X158120000Y-85160000D03*
X150500000Y-85160000D03*
X150500000Y-82620000D03*
X150500000Y-80080000D03*
X150500000Y-77540000D03*
D14*
X150500000Y-75000000D03*
D13*
X147620000Y-75000000D03*
X147620000Y-77540000D03*
X147620000Y-80080000D03*
X147620000Y-82620000D03*
X147620000Y-85160000D03*
X140000000Y-85160000D03*
X140000000Y-82620000D03*
X140000000Y-80080000D03*
X140000000Y-77540000D03*
D14*
X140000000Y-75000000D03*
D13*
X137120000Y-75000000D03*
X137120000Y-77540000D03*
X137120000Y-80080000D03*
X137120000Y-82620000D03*
X137120000Y-85160000D03*
X129500000Y-85160000D03*
X129500000Y-82620000D03*
X129500000Y-80080000D03*
X129500000Y-77540000D03*
D14*
X129500000Y-75000000D03*
D13*
X126620000Y-75000000D03*
X126620000Y-77540000D03*
X126620000Y-80080000D03*
X126620000Y-82620000D03*
X126620000Y-85160000D03*
X119000000Y-85160000D03*
X119000000Y-82620000D03*
X119000000Y-80080000D03*
X119000000Y-77540000D03*
D14*
X119000000Y-75000000D03*
D13*
X114120000Y-75000000D03*
X114120000Y-77540000D03*
X114120000Y-80080000D03*
X114120000Y-82620000D03*
X114120000Y-85160000D03*
X106500000Y-85160000D03*
X106500000Y-82620000D03*
X106500000Y-80080000D03*
X106500000Y-77540000D03*
D14*
X106500000Y-75000000D03*
D13*
X103620000Y-75000000D03*
X103620000Y-77540000D03*
X103620000Y-80080000D03*
X103620000Y-82620000D03*
X103620000Y-85160000D03*
X96000000Y-85160000D03*
X96000000Y-82620000D03*
X96000000Y-80080000D03*
X96000000Y-77540000D03*
D14*
X96000000Y-75000000D03*
D13*
X93120000Y-75000000D03*
X93120000Y-77540000D03*
X93120000Y-80080000D03*
X93120000Y-82620000D03*
X93120000Y-85160000D03*
X85500000Y-85160000D03*
X85500000Y-82620000D03*
X85500000Y-80080000D03*
X85500000Y-77540000D03*
D14*
X85500000Y-75000000D03*
M02*
