M48
; DRILL file {KiCad (5.1.10)-1} date 10/20/21 16:59:35
; FORMAT={-:-/ absolute / inch / decimal}
; #@! TF.CreationDate,2021-10-20T16:59:35-04:00
; #@! TF.GenerationSoftware,Kicad,Pcbnew,(5.1.10)-1
FMAT,2
INCH
T1C0.0157
T2C0.0315
T3C0.0433
T4C0.0866
%
G90
G05
T1
X3.5197Y-3.248
T2
X2.9528Y-2.9528
X2.9528Y-3.0528
X2.9528Y-3.1528
X2.9528Y-3.2528
X2.9528Y-3.3528
X3.2528Y-2.9528
X3.2528Y-3.0528
X3.2528Y-3.1528
X3.2528Y-3.2528
X3.2528Y-3.3528
X3.3661Y-2.9528
X3.3661Y-3.0528
X3.3661Y-3.1528
X3.3661Y-3.2528
X3.3661Y-3.3528
X3.6661Y-2.9528
X3.6661Y-3.0528
X3.6661Y-3.1528
X3.6661Y-3.2528
X3.6661Y-3.3528
X3.7795Y-2.9528
X3.7795Y-3.0528
X3.7795Y-3.1528
X3.7795Y-3.2528
X3.7795Y-3.3528
X4.0795Y-2.9528
X4.0795Y-3.0528
X4.0795Y-3.1528
X4.0795Y-3.2528
X4.0795Y-3.3528
X4.1929Y-2.9528
X4.1929Y-3.0528
X4.1929Y-3.1528
X4.1929Y-3.2528
X4.1929Y-3.3528
X4.4929Y-2.9528
X4.4929Y-3.0528
X4.4929Y-3.1528
X4.4929Y-3.2528
X4.4929Y-3.3528
X4.685Y-2.9528
X4.685Y-3.0528
X4.685Y-3.1528
X4.685Y-3.2528
X4.685Y-3.3528
X4.985Y-2.9528
X4.985Y-3.0528
X4.985Y-3.1528
X4.985Y-3.2528
X4.985Y-3.3528
X5.0984Y-2.9528
X5.0984Y-3.0528
X5.0984Y-3.1528
X5.0984Y-3.2528
X5.0984Y-3.3528
X5.3984Y-2.9528
X5.3984Y-3.0528
X5.3984Y-3.1528
X5.3984Y-3.2528
X5.3984Y-3.3528
X5.5118Y-2.9528
X5.5118Y-3.0528
X5.5118Y-3.1528
X5.5118Y-3.2528
X5.5118Y-3.3528
X5.8118Y-2.9528
X5.8118Y-3.0528
X5.8118Y-3.1528
X5.8118Y-3.2528
X5.8118Y-3.3528
X5.9252Y-2.9528
X5.9252Y-3.0528
X5.9252Y-3.1528
X5.9252Y-3.2528
X5.9252Y-3.3528
X6.2252Y-2.9528
X6.2252Y-3.0528
X6.2252Y-3.1528
X6.2252Y-3.2528
X6.2252Y-3.3528
T3
X4.2126Y-2.7559
X4.3126Y-2.7559
X4.4126Y-2.7559
X4.5126Y-2.7559
X4.6126Y-2.7559
X4.7126Y-2.7559
X4.8126Y-2.7559
X4.9126Y-2.7559
X5.0126Y-2.7559
T4
X2.897Y-2.757
X2.897Y-3.549
X6.281Y-2.758
X6.281Y-3.548
T0
M30
