G04 #@! TF.GenerationSoftware,KiCad,Pcbnew,(5.1.10)-1*
G04 #@! TF.CreationDate,2021-10-20T16:59:38-04:00*
G04 #@! TF.ProjectId,7seg,37736567-2e6b-4696-9361-645f70636258,rev?*
G04 #@! TF.SameCoordinates,Original*
G04 #@! TF.FileFunction,Copper,L1,Top*
G04 #@! TF.FilePolarity,Positive*
%FSLAX46Y46*%
G04 Gerber Fmt 4.6, Leading zero omitted, Abs format (unit mm)*
G04 Created by KiCad (PCBNEW (5.1.10)-1) date 2021-10-20 16:59:38*
%MOMM*%
%LPD*%
G01*
G04 APERTURE LIST*
G04 #@! TA.AperFunction,ComponentPad*
%ADD10C,4.400000*%
G04 #@! TD*
G04 #@! TA.AperFunction,ComponentPad*
%ADD11C,1.650000*%
G04 #@! TD*
G04 #@! TA.AperFunction,ComponentPad*
%ADD12R,1.650000X1.650000*%
G04 #@! TD*
G04 #@! TA.AperFunction,ComponentPad*
%ADD13C,1.200000*%
G04 #@! TD*
G04 #@! TA.AperFunction,ComponentPad*
%ADD14R,1.200000X1.200000*%
G04 #@! TD*
G04 #@! TA.AperFunction,ViaPad*
%ADD15C,0.800000*%
G04 #@! TD*
G04 #@! TA.AperFunction,Conductor*
%ADD16C,0.254000*%
G04 #@! TD*
G04 #@! TA.AperFunction,Conductor*
%ADD17C,0.250000*%
G04 #@! TD*
G04 APERTURE END LIST*
D10*
X159537400Y-70053200D03*
X159537400Y-90119200D03*
X73583800Y-90144600D03*
X73583800Y-70027800D03*
D11*
X127320000Y-70000000D03*
X124780000Y-70000000D03*
X122240000Y-70000000D03*
X119700000Y-70000000D03*
X117160000Y-70000000D03*
X114620000Y-70000000D03*
X112080000Y-70000000D03*
X109540000Y-70000000D03*
D12*
X107000000Y-70000000D03*
D13*
X82620000Y-75000000D03*
X82620000Y-77540000D03*
X82620000Y-80080000D03*
X82620000Y-82620000D03*
X82620000Y-85160000D03*
X75000000Y-85160000D03*
X75000000Y-82620000D03*
X75000000Y-80080000D03*
X75000000Y-77540000D03*
D14*
X75000000Y-75000000D03*
D13*
X158120000Y-75000000D03*
X158120000Y-77540000D03*
X158120000Y-80080000D03*
X158120000Y-82620000D03*
X158120000Y-85160000D03*
X150500000Y-85160000D03*
X150500000Y-82620000D03*
X150500000Y-80080000D03*
X150500000Y-77540000D03*
D14*
X150500000Y-75000000D03*
D13*
X147620000Y-75000000D03*
X147620000Y-77540000D03*
X147620000Y-80080000D03*
X147620000Y-82620000D03*
X147620000Y-85160000D03*
X140000000Y-85160000D03*
X140000000Y-82620000D03*
X140000000Y-80080000D03*
X140000000Y-77540000D03*
D14*
X140000000Y-75000000D03*
D13*
X137120000Y-75000000D03*
X137120000Y-77540000D03*
X137120000Y-80080000D03*
X137120000Y-82620000D03*
X137120000Y-85160000D03*
X129500000Y-85160000D03*
X129500000Y-82620000D03*
X129500000Y-80080000D03*
X129500000Y-77540000D03*
D14*
X129500000Y-75000000D03*
D13*
X126620000Y-75000000D03*
X126620000Y-77540000D03*
X126620000Y-80080000D03*
X126620000Y-82620000D03*
X126620000Y-85160000D03*
X119000000Y-85160000D03*
X119000000Y-82620000D03*
X119000000Y-80080000D03*
X119000000Y-77540000D03*
D14*
X119000000Y-75000000D03*
D13*
X114120000Y-75000000D03*
X114120000Y-77540000D03*
X114120000Y-80080000D03*
X114120000Y-82620000D03*
X114120000Y-85160000D03*
X106500000Y-85160000D03*
X106500000Y-82620000D03*
X106500000Y-80080000D03*
X106500000Y-77540000D03*
D14*
X106500000Y-75000000D03*
D13*
X103620000Y-75000000D03*
X103620000Y-77540000D03*
X103620000Y-80080000D03*
X103620000Y-82620000D03*
X103620000Y-85160000D03*
X96000000Y-85160000D03*
X96000000Y-82620000D03*
X96000000Y-80080000D03*
X96000000Y-77540000D03*
D14*
X96000000Y-75000000D03*
D13*
X93120000Y-75000000D03*
X93120000Y-77540000D03*
X93120000Y-80080000D03*
X93120000Y-82620000D03*
X93120000Y-85160000D03*
X85500000Y-85160000D03*
X85500000Y-82620000D03*
X85500000Y-80080000D03*
X85500000Y-77540000D03*
D14*
X85500000Y-75000000D03*
D15*
X89400000Y-82500000D03*
D16*
X84572999Y-83547001D02*
X84900001Y-83219999D01*
X75927001Y-83547001D02*
X84572999Y-83547001D01*
X84900001Y-83219999D02*
X85500000Y-82620000D01*
X75000000Y-82620000D02*
X75927001Y-83547001D01*
X105900001Y-83219999D02*
X106500000Y-82620000D01*
X105572999Y-83547001D02*
X105900001Y-83219999D01*
X96927001Y-83547001D02*
X105572999Y-83547001D01*
X96000000Y-82620000D02*
X96927001Y-83547001D01*
X117387001Y-81692999D02*
X118400001Y-80679999D01*
X107427001Y-81692999D02*
X117387001Y-81692999D01*
X118400001Y-80679999D02*
X119000000Y-80080000D01*
X106500000Y-82620000D02*
X107427001Y-81692999D01*
X119848528Y-80080000D02*
X126620000Y-80080000D01*
X119000000Y-80080000D02*
X119848528Y-80080000D01*
X139400001Y-84560001D02*
X140000000Y-85160000D01*
X130427001Y-84232999D02*
X139072999Y-84232999D01*
X139072999Y-84232999D02*
X139400001Y-84560001D01*
X129500000Y-85160000D02*
X130427001Y-84232999D01*
X149900001Y-84560001D02*
X150500000Y-85160000D01*
X149572999Y-84232999D02*
X149900001Y-84560001D01*
X140927001Y-84232999D02*
X149572999Y-84232999D01*
X140000000Y-85160000D02*
X140927001Y-84232999D01*
X84900001Y-85759999D02*
X85500000Y-85160000D01*
X84572999Y-86087001D02*
X84900001Y-85759999D01*
X75927001Y-86087001D02*
X84572999Y-86087001D01*
X75000000Y-85160000D02*
X75927001Y-86087001D01*
X105900001Y-84560001D02*
X106500000Y-85160000D01*
X105572999Y-84232999D02*
X105900001Y-84560001D01*
X97775529Y-84232999D02*
X105572999Y-84232999D01*
X96848528Y-85160000D02*
X97775529Y-84232999D01*
X96000000Y-85160000D02*
X96848528Y-85160000D01*
X118400001Y-84560001D02*
X119000000Y-85160000D01*
X118072999Y-84232999D02*
X118400001Y-84560001D01*
X107427001Y-84232999D02*
X118072999Y-84232999D01*
X106500000Y-85160000D02*
X107427001Y-84232999D01*
X119000000Y-84311472D02*
X121618473Y-81692999D01*
X119000000Y-85160000D02*
X119000000Y-84311472D01*
X127887001Y-81692999D02*
X129500000Y-80080000D01*
X121618473Y-81692999D02*
X127887001Y-81692999D01*
X136520001Y-80679999D02*
X137120000Y-80080000D01*
X130099999Y-80679999D02*
X136520001Y-80679999D01*
X129500000Y-80080000D02*
X130099999Y-80679999D01*
X147020001Y-82020001D02*
X147620000Y-82620000D01*
X146007001Y-81007001D02*
X147020001Y-82020001D01*
X138047001Y-81007001D02*
X146007001Y-81007001D01*
X137120000Y-80080000D02*
X138047001Y-81007001D01*
X157520001Y-82020001D02*
X158120000Y-82620000D01*
X157192999Y-81692999D02*
X157520001Y-82020001D01*
X148547001Y-81692999D02*
X157192999Y-81692999D01*
X147620000Y-82620000D02*
X148547001Y-81692999D01*
X88592999Y-81692999D02*
X89400000Y-82500000D01*
X82620000Y-82620000D02*
X83547001Y-81692999D01*
X83547001Y-81692999D02*
X88592999Y-81692999D01*
X103020001Y-82020001D02*
X103620000Y-82620000D01*
X102692999Y-81692999D02*
X103020001Y-82020001D01*
X94047001Y-81692999D02*
X102692999Y-81692999D01*
X93120000Y-82620000D02*
X94047001Y-81692999D01*
X136520001Y-83219999D02*
X137120000Y-82620000D01*
X136192999Y-83547001D02*
X136520001Y-83219999D01*
X127547001Y-83547001D02*
X136192999Y-83547001D01*
X126620000Y-82620000D02*
X127547001Y-83547001D01*
X140848528Y-80080000D02*
X147620000Y-80080000D01*
X140000000Y-80080000D02*
X140848528Y-80080000D01*
X157520001Y-78139999D02*
X158120000Y-77540000D01*
X156507001Y-79152999D02*
X157520001Y-78139999D01*
X148547001Y-79152999D02*
X156507001Y-79152999D01*
X147620000Y-80080000D02*
X148547001Y-79152999D01*
X92520001Y-76940001D02*
X93120000Y-77540000D01*
X92192999Y-76612999D02*
X92520001Y-76940001D01*
X83468528Y-77540000D02*
X84395529Y-76612999D01*
X84395529Y-76612999D02*
X92192999Y-76612999D01*
X82620000Y-77540000D02*
X83468528Y-77540000D01*
X102692999Y-76612999D02*
X103020001Y-76940001D01*
X103020001Y-76940001D02*
X103620000Y-77540000D01*
X94895529Y-76612999D02*
X102692999Y-76612999D01*
X93968528Y-77540000D02*
X94895529Y-76612999D01*
X93120000Y-77540000D02*
X93968528Y-77540000D01*
X113520001Y-76940001D02*
X114120000Y-77540000D01*
X113192999Y-76612999D02*
X113520001Y-76940001D01*
X104547001Y-76612999D02*
X113192999Y-76612999D01*
X103620000Y-77540000D02*
X104547001Y-76612999D01*
X125692999Y-76612999D02*
X126020001Y-76940001D01*
X126020001Y-76940001D02*
X126620000Y-77540000D01*
X115047001Y-76612999D02*
X125692999Y-76612999D01*
X114120000Y-77540000D02*
X115047001Y-76612999D01*
X136520001Y-76940001D02*
X137120000Y-77540000D01*
X136192999Y-76612999D02*
X136520001Y-76940001D01*
X127547001Y-76612999D02*
X136192999Y-76612999D01*
X126620000Y-77540000D02*
X127547001Y-76612999D01*
X147020001Y-76940001D02*
X147620000Y-77540000D01*
X146692999Y-76612999D02*
X147020001Y-76940001D01*
X138047001Y-76612999D02*
X146692999Y-76612999D01*
X137120000Y-77540000D02*
X138047001Y-76612999D01*
X151348528Y-80080000D02*
X158120000Y-80080000D01*
X150500000Y-80080000D02*
X151348528Y-80080000D01*
X92520001Y-75599999D02*
X93120000Y-75000000D01*
X92192999Y-75927001D02*
X92520001Y-75599999D01*
X84395529Y-75927001D02*
X92192999Y-75927001D01*
X83468528Y-75000000D02*
X84395529Y-75927001D01*
X82620000Y-75000000D02*
X83468528Y-75000000D01*
X102692999Y-74072999D02*
X103020001Y-74400001D01*
X93968528Y-75000000D02*
X94895529Y-74072999D01*
X103020001Y-74400001D02*
X103620000Y-75000000D01*
X94895529Y-74072999D02*
X102692999Y-74072999D01*
X93120000Y-75000000D02*
X93968528Y-75000000D01*
X113192999Y-74072999D02*
X113520001Y-74400001D01*
X104547001Y-74072999D02*
X113192999Y-74072999D01*
X113520001Y-74400001D02*
X114120000Y-75000000D01*
X103620000Y-75000000D02*
X104547001Y-74072999D01*
X126020001Y-74400001D02*
X126620000Y-75000000D01*
X125692999Y-74072999D02*
X126020001Y-74400001D01*
X114968528Y-75000000D02*
X115895529Y-74072999D01*
X114120000Y-75000000D02*
X114968528Y-75000000D01*
X136192999Y-74072999D02*
X136520001Y-74400001D01*
X136520001Y-74400001D02*
X137120000Y-75000000D01*
X128395529Y-74072999D02*
X136192999Y-74072999D01*
X127468528Y-75000000D02*
X128395529Y-74072999D01*
X126620000Y-75000000D02*
X127468528Y-75000000D01*
X147020001Y-74400001D02*
X147620000Y-75000000D01*
X146692999Y-74072999D02*
X147020001Y-74400001D01*
X138057933Y-75000000D02*
X138984934Y-74072999D01*
X138984934Y-74072999D02*
X146692999Y-74072999D01*
X137120000Y-75000000D02*
X138057933Y-75000000D01*
X157192999Y-74072999D02*
X157520001Y-74400001D01*
X157520001Y-74400001D02*
X158120000Y-75000000D01*
X148557933Y-75000000D02*
X149484934Y-74072999D01*
X149484934Y-74072999D02*
X157192999Y-74072999D01*
X147620000Y-75000000D02*
X148557933Y-75000000D01*
D17*
X117160000Y-70000000D02*
X117160000Y-73535998D01*
D16*
X117697001Y-74072999D02*
X125692999Y-74072999D01*
D17*
X117160000Y-73535998D02*
X117697001Y-74072999D01*
D16*
X115895529Y-74072999D02*
X117697001Y-74072999D01*
X75848528Y-80080000D02*
X82620000Y-80080000D01*
X75000000Y-80080000D02*
X75848528Y-80080000D01*
X82620000Y-80080000D02*
X83468528Y-80080000D01*
X93120000Y-85160000D02*
X89160000Y-81200000D01*
X84588528Y-81200000D02*
X83468528Y-80080000D01*
X89160000Y-81200000D02*
X84588528Y-81200000D01*
X103020001Y-85759999D02*
X103620000Y-85160000D01*
X102692999Y-86087001D02*
X103020001Y-85759999D01*
X94047001Y-86087001D02*
X102692999Y-86087001D01*
X93120000Y-85160000D02*
X94047001Y-86087001D01*
X113520001Y-85759999D02*
X114120000Y-85160000D01*
X113192999Y-86087001D02*
X113520001Y-85759999D01*
X104547001Y-86087001D02*
X113192999Y-86087001D01*
X103620000Y-85160000D02*
X104547001Y-86087001D01*
X125692999Y-86087001D02*
X126020001Y-85759999D01*
X118555039Y-86087001D02*
X125692999Y-86087001D01*
X117628038Y-85160000D02*
X118555039Y-86087001D01*
X126020001Y-85759999D02*
X126620000Y-85160000D01*
X114120000Y-85160000D02*
X117628038Y-85160000D01*
X136520001Y-85759999D02*
X137120000Y-85160000D01*
X136192999Y-86087001D02*
X136520001Y-85759999D01*
X128395529Y-86087001D02*
X136192999Y-86087001D01*
X127468528Y-85160000D02*
X128395529Y-86087001D01*
X126620000Y-85160000D02*
X127468528Y-85160000D01*
X147020001Y-85759999D02*
X147620000Y-85160000D01*
X146692999Y-86087001D02*
X147020001Y-85759999D01*
X138047001Y-86087001D02*
X146692999Y-86087001D01*
X137120000Y-85160000D02*
X138047001Y-86087001D01*
X157520001Y-85759999D02*
X158120000Y-85160000D01*
X148547001Y-86087001D02*
X157192999Y-86087001D01*
X157192999Y-86087001D02*
X157520001Y-85759999D01*
X147620000Y-85160000D02*
X148547001Y-86087001D01*
X81674000Y-73406000D02*
X75000000Y-80080000D01*
D17*
X81674000Y-73406000D02*
X97282000Y-73406000D01*
X113469999Y-68849999D02*
X114620000Y-70000000D01*
X101838001Y-68849999D02*
X113469999Y-68849999D01*
X97282000Y-73406000D02*
X101838001Y-68849999D01*
D16*
X85500000Y-80080000D02*
X93120000Y-80080000D01*
X97781001Y-75927001D02*
X104272999Y-75927001D01*
X96000000Y-75000000D02*
X96854000Y-75000000D01*
X96854000Y-75000000D02*
X97781001Y-75927001D01*
X105200000Y-75000000D02*
X106500000Y-75000000D01*
X104272999Y-75927001D02*
X105200000Y-75000000D01*
X108281001Y-75927001D02*
X115672999Y-75927001D01*
X106500000Y-75000000D02*
X107354000Y-75000000D01*
X107354000Y-75000000D02*
X108281001Y-75927001D01*
X116600000Y-75000000D02*
X119000000Y-75000000D01*
X115672999Y-75927001D02*
X116600000Y-75000000D01*
X120781001Y-75927001D02*
X127272999Y-75927001D01*
X119000000Y-75000000D02*
X119854000Y-75000000D01*
X119854000Y-75000000D02*
X120781001Y-75927001D01*
X128200000Y-75000000D02*
X129500000Y-75000000D01*
X127272999Y-75927001D02*
X128200000Y-75000000D01*
X131281001Y-75927001D02*
X137772999Y-75927001D01*
X129500000Y-75000000D02*
X130354000Y-75000000D01*
X130354000Y-75000000D02*
X131281001Y-75927001D01*
X138700000Y-75000000D02*
X140000000Y-75000000D01*
X137772999Y-75927001D02*
X138700000Y-75000000D01*
X141781001Y-75927001D02*
X148272999Y-75927001D01*
X140000000Y-75000000D02*
X140854000Y-75000000D01*
X140854000Y-75000000D02*
X141781001Y-75927001D01*
X149200000Y-75000000D02*
X150500000Y-75000000D01*
X148272999Y-75927001D02*
X149200000Y-75000000D01*
X96000000Y-80080000D02*
X103620000Y-80080000D01*
X118072999Y-78467001D02*
X118400001Y-78139999D01*
X108275529Y-78467001D02*
X118072999Y-78467001D01*
X118400001Y-78139999D02*
X119000000Y-77540000D01*
X107348528Y-77540000D02*
X108275529Y-78467001D01*
X106500000Y-77540000D02*
X107348528Y-77540000D01*
X128900001Y-78139999D02*
X129500000Y-77540000D01*
X128572999Y-78467001D02*
X128900001Y-78139999D01*
X126175039Y-78467001D02*
X128572999Y-78467001D01*
X125248038Y-77540000D02*
X126175039Y-78467001D01*
X119000000Y-77540000D02*
X125248038Y-77540000D01*
X139072999Y-78467001D02*
X139400001Y-78139999D01*
X131275529Y-78467001D02*
X139072999Y-78467001D01*
X139400001Y-78139999D02*
X140000000Y-77540000D01*
X130348528Y-77540000D02*
X131275529Y-78467001D01*
X129500000Y-77540000D02*
X130348528Y-77540000D01*
X149900001Y-78139999D02*
X150500000Y-77540000D01*
X149572999Y-78467001D02*
X149900001Y-78139999D01*
X141775529Y-78467001D02*
X149572999Y-78467001D01*
X140848528Y-77540000D02*
X141775529Y-78467001D01*
X140000000Y-77540000D02*
X140848528Y-77540000D01*
X95400001Y-78139999D02*
X96000000Y-77540000D01*
X95072999Y-78467001D02*
X95400001Y-78139999D01*
X86427001Y-78467001D02*
X95072999Y-78467001D01*
X85500000Y-77540000D02*
X86427001Y-78467001D01*
X105900001Y-79480001D02*
X106500000Y-80080000D01*
X98461527Y-79152999D02*
X105572999Y-79152999D01*
X96848528Y-77540000D02*
X98461527Y-79152999D01*
X105572999Y-79152999D02*
X105900001Y-79480001D01*
X96000000Y-77540000D02*
X96848528Y-77540000D01*
X106500000Y-80080000D02*
X114120000Y-80080000D01*
X149900001Y-83219999D02*
X150500000Y-82620000D01*
X149572999Y-83547001D02*
X149900001Y-83219999D01*
X141775529Y-83547001D02*
X149572999Y-83547001D01*
X140848528Y-82620000D02*
X141775529Y-83547001D01*
X140000000Y-82620000D02*
X140848528Y-82620000D01*
M02*
