G04 #@! TF.GenerationSoftware,KiCad,Pcbnew,(5.1.10)-1*
G04 #@! TF.CreationDate,2021-10-20T16:59:38-04:00*
G04 #@! TF.ProjectId,7seg,37736567-2e6b-4696-9361-645f70636258,rev?*
G04 #@! TF.SameCoordinates,Original*
G04 #@! TF.FileFunction,Copper,L2,Bot*
G04 #@! TF.FilePolarity,Positive*
%FSLAX46Y46*%
G04 Gerber Fmt 4.6, Leading zero omitted, Abs format (unit mm)*
G04 Created by KiCad (PCBNEW (5.1.10)-1) date 2021-10-20 16:59:38*
%MOMM*%
%LPD*%
G01*
G04 APERTURE LIST*
G04 #@! TA.AperFunction,ComponentPad*
%ADD10C,4.400000*%
G04 #@! TD*
G04 #@! TA.AperFunction,ComponentPad*
%ADD11C,1.650000*%
G04 #@! TD*
G04 #@! TA.AperFunction,ComponentPad*
%ADD12R,1.650000X1.650000*%
G04 #@! TD*
G04 #@! TA.AperFunction,ComponentPad*
%ADD13C,1.200000*%
G04 #@! TD*
G04 #@! TA.AperFunction,ComponentPad*
%ADD14R,1.200000X1.200000*%
G04 #@! TD*
G04 #@! TA.AperFunction,ViaPad*
%ADD15C,0.800000*%
G04 #@! TD*
G04 #@! TA.AperFunction,Conductor*
%ADD16C,0.254000*%
G04 #@! TD*
G04 #@! TA.AperFunction,Conductor*
%ADD17C,0.250000*%
G04 #@! TD*
G04 APERTURE END LIST*
D10*
X159537400Y-70053200D03*
X159537400Y-90119200D03*
X73583800Y-90144600D03*
X73583800Y-70027800D03*
D11*
X127320000Y-70000000D03*
X124780000Y-70000000D03*
X122240000Y-70000000D03*
X119700000Y-70000000D03*
X117160000Y-70000000D03*
X114620000Y-70000000D03*
X112080000Y-70000000D03*
X109540000Y-70000000D03*
D12*
X107000000Y-70000000D03*
D13*
X82620000Y-75000000D03*
X82620000Y-77540000D03*
X82620000Y-80080000D03*
X82620000Y-82620000D03*
X82620000Y-85160000D03*
X75000000Y-85160000D03*
X75000000Y-82620000D03*
X75000000Y-80080000D03*
X75000000Y-77540000D03*
D14*
X75000000Y-75000000D03*
D13*
X158120000Y-75000000D03*
X158120000Y-77540000D03*
X158120000Y-80080000D03*
X158120000Y-82620000D03*
X158120000Y-85160000D03*
X150500000Y-85160000D03*
X150500000Y-82620000D03*
X150500000Y-80080000D03*
X150500000Y-77540000D03*
D14*
X150500000Y-75000000D03*
D13*
X147620000Y-75000000D03*
X147620000Y-77540000D03*
X147620000Y-80080000D03*
X147620000Y-82620000D03*
X147620000Y-85160000D03*
X140000000Y-85160000D03*
X140000000Y-82620000D03*
X140000000Y-80080000D03*
X140000000Y-77540000D03*
D14*
X140000000Y-75000000D03*
D13*
X137120000Y-75000000D03*
X137120000Y-77540000D03*
X137120000Y-80080000D03*
X137120000Y-82620000D03*
X137120000Y-85160000D03*
X129500000Y-85160000D03*
X129500000Y-82620000D03*
X129500000Y-80080000D03*
X129500000Y-77540000D03*
D14*
X129500000Y-75000000D03*
D13*
X126620000Y-75000000D03*
X126620000Y-77540000D03*
X126620000Y-80080000D03*
X126620000Y-82620000D03*
X126620000Y-85160000D03*
X119000000Y-85160000D03*
X119000000Y-82620000D03*
X119000000Y-80080000D03*
X119000000Y-77540000D03*
D14*
X119000000Y-75000000D03*
D13*
X114120000Y-75000000D03*
X114120000Y-77540000D03*
X114120000Y-80080000D03*
X114120000Y-82620000D03*
X114120000Y-85160000D03*
X106500000Y-85160000D03*
X106500000Y-82620000D03*
X106500000Y-80080000D03*
X106500000Y-77540000D03*
D14*
X106500000Y-75000000D03*
D13*
X103620000Y-75000000D03*
X103620000Y-77540000D03*
X103620000Y-80080000D03*
X103620000Y-82620000D03*
X103620000Y-85160000D03*
X96000000Y-85160000D03*
X96000000Y-82620000D03*
X96000000Y-80080000D03*
X96000000Y-77540000D03*
D14*
X96000000Y-75000000D03*
D13*
X93120000Y-75000000D03*
X93120000Y-77540000D03*
X93120000Y-80080000D03*
X93120000Y-82620000D03*
X93120000Y-85160000D03*
X85500000Y-85160000D03*
X85500000Y-82620000D03*
X85500000Y-80080000D03*
X85500000Y-77540000D03*
D14*
X85500000Y-75000000D03*
D15*
X89400000Y-82500000D03*
D16*
X95072999Y-83547001D02*
X95400001Y-83219999D01*
X95400001Y-83219999D02*
X96000000Y-82620000D01*
X86427001Y-83547001D02*
X95072999Y-83547001D01*
X85500000Y-82620000D02*
X86427001Y-83547001D01*
X128900001Y-84560001D02*
X129500000Y-85160000D01*
X127547001Y-83207001D02*
X128900001Y-84560001D01*
X127547001Y-81007001D02*
X127547001Y-83207001D01*
X126620000Y-80080000D02*
X127547001Y-81007001D01*
X117160000Y-78240000D02*
X119000000Y-80080000D01*
D17*
X123390001Y-75689999D02*
X119000000Y-80080000D01*
X123390001Y-69687997D02*
X123390001Y-75689999D01*
X124227999Y-68849999D02*
X123390001Y-69687997D01*
X126169999Y-68849999D02*
X124227999Y-68849999D01*
X127320000Y-70000000D02*
X126169999Y-68849999D01*
D16*
X95400001Y-85759999D02*
X96000000Y-85160000D01*
X95072999Y-86087001D02*
X95400001Y-85759999D01*
X86427001Y-86087001D02*
X95072999Y-86087001D01*
X85500000Y-85160000D02*
X86427001Y-86087001D01*
D17*
X124780000Y-70000000D02*
X124780000Y-71440000D01*
X128397000Y-78977000D02*
X129500000Y-80080000D01*
X128397000Y-75057000D02*
X128397000Y-78977000D01*
X124780000Y-71440000D02*
X128397000Y-75057000D01*
D16*
X93000000Y-82500000D02*
X93120000Y-82620000D01*
X89400000Y-82500000D02*
X93000000Y-82500000D01*
X113520001Y-83219999D02*
X114120000Y-82620000D01*
X113192999Y-83547001D02*
X113520001Y-83219999D01*
X105395529Y-83547001D02*
X113192999Y-83547001D01*
X104468528Y-82620000D02*
X105395529Y-83547001D01*
X103620000Y-82620000D02*
X104468528Y-82620000D01*
X126020001Y-83219999D02*
X126620000Y-82620000D01*
X125692999Y-83547001D02*
X126020001Y-83219999D01*
X115047001Y-83547001D02*
X125692999Y-83547001D01*
X114120000Y-82620000D02*
X115047001Y-83547001D01*
X139660000Y-80080000D02*
X140000000Y-80080000D01*
X137120000Y-82620000D02*
X139660000Y-80080000D01*
D17*
X136017000Y-81517000D02*
X137120000Y-82620000D01*
X136017000Y-76994998D02*
X136017000Y-81517000D01*
X127421992Y-68399990D02*
X136017000Y-76994998D01*
X123840010Y-68399990D02*
X127421992Y-68399990D01*
X122240000Y-70000000D02*
X123840010Y-68399990D01*
D16*
X150160000Y-80080000D02*
X150500000Y-80080000D01*
X147620000Y-77540000D02*
X150160000Y-80080000D01*
D17*
X115045001Y-76614999D02*
X114120000Y-77540000D01*
X119170003Y-76614999D02*
X115045001Y-76614999D01*
X120524999Y-75260003D02*
X119170003Y-76614999D01*
X120524999Y-70824999D02*
X120524999Y-75260003D01*
X119700000Y-70000000D02*
X120524999Y-70824999D01*
D16*
X84900001Y-80679999D02*
X85500000Y-80080000D01*
X83547001Y-82032999D02*
X84900001Y-80679999D01*
X83547001Y-84232999D02*
X83547001Y-82032999D01*
X82620000Y-85160000D02*
X83547001Y-84232999D01*
X93120000Y-80080000D02*
X94600000Y-78600000D01*
X94600000Y-75546000D02*
X95146000Y-75000000D01*
X95146000Y-75000000D02*
X96000000Y-75000000D01*
X94600000Y-78600000D02*
X94600000Y-75546000D01*
D17*
X116154999Y-74074999D02*
X112080000Y-70000000D01*
X118074999Y-74074999D02*
X116154999Y-74074999D01*
X119000000Y-75000000D02*
X118074999Y-74074999D01*
D16*
X76781001Y-75927001D02*
X83472999Y-75927001D01*
X75000000Y-75000000D02*
X75854000Y-75000000D01*
X75854000Y-75000000D02*
X76781001Y-75927001D01*
X84400000Y-75000000D02*
X85500000Y-75000000D01*
X83472999Y-75927001D02*
X84400000Y-75000000D01*
X95400001Y-80679999D02*
X96000000Y-80080000D01*
X86354000Y-75000000D02*
X92361001Y-81007001D01*
X95072999Y-81007001D02*
X95400001Y-80679999D01*
X92361001Y-81007001D02*
X95072999Y-81007001D01*
X85500000Y-75000000D02*
X86354000Y-75000000D01*
X106160000Y-77540000D02*
X106500000Y-77540000D01*
X103620000Y-80080000D02*
X106160000Y-77540000D01*
D17*
X109540000Y-74500000D02*
X109540000Y-70000000D01*
X106500000Y-77540000D02*
X109540000Y-74500000D01*
D16*
X84900001Y-78139999D02*
X85500000Y-77540000D01*
X84572999Y-78467001D02*
X84900001Y-78139999D01*
X76775529Y-78467001D02*
X84572999Y-78467001D01*
X75848528Y-77540000D02*
X76775529Y-78467001D01*
X75000000Y-77540000D02*
X75848528Y-77540000D01*
X116460000Y-80080000D02*
X119000000Y-82620000D01*
X114120000Y-80080000D02*
X116460000Y-80080000D01*
X119000000Y-82620000D02*
X122467001Y-79152999D01*
X127064961Y-79152999D02*
X128200000Y-80288038D01*
X122467001Y-79152999D02*
X127064961Y-79152999D01*
X128200000Y-81320000D02*
X129500000Y-82620000D01*
X128200000Y-80288038D02*
X128200000Y-81320000D01*
X139400001Y-83219999D02*
X140000000Y-82620000D01*
X139072999Y-83547001D02*
X139400001Y-83219999D01*
X130427001Y-83547001D02*
X139072999Y-83547001D01*
X129500000Y-82620000D02*
X130427001Y-83547001D01*
D17*
X103540000Y-70000000D02*
X96000000Y-77540000D01*
X107000000Y-70000000D02*
X103540000Y-70000000D01*
M02*
